<?xml version="1.0" encoding="utf-8" ?>
<svg baseProfile="full" height="200mm" version="1.1" viewBox="0,0,200,200" width="200mm" xmlns="http://www.w3.org/2000/svg" xmlns:ev="http://www.w3.org/2001/xml-events" xmlns:xlink="http://www.w3.org/1999/xlink"><defs /><rect fill="#1a1a1a" height="200" width="200" x="0" y="0" /><rect fill="#1a1a1a" height="200" width="180" x="10" y="0" /><text alignment-baseline="middle" fill="#e1ed5e" style="dominant-baseline: central; font-size:9.0px; font-family:Arial;" text-anchor="middle" x="100.0" y="100.0">2023</text><line stroke="#e1ed5e" stroke-width="0.3" x1="100.0" x2="100.0" y1="15.0" y2="10.0" /><path d="M 100.0 14.0 a86.0,86.0 0 0,1 42.46469731375804,11.215312516191453" fill="none" id="id13" stroke="none" /><text fill="#e1ed5e" style="font-size:6.75px; font-family:Arial;" text-anchor="middle"><textPath startOffset="22.20632615414155" xlink:href="#id13">January</textPath></text><path d="M 102.16513564639614 79.11191278185805 l 1.3804106846774549 -13.317474508533513 a34.38882597331863,34.38882597331863 0 0,0 0.5882672055631254,0.06609867484183067 l -1.6094445937503055 13.291739880221082" fill="#ff6b09" stroke="none" /><path d="M 102.52436894288641 79.15227682838746 l 2.08517037964209 -17.22056316804428 a38.34634633969759,38.34634633969759 0 0,0 0.6546000180151739,0.0849858694846807 l -2.38128512616511 17.18211897539546" fill="#ffa50f" stroke="none" /><path d="M 104.66035177308747 79.52364482259891 l 5.032518725040626 -22.111558497779377 a43.67702061379766,43.67702061379766 0 0,0 0.7316448226658856,0.17315669102886674 l -5.412387234669035 22.021655894609644" fill="#ffef16" stroke="none" /><path d="M 107.08798089147638 80.2323363322302 l 6.999519131149827 -19.520952742279427 a41.73790886356768,41.73790886356768 0 0,0 0.6742017319912188,0.24831418771483724 l -7.334503188913622 19.397575286758265" fill="#ffd413" stroke="none" /><path d="M 107.76421540070413 80.48803036053334 l 10.059322104209755 -25.279719503036493 a48.207612525696675,48.207612525696675 0 0,0 0.7683745486182654,0.31343927111733366 l -10.492980522416408 25.10281934573558" fill="#d4ff1c" stroke="none" /><path d="M 109.73455568895987 81.39251694778311 l 7.759641163232704 -14.832458311362833 a37.73958931815389,37.73958931815389 0 0,0 0.5730216664800287,0.306088329236608 l -8.013807876241044 14.696691255624472" fill="#ff9c0e" stroke="none" /><line stroke="#e1ed5e" stroke-width="0.3" x1="143.23703022742887" x2="145.7803849466894" y1="26.81831364943548" y2="22.513508569990506" /><path d="M 143.74570117128098 25.957352633546492 a86.0,86.0 0 0,1 28.547481713284135,27.462654790039103" fill="none" id="id14" stroke="none" /><text fill="#e1ed5e" style="font-size:6.75px; font-family:Arial;" text-anchor="middle"><textPath startOffset="19.985693538727396" xlink:href="#id14">February</textPath></text><path d="M 111.60114157652 82.49532879139004 l 9.817947996832672 -14.81405519398372 a38.77212238757394,38.77212238757394 0 0,0 0.5531402788196274,0.37348278542401203 l -10.071492970058841 14.642860496261038" fill="#ffab0f" stroke="none" /><path d="M 111.90073688211348 82.69761687909136 l 14.960925236856376 -21.75156571022252 a47.3999980073661,47.3999980073661 0 0,0 0.6682696854180047,0.4681656209374752 l -15.33312606185803 21.49081524652111" fill="#deff1b" stroke="none" /><path d="M 112.48926042617603 83.11751280151076 l 3.8744584375409876 -5.2373393412288545 a27.51468737234689,27.51468737234689 0 0,0 0.3783319908048008,0.2849518118294475 l -3.9640365821041716 5.16987093989356" fill="#ff0000" stroke="none" /><path d="M 113.6212207817346 84.01681056812373 l 8.762286158767859 -10.281698078023474 a34.50892201827246,34.50892201827246 0 0,0 0.4487905050097824,0.3891867034894099 l -8.937970462424405 10.129346381114393" fill="#ff6c0a" stroke="none" /><path d="M 115.68641384162765 86.03803664274999 l 15.679901908307153 -13.956167298614583 a41.991282226701955,41.991282226701955 0 0,0 0.47591746803590274,0.544055936617964 l -15.917811239920905 13.68419580579367" fill="#ffd814" stroke="none" /><path d="M 117.04232023915458 87.72973835380427 l 17.36040385586497 -12.499277950761922 a42.391951087479946,42.391951087479946 0 0,0 0.42126977208800603,0.5958562171549954 l -17.57298624775686 12.198595233275134" fill="#ffdd14" stroke="none" /><path d="M 117.2510076193507 88.02491185347247 l 17.406439651177372 -12.082984005308003 a42.18921055166069,42.18921055166069 0 0,0 0.40898528957469704,0.6001354463168147 l -17.611849406420802 11.78157053572078" fill="#ffdb14" stroke="none" /><line stroke="#e1ed5e" stroke-width="0.3" x1="172.23445277983987" x2="176.4835382374775" y1="55.19839476539836" y2="52.563006222186495" /><path d="M 173.08426987136738 54.67131705675599 a86.0,86.0 0 0,1 12.851231095245387,41.99856678651699" fill="none" id="id15" stroke="none" /><text fill="#e1ed5e" style="font-size:6.75px; font-family:Arial;" text-anchor="middle"><textPath startOffset="22.20632615414155" xlink:href="#id15">March</textPath></text><path d="M 118.3937258080291 89.86733742301442 l 18.370512899059083 -10.119875141939623 a41.97349796917395,41.97349796917395 0 0,0 0.34316712613225625,0.635836566669079 l -18.541988124409805 9.802157591938085" fill="#ffd814" stroke="none" /><path d="M 119.47837535516314 92.15188598940014 l 19.51880584577276 -7.864404029352609 a42.043588866490204,42.043588866490204 0 0,0 0.26468731591771105,0.6736003481849119 l -19.651286711572173 7.527254676271912" fill="#ffd914" stroke="none" /><path d="M 119.61058180528143 92.48833698450437 l 19.676295805997217 -7.536834192652862 a42.070369866061796,42.070369866061796 0 0,0 0.2532143671957003,0.6784886138215942 l -19.80311476169454 7.197022441801934" fill="#ffd914" stroke="none" /><path d="M 120.28053869075195 94.5502522615342 l 20.376987921446343 -5.475665392077889 a42.09987081090237,42.09987081090237 0 0,0 0.1820391760674433,0.701471203841255 l -20.46822342938409 5.124097762687783" fill="#ffd914" stroke="none" /><path d="M 120.37134235888165 94.90015583598534 l 20.37019223444133 -5.099556237214758 a41.99881438283147,41.99881438283147 0 0,0 0.1695296136951545,0.7028096965201106 l -20.454954648397305 4.7481613090352415" fill="#ffd814" stroke="none" /><path d="M 120.78858239683441 97.02765380044208 l 20.80045728656622 -2.9740440682576987 a42.011995656058104,42.011995656058104 0 0,0 0.09619546850990855,0.7167679741345055 l -20.848568754133968 2.6155577520585287" fill="#ffd814" stroke="none" /><path d="M 120.83666639777658 97.38593545837742 l 20.791894161943834 -2.6084476395757106 a41.954876805409334,41.954876805409334 0 0,0 0.08372924174726765,0.7173410107043628 l -20.83371375669469 2.2501628905464948" fill="#ffd714" stroke="none" /><line stroke="#e1ed5e" stroke-width="0.3" x1="184.98032266829074" x2="189.97916517819016" y1="98.17113171792111" y2="98.06355123074" /><path d="M 185.9800911702706 98.14961562048488 a86.0,86.0 0 0,1 -9.607161424134198,41.387399972396054" fill="none" id="id16" stroke="none" /><text fill="#e1ed5e" style="font-size:6.75px; font-family:Arial;" text-anchor="middle"><textPath startOffset="21.466115282336823" xlink:href="#id16">April</textPath></text><path d="M 120.99980553446 99.90962569577887 l 26.633666663435708 -0.11462006586754825 a47.63391330049916,47.63391330049916 0 0,0 -0.0035287718111030957,0.819962294009423 l -26.6316935943351 -0.3438517063455595" fill="#dbff1b" stroke="none" /><path d="M 120.89721153311464 102.0752229133903 l 20.87646068791108 2.073162225562624 a41.979147086271084,41.979147086271084 0 0,0 -0.07759685118275558,0.7184504698545319 l -20.837681535227272 -2.4322090173019473" fill="#ffd814" stroke="none" /><path d="M 120.49622156327973 104.57218783832717 l 40.88904614887157 9.121310430094386 a62.89406161888219,62.89406161888219 0 0,0 -0.24480595252649373,1.054617636317099 l -40.72597963041453 -9.823796723760049" fill="#30ff38" stroke="none" /><path d="M 120.23288151984713 105.62410040840565 l 10.377525155093966 2.884623399081959 a31.77098326519632,31.77098326519632 0 0,0 -0.15099895539214803,0.5256471729219756 l -10.32633356281572 -3.062828047508517" fill="#ff4306" stroke="none" /><path d="M 120.02730092923936 106.31721596034902 l 10.225191237580452 3.2253343329633335 a31.72181502379537,31.72181502379537 0 0,0 -0.16874154999938945,0.5193330904705595 l -10.168157436564815 -3.400866323411688" fill="#ff4206" stroke="none" /><path d="M 119.79798401119884 107.00284435728193 l 41.80116476428051 14.785699929435799 a65.33908318914413,65.33908318914413 0 0,0 -0.38418055152478753,1.0570998788148278 l -41.54045995175049 -15.503047605256759" fill="#34ff58" stroke="none" /><path d="M 119.26925614724726 108.34839909993367 l 12.31262905207971 5.334442622523532 a34.41853614471836,34.41853614471836 0 0,0 -0.24020682488130474,0.5416029773575589 l -12.218981142467133 -5.54559393637378" fill="#ff6b09" stroke="none" /><line stroke="#e1ed5e" stroke-width="0.3" x1="174.80103733775053" x2="179.2010983576182" y1="140.37084112569926" y2="142.7455964860345" /><path d="M 175.68104954172406 140.8457921977663 a86.0,86.0 0 0,1 -30.038265399797805,32.042727171017184" fill="none" id="id17" stroke="none" /><text fill="#e1ed5e" style="font-size:6.75px; font-family:Arial;" text-anchor="middle"><textPath startOffset="22.206326154141568" xlink:href="#id17">May</textPath></text><path d="M 117.35343817320211 111.8261652097733 l 11.131168809589797 7.5857613924234855 a34.47021510482915,34.47021510482915 0 0,0 -0.3383647081731196,0.48743959855580943 l -10.998943194254542 -7.7762422531663145" fill="#ff6c09" stroke="none" /><path d="M 116.0416608686014 113.55231037782055 l 16.027010171548618 13.539933181011751 a41.980820898744305,41.980820898744305 0 0,0 -0.4710997571026994,0.5479954478259114 l -15.791567904875137 -13.81380572799919" fill="#ffd814" stroke="none" /><path d="M 114.55890576462653 115.13401014063108 l 14.550976209065592 15.125767352593979 a41.98856228143297,41.98856228143297 0 0,0 -0.5251852703229618,0.4965954535021238 l -14.288455104351822 -15.373997442842024" fill="#ffd814" stroke="none" /><path d="M 114.29624159901734 115.38237550388516 l 17.80747590690494 19.160370176958104 a47.15771365186693,47.15771365186693 0 0,0 -0.5993530961807573,0.5474948428363716 l -17.475023261257316 -19.46405778638106" fill="#e1ff1b" stroke="none" /><path d="M 113.20401910651253 116.32954008644616 l 7.907045970697676 9.778721395532978 a33.57556233789093,33.57556233789093 0 0,0 -0.4525386355972155,0.3595240613332588 l -7.7375498423831095 -9.913379370871363" fill="#ff5e08" stroke="none" /><path d="M 112.92097659922987 116.55440617244103 l 10.906977961831947 13.974063176059834 a38.72672022423774,38.72672022423774 0 0,0 -0.5290277843811338,0.4056359461614561 l -10.66482144895732 -14.159738464048662" fill="#ffaa0f" stroke="none" /><path d="M 112.63410532772338 116.77436683061366 l 7.65601381137187 10.16492903936698 a33.725577780803626,33.725577780803626 0 0,0 -0.4667218944961551,0.3452696998036132 l -7.479906946457151 -10.295208687910362" fill="#ff6108" stroke="none" /><path d="M 112.34349029814194 116.9893568818739 l 12.453598647413493 17.14090802310419 a42.187327512628315,42.187327512628315 0 0,0 -0.5911703618121621,0.42178435660635977 l -12.156700957752447 -17.352736641554767" fill="#ffdb14" stroke="none" /><path d="M 112.04921762599082 117.19931262002967 l 16.831385550601706 24.025482060229955 a50.33460972604605,50.33460972604605 0 0,0 -0.7138960462903273,0.4910242102901833 l -16.415332619688495 -24.31164705988523" fill="#b9ff1f" stroke="none" /><path d="M 111.1453310114006 117.79835938074945 l 10.018283384241876 15.998538569068504 a39.87642016678346,39.87642016678346 0 0,0 -0.5848936592194315,0.35928945700728 l -9.741410525090137 -16.16861649290416" fill="#ffba11" stroke="none" /><line stroke="#e1ed5e" stroke-width="0.3" x1="143.8653032363475" x2="146.44561519142675" y1="172.8068346515853" y2="177.08958963109032" /><path d="M 144.38136562736335 173.6633856474863 a86.0,86.0 0 0,1 -40.68145358897372,12.25698825130547" fill="none" id="id18" stroke="none" /><text fill="#e1ed5e" style="font-size:6.75px; font-family:Arial;" text-anchor="middle"><textPath startOffset="21.466115282336833" xlink:href="#id18">June</textPath></text><path d="M 110.8373102113329 117.98757091392108 l 10.88150755163 18.06092885766336 a42.08564340487996,42.08564340487996 0 0,0 -0.6237335426686248,0.36851277120121295 l -10.569006137932993 -18.24556020115832" fill="#ffd914" stroke="none" /><path d="M 110.5260780823613 118.17145234162733 l 10.526008166961338 18.1713316447877 a41.99986051562723,41.99986051562723 0 0,0 -0.6287003782011935,0.35699248281460216 l -10.211659021838946 -18.34982729339693" fill="#ffd814" stroke="none" /><path d="M 110.21172684928248 118.3499491758327 l 12.69139644414345 22.80578820385697 a47.09933944186325,47.09933944186325 0 0,0 -0.7118217102334575,0.38814195173115185 l -12.296951922041343 -23.020870807347894" fill="#e2ff1b" stroke="none" /><path d="M 109.89434966115114 118.52300852407294 l 9.889847883045608 18.514580837860294 a41.99044532046534,41.99044532046534 0 0,0 -0.6404724591956567,0.335064920053356 l -9.569684521323456 -18.68207517685837" fill="#ffd814" stroke="none" /><path d="M 108.92500713936063 119.00905698771935 l 8.930460982698564 19.020672935717386 a42.01283256229472,42.01283256229472 0 0,0 -0.6572647659608812,0.301718017251603 l -8.601728220970264 -19.171578023303063" fill="#ffd814" stroke="none" /><path d="M 108.2653958097858 119.30500536409082 l 8.26130578266719 19.295452525088166 a41.989608414228734,41.989608414228734 0 0,0 -0.6668920386033731,0.2787609262227558 l -7.927942284566355 -19.434798494330895" fill="#ffd814" stroke="none" /><path d="M 107.93186726928326 119.44442032107085 l 7.927072992649187 19.432667485724057 a41.98730692207805,41.98730692207805 0 0,0 -0.6715548318517846,0.26722552690603035 l -7.591397084755536 -19.56623985703616" fill="#ffd814" stroke="none" /><path d="M 107.59598834532513 119.57807347666477 l 10.615271930666593 27.360043800129368 a50.347163319595225,50.347163319595225 0 0,0 -0.8106607246952916,0.30652252059892837 l -10.142740985211026 -27.538714570834927" fill="#b9ff1f" stroke="none" /><path d="M 106.57524785965236 119.94407469862006 l 6.560202325393011 19.898438508843775 a41.9519476335812,41.9519476335812 0 0,0 -0.6877695286716496,0.22020208403479594 l -6.21671145163042 -20.008413439538277" fill="#ffd714" stroke="none" /><path d="M 106.2309692047433 120.05430185196036 l 6.219877541944311 20.018603464357692 a41.962618188098,41.962618188098 0 0,0 -0.6916339187099821,0.2083836261477698 l -5.874368648794084 -20.122702459611187" fill="#ffd714" stroke="none" /><path d="M 105.53697534728816 120.25689768951611 l 5.528774028148277 20.226893350989123 a41.96889498487259,41.96889498487259 0 0,0 -0.6985014238977898,0.18448057463205575 l -5.17978216143899 -20.319065274924764" fill="#ffd814" stroke="none" /><path d="M 105.18746579009965 120.34920634021253 l 6.218674222255437 24.394394109113833 a46.174558050407,46.174558050407 0 0,0 -0.771877472953776,0.18970870316642355 l -5.79784346455845 -24.497824070594284" fill="#eeff19" stroke="none" /><path d="M 104.13013068566511 120.58985236759428 l 4.1195690597158245 20.537199719141228 a41.94629851648406,41.94629851648406 0 0,0 -0.7091568772473674,0.135911603332051 l -3.7654445678967527 -20.605068520821746" fill="#ffd714" stroke="none" /><path d="M 103.7750983002368 120.6578951692458 l 5.649314016142681 30.913880233610286 a52.42582918478026,52.42582918478026 0 0,0 -0.8891196659804815,0.15458485073031017 l -5.11634537869015 -31.006543662861603" fill="#9fff22" stroke="none" /><path d="M 102.70371172650421 120.8252237178851 l 2.178869712064595 16.782650591428887 a37.92349946364938,37.92349946364938 0 0,0 -0.6480811418775928,0.07847360086082483 l -1.889661147135622 -16.81766972101506" fill="#ff9f0e" stroke="none" /><path d="M 101.98527174616119 120.90594882070398 l 2.0305934003897663 21.383209520960435 a42.47940778920591,42.47940778920591 0 0,0 -0.7285333378217487,0.06286092189567348 l -1.662215744826476 -21.414994695134773" fill="#ffdf14" stroke="none" /><path d="M 101.26447882468166 120.96189622390904 l 1.2619759789364 20.920405301520624 a41.958433656914934,41.958433656914934 0 0,0 -0.72130929432513,0.037283451428255454 l -0.9016786161977904 -20.939028559711083" fill="#ffd714" stroke="none" /><line stroke="#e1ed5e" stroke-width="0.3" x1="102.19456741930631" x2="102.32365962044197" y1="184.97166512339345" y2="189.96999836594603" /><path d="M 102.22038585953345 185.97133177190398 a86.0,86.0 0 0,1 -42.740103519485714,-10.115201625700543" fill="none" id="id19" stroke="none" /><text fill="#e1ed5e" style="font-size:6.75px; font-family:Arial;" text-anchor="middle"><textPath startOffset="22.20632615414155" xlink:href="#id19">July</textPath></text><path d="M 100.54218724476979 120.99299961872073 l 0.5425887862567103 21.00854694183288 a42.015552507563704,42.015552507563704 0 0,0 -0.7231483013173675,0.01244965381461788 l -0.18088079504667476 -21.014774072926656" fill="#ffd814" stroke="none" /><path d="M 100.18074693466247 120.99922214144158 l 0.18044139683482147 20.963724683477864 a41.96450122713037,41.96450122713037 0 0,0 -0.7223766629945394,0.0 l 0.18044139683480703 -20.963724683477864" fill="#ffd714" stroke="none" /><path d="M 99.09653310690486 120.98055641714683 l -0.9030648308396922 20.9712196169851 a41.9906545470245,41.9906545470245 0 0,0 -0.7218632050763442,-0.03731208228710013 l 1.2639161043295253 -20.952567727935797" fill="#ffd814" stroke="none" /><path d="M 98.73552117531835 120.96189622390904 l -1.2627948630308927 20.93398035163093 a41.972033383259884,41.972033383259884 0 0,0 -0.7207942020873062,-0.049710188298067524 l 1.622951825897129 -20.909141818816575" fill="#ffd814" stroke="none" /><path d="M 98.01472825383883 120.90594882070398 l -1.9813817583818834 20.864985216812315 a41.95885211003324,41.95885211003324 0 0,0 -0.7184302620292654,-0.07446823414344167 l 2.3402446170167424 -20.82778761421311" fill="#ffd714" stroke="none" /><path d="M 97.65516085044442 120.86867818915974 l -2.3395437561209866 20.821550068882267 a41.95257531325865,41.95257531325865 0 0,0 -0.7169347053476095,-0.08681080851655465 l 2.6976058845199855 -20.778193731640364" fill="#ffd714" stroke="none" /><path d="M 96.93821686468263 120.77559828337769 l -3.056790473127124 20.74172078799517 a41.9657565864853,41.9657565864853 0 0,0 -0.7137458671060574,-0.11147242551683308 l 3.4133722038416985 -20.68603005513123" fill="#ffd814" stroke="none" /><path d="M 96.22490169976321 120.6578951692458 l -3.7635263587434546 20.594571797173856 a41.93562796196726,41.93562796196726 0 0,0 -0.7089764776081506,-0.13587702931183676 l 4.1174704509233 -20.52673756951355" fill="#ffd714" stroke="none" /><path d="M 95.51606077576429 120.51570834832081 l -5.81685493257427 26.614299019970776 a48.242553361075224,48.242553361075224 0 0,0 -0.809739428648507,-0.18429405767515245 l 6.27411451061564 -26.510228228717935" fill="#d3ff1c" stroke="none" /><path d="M 95.16358092515715 120.4354850818985 l -4.823039411367685 20.378951537324212 a41.941904758741856,41.941904758741856 0 0,0 -0.7011222808175922,-0.17231879840462128 l 5.173114976928488 -20.29291148060556" fill="#ffd714" stroke="none" /><path d="M 94.46302465271185 120.25689768951611 l -5.523312611590995 20.206912883405003 a41.94818155551644,41.94818155551644 0 0,0 -0.6948792818025278,-0.19637982599893347 l 5.870323061498137 -20.10884426406755" fill="#ffd714" stroke="none" /><path d="M 94.11515582081647 120.15858648285463 l -5.880642240687762 20.144192704874524 a41.98500542992737,41.98500542992737 0 0,0 -0.6920029084552395,-0.20849479973114682 l 6.2265201235832475 -20.039982536037652" fill="#ffd814" stroke="none" /><path d="M 93.42475214034765 119.94407469862007 l -4.610419003936317 13.984345984989998 a35.72473755351052,35.72473755351052 0 0,0 -0.5823647117828941,-0.19756972920538893 l 4.850453448656437 -13.902913268886486" fill="#ff7e0b" stroke="none" /><path d="M 93.08242187328487 119.8279376855182 l -8.289887196922928 23.76140373836531 a46.16597976148172,46.16597976148172 0 0,0 -0.7480657084379118,-0.26822974814275846 l 8.697672465990566 -23.615186449182595" fill="#eeff19" stroke="none" /><path d="M 92.7421414339146 119.70592522655815 l -7.245228196722048 19.67163231329844 a41.963455094334606,41.963455094334606 0 0,0 -0.6756711336753876,-0.2554810078753522 l 7.5827695511577184 -19.544003055316455" fill="#ffd714" stroke="none" /><path d="M 92.06813273071674 119.44442032107085 l -7.921225028842784 19.41833160964172 a41.97182415670073,41.97182415670073 0 0,0 -0.6666095834863595,-0.27864285996093724 l 8.254306071826605 -19.27910370666081" fill="#ffd814" stroke="none" /><path d="M 91.40352486487194 119.15986991738527 l -10.054491950138528 22.40950561967536 a45.561733458647865,45.561733458647865 0 0,0 -0.7127851242609623,-0.3272046906455577 l 10.438745070166911 -22.233113858695727" fill="#f6ff19" stroke="none" /><path d="M 91.07499286063937 119.00905698771935 l -8.908408485723436 18.973704102507934 a41.96094437562477,41.96094437562477 0 0,0 -0.651168581464886,-0.3126004905526779 l 9.233689735188564 -18.81754933545569" fill="#ffd714" stroke="none" /><path d="M 90.7491055286396 118.85261126421891 l -7.404426884462518 15.089652370294047 a37.808424856115224,37.808424856115224 0 0,0 -0.5817926070916011,-0.2917228910121314 l 7.663073399236881 -14.959961638372613" fill="#ff9d0e" stroke="none" /><path d="M 90.10565033884886 118.52300852407294 l -7.905155213002973 14.799078505331284 a37.778087005038046,37.778087005038046 0 0,0 -0.5709477631733727,-0.3113262435645116 l 8.158725788044986 -14.660811610007007" fill="#ff9c0e" stroke="none" /><line stroke="#e1ed5e" stroke-width="0.3" x1="58.666819895761336" x2="56.23545636021788" y1="174.27360380694188" y2="178.64263932499728" /><path d="M 58.180547188652646 175.14741091055294 a86.0,86.0 0 0,1 -31.652253787137756,-30.449443065178592" fill="none" id="id20" stroke="none" /><text fill="#e1ed5e" style="font-size:6.75px; font-family:Arial;" text-anchor="middle"><textPath startOffset="22.20632615414155" xlink:href="#id20">August</textPath></text><path d="M 89.7882731507175 118.34994917583269 l -10.203824952109438 18.335749872065726 a41.983750070572455,41.983750070572455 0 0,0 -0.6284592192360144,-0.35685554646031103 l 10.517932938266659 -18.157391159810782" fill="#ffd814" stroke="none" /><path d="M 89.1626897886671 117.98757091392108 l -5.560226960763038 9.228763854118737 a31.77433089014277,31.77433089014277 0 0,0 -0.46605499154273017,-0.2862890411060161 l 5.718261152238077 -9.131686346184344" fill="#ff4306" stroke="none" /><path d="M 88.54995079064634 117.60387380957326 l -11.427043321878836 17.568503416609936 a41.95780597723747,41.95780597723747 0 0,0 -0.6020451679191101,-0.3990027087771824 l 11.727763188537908 -17.369202686741435" fill="#ffd714" stroke="none" /><path d="M 88.24862548938628 117.40417183066458 l -11.744037438629828 17.393305385941357 a41.98688846895975,41.98688846895975 0 0,0 -0.5955002698374389,-0.4095905156555539 l 12.041694593090156 -17.188574080920702" fill="#ffd814" stroke="none" /><path d="M 87.65650970185807 116.9893568818739 l -12.313155160963618 16.947604147506652 a41.94839078207559,41.94839078207559 0 0,0 -0.5805158489536439,-0.42945174688203475 l 12.603055980335826 -16.733142451884852" fill="#ffd714" stroke="none" /><path d="M 87.07902340077011 116.55440617244103 l -12.889608443864097 16.514217168086947 a41.949018461753056,41.949018461753056 0 0,0 -0.5653978744504962,-0.4491862663248059 l 13.17196381103195 -16.28989698775701" fill="#ffd714" stroke="none" /><path d="M 86.51685102203217 116.09983520530335 l -13.459953818837466 16.072138541848094 a41.96387354745292,41.96387354745292 0 0,0 -0.5497957309266248,-0.46854784945933237 l 13.734615026341148 -15.838066302165812" fill="#ffd714" stroke="none" /><path d="M 86.24171649860922 115.8653595955263 l -15.120591577848026 17.43630465641991 a44.07936328704887,44.07936328704887 0 0,0 -0.5689546903792003,-0.5020363630321079 l 15.418488621133813 -17.173445151615514" fill="#fff417" stroke="none" /><path d="M 85.70375840098266 115.38237550388516 l -14.278627028767907 15.363422695061972 a41.97412564885141,41.97412564885141 0 0,0 -0.5250046995585983,-0.4964247125737583 l 14.540967562717322 -15.115363345742283" fill="#ffd814" stroke="none" /><path d="M 85.44109423537348 115.13401014063109 l -14.53864671718729 15.11295082241435 a41.97077802390496,41.97077802390496 0 0,0 -0.5163405953000388,-0.5053479477906688 l 14.796637264863124 -14.86045277170111" fill="#ffd814" stroke="none" /><path d="M 84.9287848128048 114.62390073753433 l -9.016781970408228 8.749163413131441 a33.56384565057836,33.56384565057836 0 0,0 -0.39875998096891296,-0.4180982458245097 l 9.1660485027561 -8.592658050724431" fill="#ff5e08" stroke="none" /><path d="M 84.67929136418377 114.36230785411682 l -15.317859303236983 14.359636764113436 a41.996094437562476,41.996094437562476 0 0,0 -0.4898616277443578,-0.5316480480700112 l 15.56276733897707 -14.09383746124208" fill="#ffd814" stroke="none" /><path d="M 84.43433777217949 114.09645910891817 l -15.53934975601142 14.072630204148002 a41.96450122713037,41.96450122713037 0 0,0 -0.4802760237553444,-0.5395952040603049 l 15.779284629415104 -13.803060830346833" fill="#ffd714" stroke="none" /><path d="M 83.72743513129214 113.27417163493432 l -16.22933118291644 13.238904215800565 a41.944206250892535,41.944206250892535 0 0,0 -0.45156351078111134,-0.5633949107633125 l 16.454812605752412 -12.957581471458992" fill="#ffd714" stroke="none" /><path d="M 83.28015986056508 112.70617746262583 l -10.073583050442615 7.655380246222227 a33.65234848510008,33.65234848510008 0 0,0 -0.3465210099596959,-0.46422152049514015 l 10.203865327097397 -7.480845846217778" fill="#ff6008" stroke="none" /><path d="M 83.06392112726016 112.41649034213515 l -16.890913595930414 12.383377941825842 a41.943997024333385,41.943997024333385 0 0,0 -0.42187713143221905,-0.5859504371427082 l 17.10157051973824 -12.090793899231995" fill="#ffd714" stroke="none" /><path d="M 82.85270091963577 112.12312394758628 l -17.108233336168176 12.095504504035794 a41.95215686014035,41.95215686014035 0 0,0 -0.4118085503686283,-0.5932409309390352 l 17.31390279369894 -11.799222310909746" fill="#ffd714" stroke="none" /><path d="M 82.44556493220864 111.52570212397912 l -17.532806038402835 11.511501168551028 a41.97412564885141,41.97412564885141 0 0,0 -0.3913490317164721,-0.6073823879461461 l 17.728359933496353 -11.207997180683433" fill="#ffd814" stroke="none" /><path d="M 82.05923443525364 110.91462005526583 l -21.483588466902674 13.069966534800356 a46.1469401445988,46.1469401445988 0 0,0 -0.4070140877518428,-0.6821790224786768 l 21.705383430352747 -12.698225418435568" fill="#eeff19" stroke="none" /><line stroke="#e1ed5e" stroke-width="0.3" x1="26.63291911575756" x2="22.317208475507996" y1="142.92168965132927" y2="145.44649492493687" /><path d="M 25.769776987707644 143.4266507060508 a86.0,86.0 0 0,1 -11.730757126820373,-40.83630448921669" fill="none" id="id21" stroke="none" /><text fill="#e1ed5e" style="font-size:6.75px; font-family:Arial;" text-anchor="middle"><textPath startOffset="21.46611528233685" xlink:href="#id21">September</textPath></text><path d="M 81.87401531095188 110.60418214915194 l -18.09895604784052 10.588369676642088 a41.968685758313434,41.968685758313434 0 0,0 -0.35942782655908695,-0.6266927118674384 l 18.278535870551984 -10.275257118916342" fill="#ffd814" stroke="none" /><path d="M 81.69416730710424 110.29060199501025 l -22.987146532795457 12.922196981609051 a47.37028783596638,47.37028783596638 0 0,0 -0.39345217569830504,-0.7142299848022842 l 23.20617511794528 -12.524596478408945" fill="#deff1b" stroke="none" /><path d="M 81.18737489456691 109.33194174019688 l -18.794319112733127 9.322861111820188 a41.97956553938939,41.97956553938939 0 0,0 -0.3155398909105516,-0.6501056351042179 l 18.9520122602584 -8.997966520750685" fill="#ffd814" stroke="none" /><path d="M 80.87730276802145 108.67885076344099 l -19.074939548487016 8.657175902264116 a41.94755387583898,41.94755387583898 0 0,0 -0.2927518092485313,-0.6600780456349169 l 19.22113244246683 -8.327549520136504" fill="#ffd714" stroke="none" /><path d="M 80.58989483394504 108.01547362559985 l -19.405915132426617 8.013743335951698 a41.99546675788501,41.99546675788501 0 0,0 -0.2701656081919543,-0.670528883412157 l 19.54098335487596 -7.678515084696736" fill="#ffd814" stroke="none" /><path d="M 80.45479744820244 107.68017299344265 l -19.512357726530936 7.6672668115129134 a41.96471045368953,41.96471045368953 0 0,0 -0.2583941484221012,-0.6745855844683717 l 19.641446154546546 -7.330257660211384" fill="#ffd814" stroke="none" /><path d="M 80.32549172779594 107.34259656027581 l -19.651247177567548 7.333915436910324 a41.97517178164718,41.97517178164718 0 0,0 -0.2468054931034065,-0.6791027182791093 l 19.77457693167618 -6.994564921625098" fill="#ffd814" stroke="none" /><path d="M 79.97269907076064 106.31721596034903 l -20.004221335396437 6.3099359589600255 a41.975799461324634,41.975799461324634 0 0,0 -0.21142456122189243,-0.6909476990163909 l 20.10987266912446 -5.9646612873915865" fill="#ffd814" stroke="none" /><path d="M 79.76711848015287 105.62410040840567 l -26.24336615852881 7.2948248219286125 a48.23836882989217,48.23836882989217 0 0,0 -0.21549210352700712,-0.8019262822541822 l 26.365046338397594 -6.842007606498892" fill="#d3ff1c" stroke="none" /><path d="M 79.67330655649465 105.27499134158121 l -20.29516809607927 5.266810181414897 a41.96743039895851,41.96743039895851 0 0,0 -0.17544121700657977,-0.7008004520448742 l 20.38282062738091 -4.91668188997263" fill="#ffd814" stroke="none" /><path d="M 79.50377843672027 104.57218783832718 l -21.00558271142881 4.6858134077860845 a42.52188078071396,42.52188078071396 0 0,0 -0.153212332596069,-0.7157570108769432 l 21.08312908274932 -4.323542577492977" fill="#ffdf14" stroke="none" /><path d="M 79.35854240842038 103.8639653848113 l -20.607593176865212 3.857626155827449 a41.965547359926134,41.965547359926134 0 0,0 -0.12680301329383714,-0.7111786390769047 l 20.67094263249824 -3.502328766017331" fill="#ffd814" stroke="none" /><path d="M 79.29508885075956 103.50808413554451 l -10.352696242248962 1.7540828446818608 a31.50024409765235,31.50024409765235 0 0,0 -0.08597803470802563,-0.5353853041993274 l 10.381356031318278 -1.5756183107893198" fill="#ff3f05" stroke="none" /><path d="M 79.23777060512086 103.15116336523772 l -20.723409116676518 3.145271462389822 a41.96073514906563,41.96073514906563 0 0,0 -0.10223623018776631,-0.7150399558154427 l 20.77447939788088 -2.788086034593979" fill="#ffd714" stroke="none" /><path d="M 79.18660465613746 102.79330883721812 l -15.37774319447258 2.0638048358725682 a36.515613947108854,36.515613947108854 0 0,0 -0.07824511983545912,-0.6236905911487156 l 15.410989823554889 -1.7987964904364442" fill="#ff8a0c" stroke="none" /><path d="M 79.10278846688536 102.07522291339032 l -20.8446057114949 2.069998828529517 a41.94713542272068,41.94713542272068 0 0,0 -0.06516867753268839,-0.719130926154912 l 20.877148985304665 -1.710886513826039" fill="#ffd714" stroke="none" /><path d="M 79.04373962182676 101.35467743843564 l -20.92459377746695 1.3526304114969305 a41.96826730519513,41.96826730519513 0 0,0 -0.04039675376978537,-0.7213111755637927 l 20.944776882124266 -0.9922475195977002" fill="#ffd814" stroke="none" /><path d="M 79.0095281055655 100.63252640178507 l -24.086526241025005 0.7258228329195835 a45.09745972388736,45.09745972388736 0 0,0 -0.016703105466561757,-0.7761276774384466 l 24.095451409176572 -0.31110533969100806" fill="#fcff18" stroke="none" /><line stroke="#e1ed5e" stroke-width="0.3" x1="15.007084014347285" x2="10.007500721073583" y1="101.09737516637583" y2="101.16192664675087" /><path d="M 14.007167355692545 101.11028546245083 a86.0,86.0 0 0,1 10.666146001902534,-42.60595125391555" fill="none" id="id22" stroke="none" /><text fill="#e1ed5e" style="font-size:6.75px; font-family:Arial;" text-anchor="middle"><textPath startOffset="22.20632615414155" xlink:href="#id22">October</textPath></text><path d="M 79.00175016825051 100.2711162175752 l -21.0221694080235 0.27142505212557744 a42.023921569929826,42.023921569929826 0 0,0 -0.00311317755676441,-0.7233928255353216 l 21.02372688286977 0.09047725161341952" fill="#ffd814" stroke="none" /><path d="M 79.00486145842228 99.54816195383935 l -44.28572808570691 -0.9530766758895547 a65.2959825179586,65.2959825179586 0 0,0 0.03385536230830437,-1.1234946541406727 l 44.26276102894296 1.7152414774552218" fill="#34ff57" stroke="none" /><path d="M 79.08570108090925 98.10471618934814 l -20.867484518088247 -1.8910414223858802 a41.95299376637696,41.95299376637696 0 0,0 0.07136578683669181,-0.7186437341890618 l 20.831841605569327 2.2499606872793723" fill="#ffd714" stroke="none" /><path d="M 79.12142395522702 97.74499172005258 l -20.805423473022444 -2.2471073745100427 a41.92642199336453,41.92642199336453 0 0,0 0.08367245455068921,-0.7168544926834174 l 20.763660665468166 2.6049056055183217" fill="#ffd714" stroke="none" /><path d="M 79.21141760316559 97.0276538004421 l -20.76048309380623 -2.9683285683903846 a41.97161493014157,41.97161493014157 0 0,0 0.10841489299024634,-0.7143186871604723 l 20.70631230737668 3.325246367942949" fill="#ffd814" stroke="none" /><path d="M 79.26566170972629 96.67025291283419 l -20.692678045426774 -3.3230568288615565 a41.95780597723747,41.95780597723747 0 0,0 0.12065494274576335,-0.7121123019702159 l 20.632411241160785 3.6787549191476008" fill="#ffd714" stroke="none" /><path d="M 79.3925641242962 95.95851677861259 l -20.564388085150156 -4.033040787098655 a41.956132164764256,41.956132164764256 0 0,0 0.14508970754708206,-0.7075089415604146 l 20.491919081688078 4.386425384822473" fill="#ffd714" stroke="none" /><path d="M 79.54389044137918 95.25157060432595 l -52.396918123594745 -12.162775406917508 a74.79005609264419,74.79005609264419 0 0,0 0.3018925534909542,-1.251539535046537 l 52.179792769842976 13.06290017362344" fill="#40ffca" stroke="none" /><path d="M 79.71946130924805 94.55025226153421 l -12.619964248909474 -3.391212761837317 a34.067663205018775,34.067663205018775 0 0,0 0.15705716638740153,-0.5650181911065923 l 12.559720311955711 3.6079422563628523" fill="#ff6609" stroke="none" /><path d="M 79.91906864156998 93.8553929516997 l -10.343604653771546 -3.1650616660125652 a31.817013108209984,31.817013108209984 0 0,0 0.1647583665901434,-0.5223290463744753 l 10.287590803413199 3.342640878813455" fill="#ff4406" stroke="none" /><path d="M 80.14247586403 93.16781622104843 l -25.74542390775874 -8.857975767794729 a48.226652142579596,48.226652142579596 0 0,0 0.27683687326880796,-0.7826551199852042 l 25.589133953680125 9.299828514206544" fill="#d3ff1c" stroke="none" /><path d="M 80.2630227832202 92.82701384747504 l -19.683949195138556 -7.153714241697341 a41.94357857121507,41.94357857121507 0 0,0 0.2524512320582402,-0.6764437910601171 l 19.557893374578686 7.491481169786799" fill="#ffd714" stroke="none" /><path d="M 80.52162464483688 92.15188598940014 l -9.728546372453108 -3.9197694723642007 a31.488527410339778,31.488527410339778 0 0,0 0.206892090215064,-0.5010056069891647 l 9.659632595351844 4.086649649806676" fill="#ff3f05" stroke="none" /><path d="M 80.65960295795068 91.81776055985345 l -11.948809440210809 -5.055119584769839 a33.97413893307739,33.97413893307739 0 0,0 0.23249520903708076,-0.5366309974302615 l 11.860023521331048 5.2600497267867" fill="#ff6409" stroke="none" /><path d="M 80.803312248108 91.48605970444005 l -19.150849140314104 -8.493610371603808 a41.94985536798966,41.94985536798966 0 0,0 0.29843862836667434,-0.6575699580666907 l 19.00180819498408 8.82200233851257" fill="#ffd714" stroke="none" /><path d="M 80.95270993114464 91.15688171328213 l -9.499955240596256 -4.41056064182502 a31.473881551199067,31.473881551199067 0 0,0 0.23236987821469898,-0.48943022522740887 l 9.422627168539805 4.573433282692961" fill="#ff3e05" stroke="none" /><path d="M 81.10775173730289 90.83032412892265 l -18.864077004216124 -9.15600246886713 a41.968685758313434,41.968685758313434 0 0,0 0.3210404350751314,-0.6471979269585713 l 18.70367655618758 9.479359984324663" fill="#ffd814" stroke="none" /><path d="M 81.26839172434947 90.50648371742162 l -18.68837320877581 -9.47160397236383 a41.951529180462884,41.951529180462884 0 0,0 0.3319975435381497,-0.6413135814200047 l 18.522566232077544 9.79189027604417" fill="#ffd714" stroke="none" /><path d="M 81.43458229118936 90.18545643968196 l -24.083331462409166 -12.731569492412742 a48.24150722827946,48.24150722827946 0 0,0 0.39441314631376817,-0.7307876591437938 l 23.860610216876925 13.14423813488901" fill="#d3ff1c" stroke="none" /><line stroke="#e1ed5e" stroke-width="0.3" x1="26.266209847984243" x2="21.928928074336255" y1="57.711370442889674" y2="55.22380399835377" /><path d="M 25.398753493254645 57.213857153982495 a86.0,86.0 0 0,1 29.58750427330803,-30.492523968695096" fill="none" id="id23" stroke="none" /><text fill="#e1ed5e" style="font-size:6.75px; font-family:Arial;" text-anchor="middle"><textPath startOffset="21.46611528233685" xlink:href="#id23">November</textPath></text><path d="M 81.78341655067845 89.55222093294921 l -18.194138578993194 -10.434906233512512 a41.97412564885141,41.97412564885141 0 0,0 0.36485574094118184,-0.623656730994581 l 18.011823163581685 10.746542376860985" fill="#ffd814" stroke="none" /><path d="M 81.96595687620814 89.24020034530311 l -10.177041236642163 -6.072011918358669 a32.850801536984946,32.850801536984946 0 0,0 0.2939117439254445,-0.4831136281237868 l 10.071013694430501 6.24629331968953" fill="#ff5307" stroke="none" /><path d="M 82.34701348167596 88.62581576622439 l -17.649527550958137 -11.371955549578876 a41.995885211003326,41.995885211003326 0 0,0 0.3967678536659818,-0.6043046618110784 l 17.451163061934235 11.674078275367622" fill="#ffd814" stroke="none" /><path d="M 82.54541684631803 88.32363383020206 l -17.4339466678821 -11.662561247472638 a41.97517178164718,41.97517178164718 0 0,0 0.4069103820997731,-0.5970907756275003 l 17.230611820113587 11.960930046370555" fill="#ffd814" stroke="none" /><path d="M 82.95767976084542 87.72973835380427 l -8.578239715209397 -6.176227432200181 a31.5703349949686,31.5703349949686 0 0,0 0.3213219487568573,-0.4382827769954882 l 8.470655153938907 6.32297265286717" fill="#ff4006" stroke="none" /><path d="M 83.17141714833178 87.43820079747576 l -16.803824168921143 -12.54331793146718 a41.96910421143174,41.96910421143174 0 0,0 0.4371263265848477,-0.5752070064136084 l 16.585421902112184 12.830709713761816" fill="#ffd814" stroke="none" /><path d="M 83.39014120810768 87.1503855733568 l -16.9763018140356 -13.13309977127319 a42.463297344151115,42.463297344151115 0 0,0 0.4522258655021078,-0.5742809249320127 l 16.74772186793952 13.423373090158252" fill="#ffde14" stroke="none" /><path d="M 83.84228863543731 86.58626213691792 l -25.22395024682688 -20.94030824343282 a53.78329110056491,53.78329110056491 0 0,0 0.597479570737819,-0.7072273569958579 l 24.85976006260194 21.371394550057794" fill="#8fff24" stroke="none" /><path d="M 84.07557802195018 86.31012108654704 l -21.703264820812738 -18.65782430489926 a49.62072870621601,49.62072870621601 0 0,0 0.562387484155994,-0.6429061128969256 l 21.3788854730789 19.02864597399913" fill="#c2ff1e" stroke="none" /><path d="M 84.5562425177563 85.77008943001954 l -16.460265887972483 -15.16652354928843 a43.38222039195109,43.38222039195109 0 0,0 0.5107382155414268,-0.5448199181473431 l 16.1967603504606 15.447612884313823" fill="#ffeb16" stroke="none" /><path d="M 84.80347519578584 85.50635884689758 l -18.243460604887073 -17.39964727492624 a46.21054501858131,46.21054501858131 0 0,0 0.5539450273777505,-0.5708890438553746 l 17.9412513138062 17.71110051433174" fill="#edff19" stroke="none" /><path d="M 85.31137513191541 84.99185889309783 l -17.98817386015183 -18.379463971146546 a46.717291744849874,46.717291744849874 0 0,0 0.5795541577419144,-0.5575306405675583 l 17.669136458797485 18.686377698476416" fill="#e7ff1a" stroke="none" /><path d="M 85.57189188830299 84.74124197986013 l -20.15773103049443 -21.318244751716215 a50.33942193690656,50.33942193690656 0 0,0 0.6347372411055776,-0.5899190894440948 l 19.787785905593992 21.662068427234956" fill="#b9ff1f" stroke="none" /><path d="M 85.83668400450813 84.49514656593479 l -19.781435887296997 -21.65511694051886 a50.33000674174468,50.33000674174468 0 0,0 0.6446770860833335,-0.5787974531800106 l 19.405747813617694 21.99241340246815" fill="#b9ff1f" stroke="none" /><path d="M 86.37877921826538 84.01681056812374 l -16.31213443161384 -19.140717182143298 a46.148613957072016,46.148613957072016 0 0,0 0.6090352637136245,-0.5100495184436272 l 15.980241630941103 19.418667857980736" fill="#eeff19" stroke="none" /><path d="M 86.65592168130627 83.78471172551755 l -13.318197518923157 -16.18383877163697 a41.95927056315155,41.95927056315155 0 0,0 0.5616480168578333,-0.4541469696308972 l 13.037646103500823 16.410691838532003" fill="#ffd714" stroke="none" /><path d="M 87.22198572758235 83.33499621200491 l -13.013961252928501 -16.97272431797344 a42.38776655629688,42.38776655629688 0 0,0 0.5828395536534385,-0.43898266828062543 l 12.719875545516674 17.19422357575992" fill="#ffdd14" stroke="none" /><path d="M 87.51073957382395 83.11751280151077 l -16.216680986367656 -21.921066565361144 a48.26745132161443,48.26745132161443 0 0,0 0.6721924860319995,-0.4883764281078986 l 15.836943183981875 22.19696222828571" fill="#d3ff1c" stroke="none" /><path d="M 87.80319425747018 82.90503203632743 l -20.866000492012493 -29.245658041196545 a56.92629247216124,56.92629247216124 0 0,0 0.8025763114266685,-0.562255995427577 l 20.359493041002164 29.600498879388063" fill="#6aff28" stroke="none" /><path d="M 88.39885842347998 82.49532879139004 l -14.604056054717447 -22.035693458593418 a47.435775748981264,47.435775748981264 0 0,0 0.6845049623544465,-0.44522106825958313 l 14.222584066578714 22.283813451012534" fill="#ddff1b" stroke="none" /><path d="M 88.70189139769569 82.29822771554957 l -14.779780672273725 -23.156823950280536 a48.471447216788604,48.471447216788604 0 0,0 0.7071772897154196,-0.4428343539432285 l 14.378984230186063 23.407802645546695" fill="#d0ff1d" stroke="none" /><path d="M 89.00827224532344 82.1063720568725 l -14.461118565088114 -23.541510581450428 a48.62836713615335,48.62836713615335 0 0,0 0.7170089106308617,-0.431989845987641 l 14.053747588239604 23.786947036896688" fill="#ceff1d" stroke="none" /><line stroke="#e1ed5e" stroke-width="0.3" x1="56.762969772571076" x2="54.21961505331055" y1="26.818313649435495" y2="22.513508569990535" /><path d="M 56.25429882871897 25.957352633546506 a86.0,86.0 0 0,1 42.265352541879196,-11.944610805530505" fill="none" id="id24" stroke="none" /><text fill="#e1ed5e" style="font-size:6.75px; font-family:Arial;" text-anchor="middle"><textPath startOffset="22.20632615414155" xlink:href="#id24">December</textPath></text><path d="M 89.63071344664047 81.73862282372117 l -13.627748648366419 -23.99986313915831 a48.59907541787193,48.59907541787193 0 0,0 0.7310132008512692,-0.40680805482253446 l 13.212611358443105 24.23088659154103" fill="#cfff1d" stroke="none" /><path d="M 89.94658935756843 81.56283822128135 l -21.511185015080294 -39.44981581683991 a65.9334958436978,65.9334958436978 0 0,0 1.001105797593735,-0.5347560465852484 l 20.828934170958252 39.81425058992691" fill="#34ff5f" stroke="none" /><path d="M 90.58718382345135 81.22770947309562 l -12.383844814800431 -24.697511174468957 a48.62836713615335,48.62836713615335 0 0,0 0.751490589240366,-0.36875316845245015 l 11.95688295854964 24.907019503056237" fill="#ceff1d" stroke="none" /><path d="M 90.91171255644093 81.06846463323043 l -11.928813032634075 -24.84854789346936 a48.563506902815924,48.563506902815924 0 0,0 0.7567160759192018,-0.3552883440988684 l 11.499318745415264 25.050201220208237" fill="#cfff1d" stroke="none" /><path d="M 91.23893434514133 80.91482961587045 l -8.018797752135407 -17.46820848106611 a40.22080708314929,40.22080708314929 0 0,0 0.6316924469390883,-0.2834219875487088 l 7.716923186729545 17.603650799131348" fill="#ffbf11" stroke="none" /><path d="M 91.90106846888425 80.62456947434976 l -12.266085160252592 -29.344695646715994 a52.80515693652464,52.80515693652464 0 0,0 0.8416541807415151,-0.3433318730023913 l 11.759147109922695 29.551488405901964" fill="#9aff22" stroke="none" /><path d="M 92.23578459929587 80.48803036053334 l -23.21884839309038 -58.350450306707366 a83.80039786256805,83.80039786256805 0 0,0 1.3448640409243129,-0.5217863541621622 l 22.211001187166392 58.74147936476008" fill="#4dd4ff" stroke="none" /><path d="M 93.25333710446033 80.11325718540243 l -7.5456401834721065 -22.241841340466063 a44.48693662427891,44.48693662427891 0 0,0 0.7272918823299159,-0.23977669883893427 l 7.161665478899781 22.36843176356423" fill="#fffa17" stroke="none" /><path d="M 93.59665428221793 80.00007090966166 l -7.679319356606034 -23.98524917492363 a46.18460092524634,46.18460092524634 0 0,0 0.7592190378529833,-0.2358930507498249 l 7.265314946042322 24.113882360555984" fill="#eeff19" stroke="none" /><path d="M 94.28887869178378 79.79150937346287 l -8.257681790317513 -29.219355718549494 a51.36379517051965,51.36379517051965 0 0,0 0.8528887520685986,-0.23312671399961055 l 7.753495149025191 29.3571689733754" fill="#acff21" stroke="none" /><path d="M 94.63758080256005 79.69619591428918 l -16.08725759231985 -60.91141225713247 a84.0,84.0 0 0,0 1.4011644452600023,-0.35718801532454725 l 15.036384258374849 61.17930326862588" fill="#4dd2ff" stroke="none" /><path d="M 95.692805502759 79.44645832069477 l -4.799295713392249 -22.90180407216448 a44.39927069599381,44.39927069599381 0 0,0 0.7493615680867448,-0.15031488093058046 l 4.404367735838369 22.98102290917227" fill="#fff917" stroke="none" /><path d="M 96.04723909329186 79.375362276772 l -5.512499207095821 -28.763009395024792 a50.286487617440855,50.286487617440855 0 0,0 0.8515295399695672,-0.155611580589598 l 5.016574546023361 28.853636456965127" fill="#b9ff1f" stroke="none" /><path d="M 96.75951476605007 79.25152402106235 l -4.647498242434709 -29.75742787995119 a51.11816319007403,51.11816319007403 0 0,0 0.8705448009657567,-0.12829567427031527 l 4.134584461040304 29.833018038382477" fill="#afff20" stroke="none" /><path d="M 97.11714578562143 79.19881850522333 l -8.61935199779442 -62.19277561079731 a83.7872165893414,83.7872165893414 0 0,0 1.4303087184095702,-0.18569512178464817 l 7.547528550876992 62.331929055746095" fill="#4dd4ff" stroke="none" /><path d="M 97.83486435360386 79.11191278185805 l -2.4103042232222207 -23.253344390095517 a44.37792958696021,44.37792958696021 0 0,0 0.7605000842907498,-0.07221864662752495 l 2.0096790118412344 23.29138858123822" fill="#fff817" stroke="none" /><path d="M 98.19473922651362 79.07773832637324 l -2.6161709461437033 -30.32039133739656 a51.433049161599286,51.433049161599286 0 0,0 0.882713119469036,-0.06851552691160355 l 2.0938676373123335 30.36093212649663" fill="#abff21" stroke="none" /><path d="M 98.91598698831166 79.02799685794201 l -1.2937025987773951 -25.028790866809864 a46.06220338814184,46.06220338814184 0 0,0 0.7921803349511887,-0.03411295161860246 l 0.8626814314368824 25.047351544952658" fill="#efff19" stroke="none" /><path d="M 99.27714615592234 79.0124445844662 l -0.261710402278957 -7.59857835114609 a28.603083933060784,28.603083933060784 0 0,0 0.49220917546159376,-0.012712310843656647 l 0.13087459162248416 7.601957454132106" fill="#ff1101" stroke="none" /><path d="M 99.63851952072746 79.00311137660856 l -0.25224844924843254 -14.652057021035601 a35.65422820307596,35.65422820307596 0 0,0 0.6137289285209647,-0.005282558648917641 l 3.589250732574368e-15 14.65422820307596" fill="#ff7d0b" stroke="none" /></svg>