<?xml version="1.0" encoding="utf-8" ?>
<svg baseProfile="full" height="200mm" version="1.1" viewBox="0,0,200,200" width="200mm" xmlns="http://www.w3.org/2000/svg" xmlns:ev="http://www.w3.org/2001/xml-events" xmlns:xlink="http://www.w3.org/1999/xlink"><defs /><rect fill="#1a1a1a" height="200" width="200" x="0" y="0" /><rect fill="#1a1a1a" height="200" width="180" x="10" y="0" /><text alignment-baseline="middle" fill="#e1ed5e" style="dominant-baseline: central; font-size:9.0px; font-family:Arial;" text-anchor="middle" x="100.0" y="100.0">2024</text><line stroke="#e1ed5e" stroke-width="0.3" x1="100.0" x2="100.0" y1="15.0" y2="10.0" /><path d="M 100.0 14.0 a86.0,86.0 0 0,1 42.35913384403234,11.155469271406648" fill="none" id="id25" stroke="none" /><text fill="#e1ed5e" style="font-size:6.75px; font-family:Arial;" text-anchor="middle"><textPath startOffset="22.145653131862478" xlink:href="#id25">January</textPath></text><path d="M 100.0 79.0 l 0.0 -29.92938028797071 a50.92938028797071,50.92938028797071 0 0,0 0.8742705362261987,0.007504561066989786 l -0.5137776113773438 29.924970125098152" fill="#a8ff21" stroke="none" /><path d="M 100.72087961077811 79.0123766808444 l 0.5699649780606799 -16.593908449895537 a37.603694098595355,37.603694098595355 0 0,0 0.644946758121924,0.02769678882885758 l -0.8547374967834401 16.581679092640847" fill="#ffaa0f" stroke="none" /><path d="M 101.08105385017728 79.02784411241856 l 0.6581924000120611 -12.768756722720795 a33.78570942417593,33.78570942417593 0 0,0 0.5789513501667238,0.034828275563003885 l -0.8772881023112473 12.755576469333098" fill="#ff730a" stroke="none" /><path d="M 101.44090949804482 79.04949213459386 l 1.1364478929226614 -16.523702947067353 a37.562737481957825,37.562737481957825 0 0,0 0.642914880577815,0.04976567783460297 l -1.41993176827571 16.501759502237697" fill="#ffa90f" stroke="none" /><path d="M 101.80034050326958 79.07731436759882 l 0.6672606927639607 -7.7545806941544395 a28.78323573934778,28.78323573934778 0 0,0 0.49191980352590564,0.046585316840994616 l -0.8002800596748793 7.741983621808261" fill="#ff2904" stroke="none" /><path d="M 104.29559338865022 79.4440306129975 l 1.8267752256554897 -8.741780754837311 a29.930612436485678,29.930612436485678 0 0,0 0.5020326949398574,0.10941568923398994 l -1.9765703372144812 8.709133607469601" fill="#ff3a05" stroke="none" /><path d="M 104.64783097203109 79.52079915486377 l 1.986387739551639 -8.752390893599417 a29.974969783024513,29.974969783024513 0 0,0 0.5008215756896114,0.11819252819629683 l -2.136341468981135 8.717002221756893" fill="#ff3b05" stroke="none" /><path d="M 107.06938296918511 80.22567764915836 l 14.841498293791883 -41.51431216984081 a65.08750601405822,65.08750601405822 0 0,0 1.0488722917587954,0.3851604339288916 l -15.551959737204802 41.25342088690319" fill="#34ff5a" stroke="none" /><path d="M 108.4095320186766 80.7573450057729 l 7.00729532569065 -16.034063024608706 a38.49838177828367,38.49838177828367 0 0,0 0.6033000692847682,0.26984844732399216 l -7.281508797831049 15.91141082637486" fill="#ffb610" stroke="none" /><path d="M 108.73861861582097 80.90454125486305 l 7.402656034095303 -16.176139401207404 a38.789513829400235,38.789513829400235 0 0,0 0.6031054308922148,0.2822837942359927 l -7.679250178859023 16.046679375400878" fill="#ffba11" stroke="none" /><path d="M 109.3889696526874 81.21577127319529 l 16.540791449925546 -33.09266313677393 a57.99624488071629,57.99624488071629 0 0,0 0.8867150225729148,0.4527630086204071 l -17.10643369421204 32.803842176480686" fill="#57ff2a" stroke="none" /><path d="M 110.34350942703115 81.72400993836675 l 8.16384334060644 -14.424728938491333 a37.57471396552331,37.57471396552331 0 0,0 0.5586242246679759,0.3225218464879019 l -8.410260033134813 14.282460194727259" fill="#ffa90f" stroke="none" /><line stroke="#e1ed5e" stroke-width="0.3" x1="143.13028292997686" x2="145.6673583964461" y1="26.7553504044142" y2="22.446841604673864" /><path d="M 143.63769802327073 25.89364864446614 a86.0,86.0 0 0,1 29.32050498858742,28.57503671076993" fill="none" id="id26" stroke="none" /><text fill="#e1ed5e" style="font-size:6.75px; font-family:Arial;" text-anchor="middle"><textPath startOffset="20.669276256404974" xlink:href="#id26">February</textPath></text><path d="M 110.96478420261332 82.08984904055464 l 10.6700035765858 -17.42864896045349 a41.43542955044181,41.43542955044181 0 0,0 0.6034495569300885,0.37659715446063624 l -10.967617262305602 17.24291600915131" fill="#ffde14" stroke="none" /><path d="M 111.27062007382361 82.28071324371311 l 8.912329749870066 -14.011662665420616 a37.60591196592229,37.60591196592229 0 0,0 0.5417299372271249,0.35114280031520184 l -9.151545319354199 13.85660602340152" fill="#ffaa0f" stroke="none" /><path d="M 111.8722381534696 82.67804972795209 l 11.786697073330306 -17.19714327969853 a41.84869216236197,41.84869216236197 0 0,0 0.5890799443405887,0.4112235514037503 l -12.080172108844655 16.992274912489652" fill="#ffe415" stroke="none" /><path d="M 112.16784306229584 82.88440491214696 l 9.661224841065296 -13.589722647292355 a37.67392656394851,37.67392656394851 0 0,0 0.5238810462118846,0.37924947690314975 l -9.893086897651148 13.42187239901613" fill="#ffab0f" stroke="none" /><path d="M 112.45986205192187 83.09580414077388 l 12.334557220978553 -16.734195790561923 a41.78880974453455,41.78880974453455 0 0,0 0.5737942088958656,0.4305858715238761 l -12.620004418785184 16.519990891774032" fill="#ffe315" stroke="none" /><path d="M 112.7482090630111 83.31218511350987 l 10.122930998226122 -13.251241627128554 a37.67540514216647,37.67540514216647 0 0,0 0.510573601680926,0.397025120843909 l -10.348914544542273 13.075515454663854" fill="#ffab0f" stroke="none" /><path d="M 113.31354834802062 83.75963576809568 l 13.259992316082142 -16.175034581028367 a41.91552389781382,41.91552389781382 0 0,0 0.5525377529507338,0.4609466451976637 l -13.535704403194767 15.945025751918834" fill="#ffe415" stroke="none" /><path d="M 113.59037401385872 83.9905735841838 l 10.979214342327118 -12.933486888419566 a37.96520647288686,37.96520647288686 0 0,0 0.4932232086115914,0.42603446035829434 l -11.19961703070157 12.743108295596551" fill="#ffaf10" stroke="none" /><path d="M 113.86319453409587 84.22622945171908 l 17.72553646105407 -20.168406660830946 a47.85068472253189,47.85068472253189 0 0,0 0.6123405940663199,0.5475587350935779 l -18.069142081943767 19.86115239585398" fill="#cdff1d" stroke="none" /><path d="M 114.13192950727249 84.46653392183569 l 11.360302200033951 -12.486962149868592 a37.881371087928464,37.881371087928464 0 0,0 0.47725157198446627,0.44173693007656245 l -11.572983543332382 12.290107473659655" fill="#ffae10" stroke="none" /><path d="M 114.65682725009322 84.96080404539774 l 14.831401333419837 -15.218324343232716 a42.25012614853844,42.25012614853844 0 0,0 0.5150654128359138,0.5106631708028513 l -15.090458666385715 14.961481162201204" fill="#ffe915" stroke="none" /><path d="M 114.91283532996326 85.21462403516908 l 11.800629478136356 -11.699770003183055 a37.61744487602239,37.61744487602239 0 0,0 0.4507164589423332,0.462474792827694 l -11.999732738229502 11.495472518287619" fill="#ffaa0f" stroke="none" /><path d="M 115.16444852881244 85.47280134310134 l 10.715389346513637 -10.265100602046724 a35.83886313763686,35.83886313763686 0 0,0 0.42177933095197845,0.4479150331596777 l -10.890024511201876 10.079644108942551" fill="#ff910d" stroke="none" /><path d="M 115.6541949942343 86.00192230759917 l 12.364126543271052 -11.05607819598066 a37.5863947334452,37.5863947334452 0 0,0 0.42595933772595584,0.4846635340550028 l -12.552096944955599 10.84220238411436" fill="#ffa90f" stroke="none" /><path d="M 116.57777611688842 87.10902102172516 l 16.469419553091203 -12.806720258877323 a41.8627386554326,41.8627386554326 0 0,0 0.4362655989178501,0.5710856732973315 l -16.686837129363358 12.52211367233911" fill="#ffe415" stroke="none" /><path d="M 117.01052211995028 87.68569379921539 l 17.232173712496284 -12.474764860504512 a42.27363554220402,42.27363554220402 0 0,0 0.42049162833398285,0.5914741348610507 l -17.443780439360225 12.177113498933958" fill="#ffe915" stroke="none" /><path d="M 117.42321728460499 88.27688183743584 l 13.883656661359849 -9.34154380967318 a37.73380898177594,37.73380898177594 0 0,0 0.3569897938625021,0.5405280480299313 l -14.041970894143075 9.10183588330419" fill="#ffac0f" stroke="none" /><line stroke="#e1ed5e" stroke-width="0.3" x1="172.87174338648825" x2="177.1583165268699" y1="56.24261187166439" y2="53.66864786411523" /><path d="M 173.72905801456457 55.72781907015455 a86.0,86.0 0 0,1 12.242430191666344,42.057860355516425" fill="none" id="id27" stroke="none" /><text fill="#e1ed5e" style="font-size:6.75px; font-family:Arial;" text-anchor="middle"><textPath startOffset="22.145653131862474" xlink:href="#id27">March</textPath></text><path d="M 118.00360718960297 89.18935116829356 l 17.826353514490304 -10.704213092713035 a41.79324547918843,41.79324547918843 0 0,0 0.364051587483038,0.6182391848252613 l -18.007478812103113 10.396622739594216" fill="#ffe315" stroke="none" /><path d="M 118.18653347947321 89.5 l 16.922778868866775 -9.770370935376745 a40.540741870753486,40.540741870753486 0 0,0 0.34279443397746207,0.6056849189099105 l -17.08800666786561 9.478429246367716" fill="#ffd213" stroke="none" /><path d="M 118.36410011445183 89.81374322990088 l 32.325358901018795 -17.93033167425723 a57.965194738139104,57.965194738139104 0 0,0 0.4751894206963332,0.8742950123813771 l -32.62839367133047 17.372781828401248" fill="#57ff2a" stroke="none" /><path d="M 118.8641267826498 90.77261029715802 l 18.727942561230538 -9.160775175867442 a41.848396446718375,41.848396446718375 0 0,0 0.3101180242012427,0.6480273968140934 l -18.88243984339169 8.837935276988246" fill="#ffe415" stroke="none" /><path d="M 119.0197475246899 91.09779779509293 l 13.406916625328252 -6.275113935559374 a35.802785829118605,35.802785829118605 0 0,0 0.2557606702778671,0.5588832220091929 l -13.512661760461171 6.044041731335497" fill="#ff900d" stroke="none" /><path d="M 119.16976305983485 91.42560881287824 l 19.061336034771298 -8.525893157946914 a41.88122088315711,41.88122088315711 0 0,0 0.28791567977577076,0.6588074200858378 l -19.204885596564036 8.197423668085227" fill="#ffe415" stroke="none" /><path d="M 119.4528033332814 92.08871423366111 l 19.310588793029634 -7.853448350888577 a41.84647429503503,41.84647429503503 0 0,0 0.26491074956085575,0.6677481414030917 l -19.442558217556616 7.52079919227192" fill="#ffe415" stroke="none" /><path d="M 119.71291397450082 92.76114493625339 l 19.52715913777196 -7.170643314727183 a41.80211694849619,41.80211694849619 0 0,0 0.24157608593679505,0.6757313072995846 l -19.647375393752696 6.8343770510466815" fill="#ffe315" stroke="none" /><path d="M 119.83427380445688 93.10060997987247 l 19.668183261644295 -6.8416151076292815 a41.82414776394381,41.82414776394381 0 0,0 0.23006184747843253,0.680136972758669 l -19.782730530695094 6.50297646039645" fill="#ffe315" stroke="none" /><path d="M 119.94978838288452 93.4421083053983 l 19.7997266070249 -6.50856340827103 a41.84203856038114,41.84203856038114 0 0,0 0.2184458947631596,0.6842786540530448 l -19.908537217565318 6.167715720526598" fill="#ffe415" stroke="none" /><path d="M 120.05942366710727 93.78553927170692 l 4.913578389607672 -1.522239145269015 a26.14397362028703,26.14397362028703 0 0,0 0.12913091207734576,0.42983480875243857 l -4.938985621688645 1.437666732925853" fill="#ff0000" stroke="none" /><path d="M 120.16314734710363 94.1308016681162 l 19.96051501566672 -5.8102150133977535 a41.788957602356334,41.788957602356334 0 0,0 0.1945803470947505,0.6904970074462183 l -20.05731385483605 5.466710082048522" fill="#ffe315" stroke="none" /><path d="M 120.26092885502905 94.47779374421319 l 14.580679007281548 -3.9740289008341296 a36.112547965781474,36.112547965781474 0 0,0 0.15788151324773708,0.5995018217925646 l -14.646750001334015 3.723146574668766" fill="#ff950d" stroke="none" /><path d="M 120.43855184770803 95.1765574152323 l 18.93714561929525 -4.4691148029794965 a40.45735005926048,40.45735005926048 0 0,0 0.15371700499468036,0.6773054866974231 l -19.011073485847596 4.1433749823430475" fill="#ffd113" stroke="none" /><path d="M 120.51834098615036 95.52812308129327 l 16.22214705517555 -3.5355414473749063 a37.60295480948637,37.60295480948637 0 0,0 0.13204418892473385,0.631879244539339 l -16.28044895492465 3.2565457515501626" fill="#ffaa0f" stroke="none" /><path d="M 120.592083275326 95.88100663000786 l 20.38861995089749 -4.0782950067837 a41.79250619007944,41.79250619007944 0 0,0 0.13467875470017068,0.7046961544160217 l -20.455624997879816 3.7276962873343633" fill="#ffe315" stroke="none" /><path d="M 120.65975698304385 96.23510406497455 l 14.557131887380073 -2.6527943534576814 a35.79687151624676,35.79687151624676 0 0,0 0.10497889835881406,0.6054903886770113 l -14.600525603231123 2.4025109318600775" fill="#ff900d" stroke="none" /><path d="M 120.7213421655516 96.59031103205396 l 16.391396967504537 -2.6971981333447888 a37.61182627879414,37.61182627879414 0 0,0 0.09936419047153736,0.6379893818880027 l -16.435282650114342 2.415420569525345" fill="#ffaa0f" stroke="none" /><path d="M 120.86939407059847 97.66154086499901 l 20.738863929433805 -2.323832960423663 a41.868652968304445,41.868652968304445 0 0,0 0.07390337121668744,0.7149480767875854 l -20.775699693132157 1.9674803613531462" fill="#ffe415" stroke="none" /><path d="M 120.9064616781168 98.02013634271609 l 20.68517216506587 -1.9589073103241528 a41.777720407899835,41.777720407899835 0 0,0 0.061485618559754596,0.7145560885305664 l -20.715751406323367 1.6035301744179244" fill="#ffe315" stroke="none" /><path d="M 120.96210409425399 98.7389718711861 l 21.317601622177012 -1.2824139773155232 a42.356140206766256,42.356140206766256 0 0,0 0.037431554237720814,0.7261621522917051 l -21.336474765871305 0.9162800316470874" fill="#ffea16" stroke="none" /><path d="M 120.98066250479742 99.09900007780936 l 16.617210592942687 -0.7136145223175561 a37.63252637384559,37.63252637384559 0 0,0 0.022176871094081282,0.6456554048153382 l -16.627012151033618 0.42825285293809795" fill="#ffaa0f" stroke="none" /><path d="M 120.99303781780057 99.45929381324524 l 18.87341032572834 -0.48611210139532274 a39.879669549503035,39.879669549503035 0 0,0 0.011752288706175956,0.684511899012042 l -18.878974046033182 0.16205328641421432" fill="#ffc912" stroke="none" /><line stroke="#e1ed5e" stroke-width="0.3" x1="184.99686870605535" x2="189.99668451229388" y1="99.2704041080226" y2="99.22748670261217" /><path d="M 185.99683186730306 99.26182062694052 a86.0,86.0 0 0,1 -10.086455211305974,41.156179273409016" fill="none" id="id28" stroke="none" /><text fill="#e1ed5e" style="font-size:6.75px; font-family:Arial;" text-anchor="middle"><textPath startOffset="21.40746469413373" xlink:href="#id28">April</textPath></text><path d="M 120.99922638620191 100.18025310272382 l 7.526572996580456 0.06460657695477945 a28.52685027635331,28.52685027635331 0 0,0 -0.008406684009988518,0.4896471980857195 l -7.524354880971799 -0.19380069100956998" fill="#ff2503" stroke="none" /><path d="M 120.99303781780057 100.54070618675476 l 20.86321241993418 0.5373623450281068 a41.87013154652241,41.87013154652241 0 0,0 -0.024674094446259787,0.7183593380042204 l -20.850913638491072 -0.8954279475964377" fill="#ffe415" stroke="none" /><path d="M 120.96210409425399 101.26102812881392 l 21.160859977565508 1.2729847891995363 a42.199115200018774,42.199115200018774 0 0,0 -0.04970661678035783,0.7227232988835786 l -21.135889399620083 -1.6360515122374581" fill="#ffe815" stroke="none" /><path d="M 120.9064616781168 101.97986365728391 l 21.138545801560458 2.00184226507098 a42.23312249903188,42.23312249903188 0 0,0 -0.07454670519370629,0.7211717494297054 l -21.101066703885085 -2.364418536783617" fill="#ffe915" stroke="none" /><path d="M 120.82617615685814 102.69636545807757 l 20.68374570912802 2.677924985062005 a41.85638076909537,41.85638076909537 0 0,0 -0.09837342419561448,0.7117810928130034 l -20.634727768377193 -3.0325943860750932" fill="#ffe415" stroke="none" /><path d="M 120.7213421655516 103.40968896794604 l 20.97836199339098 3.45198148280949 a42.26047619606416,42.26047619606416 0 0,0 -0.12393424473331897,0.7148197893778875 l -20.916012931165426 -3.8115943051079655" fill="#ffe915" stroke="none" /><path d="M 120.65975698304385 103.76489593502545 l 20.385075820109346 3.7148398770278206 a41.72079514650832,41.72079514650832 0 0,0 -0.13444766173812922,0.7034869783880542 l -20.318301866089058 -4.064229420449189" fill="#ffe215" stroke="none" /><path d="M 120.51834098615036 104.47187691870673 l 15.375284235356874 3.350971637378359 a36.73621225811751,36.73621225811751 0 0,0 -0.13957860598618935,0.6150090919563206 l -15.315494767813021 -3.614415063273696" fill="#ff9e0e" stroke="none" /><path d="M 120.35273937422433 105.17358676015961 l 14.526664133991122 3.6926212167823325 a35.98864311111633,35.98864311111633 0 0,0 -0.1573398099602313,0.5974448861764079 l -14.461134843226162 -3.9414466073315433" fill="#ff930d" stroke="none" /><path d="M 120.16314734710363 105.8691983318838 l 20.404583628045046 5.93947691453578 a42.251456868934596,42.251456868934596 0 0,0 -0.20868936150732453,0.6946590119215023 l -20.29961794653409 -6.288873530048006" fill="#ffe915" stroke="none" /><path d="M 119.94978838288452 106.5578916946017 l 16.885812528827316 5.550701973079611 a38.77472804722062,38.77472804722062 0 0,0 -0.21328792209623265,0.6305478428974117 l -16.788039185158716 -5.8397514904511825" fill="#ffba11" stroke="none" /><path d="M 119.83427380445688 106.89939002012753 l 19.61623341697534 6.823544254953264 a41.76914465423566,41.76914465423566 0 0,0 -0.24138553774514176,0.6751983100943671 l -19.496207709186255 -7.159277521428552" fill="#ffe315" stroke="none" /><path d="M 119.4528033332814 107.91128576633889 l 19.681898859118746 8.004456922271363 a42.24731684992432,42.24731684992432 0 0,0 -0.27898147546489327,0.6694539814756445 l -19.54159153911737 -8.341143413188284" fill="#ffe915" stroke="none" /><path d="M 119.31412917781788 108.2440532568976 l 17.97895503431922 7.674146809400231 a40.54828261966509,40.54828261966509 0 0,0 -0.27875229298476145,0.6378397978440121 l -17.844568859317494 -7.981648677020088" fill="#ffd213" stroke="none" /><path d="M 119.0197475246899 108.90220220490707 l 23.05349545073424 10.790199910168763 a46.45372402220214,46.45372402220214 0 0,0 -0.34424585727907425,0.7193414421208624 l -22.86487033549525 -11.184353854354729" fill="#dfff1b" stroke="none" /><path d="M 118.70294669586154 109.54985784667822 l 18.568189437670586 9.48104983046244 a41.84869216236197,41.84869216236197 0 0,0 -0.33218282416271544,0.6370043652791499 l -18.402698544532925 -9.798400438846095" fill="#ffe415" stroke="none" /><path d="M 118.5362547648365 109.86951160357373 l 15.034210551664623 8.004870313484457 a38.0324817818041,38.0324817818041 0 0,0 -0.31178421925749883,0.573647846445317 l -14.894580982791785 -8.261772993404376" fill="#ffb010" stroke="none" /><line stroke="#e1ed5e" stroke-width="0.3" x1="174.33088141563837" x2="178.70328620479359" y1="141.23008692659167" y2="143.65538615756765" /><path d="M 175.20536237346943 141.71514677278685 a86.0,86.0 0 0,1 -30.301960400862466,31.631185727798858" fill="none" id="id29" stroke="none" /><text fill="#e1ed5e" style="font-size:6.75px; font-family:Arial;" text-anchor="middle"><textPath startOffset="22.145653131862474" xlink:href="#id29">May</textPath></text><path d="M 118.36410011445183 110.18625677009912 l 14.518838525775484 8.053354986382951 a37.602806951664576,37.602806951664576 0 0,0 -0.31795256648370485,0.5617917193502098 l -14.3784525942704 -8.301403475832284" fill="#ffaa0f" stroke="none" /><path d="M 118.00360718960297 110.81064883170644 l 18.169241136311367 10.910107257654998 a42.19320088714693,42.19320088714693 0 0,0 -0.3781958137680806,0.6177544392713378 l -17.97927735808788 -11.220398813050894" fill="#ffe815" stroke="none" /><path d="M 117.423217284605 111.72311816256416 l 4.272743640513926 2.8748926078278476 a26.149887933158876,26.149887933158876 0 0,0 -0.2537912162812852,0.3702889691967832 l -4.222762687417321 -2.947816312094675" fill="#ff0000" stroke="none" /><path d="M 117.01052211995028 112.31430620078461 l 18.64256770771696 13.49578134656086 a44.01480925167513,44.01480925167513 0 0,0 -0.4483180384445881,0.6082295211223795 l -18.408147649688544 -13.813817176952115" fill="#feff18" stroke="none" /><path d="M 116.79662413953412 112.60449989151573 l 11.857588410883185 8.898155402955922 a35.82496450238802,35.82496450238802 0 0,0 -0.3733439353666597,0.48871919589629087 l -11.70309249816222 -9.10039551209309" fill="#ff910d" stroke="none" /><path d="M 116.57777611688842 112.89097897827486 l 15.180229340731941 11.804238152149475 a40.229649013694456,40.229649013694456 0 0,0 -0.42860585561290665,0.5415294971182748 l -14.975357054477474 -12.063087593182434" fill="#ffce13" stroke="none" /><path d="M 116.35404254752997 113.17365903436017 l 16.186696535567034 13.038856932925459 a41.78511329898964,41.78511329898964 0 0,0 -0.45476764537897174,0.5547425831775369 l -15.960482070949435 -13.314801797801488" fill="#ffe315" stroke="none" /><path d="M 115.6541949942343 113.99807769240083 l 14.357654300836204 12.838703009497591 a40.260699156271635,40.260699156271635 0 0,0 -0.465111341953566,0.5112388403216472 l -14.135145258040758 -13.08327942537691" fill="#ffce13" stroke="none" /><path d="M 115.41159269507618 114.26474011684316 l 15.64463749067888 14.48044290049623 a42.31754931527747,42.31754931527747 0 0,0 -0.4980254973261406,0.5288858196197366 l -15.39375615961648 -14.746870180060464" fill="#ffea16" stroke="none" /><path d="M 115.16444852881244 114.52719865689866 l 12.830621446711747 12.291445105550622 a38.768074445239805,38.768074445239805 0 0,0 -0.46450282020906836,0.4766208139995029 l -12.617731825351873 -12.509888611617862" fill="#ffba11" stroke="none" /><path d="M 114.91283532996324 114.78537596483092 l 11.726710170446852 11.626482480651818 a37.51335296947792,37.51335296947792 0 0,0 -0.4573200696763297,0.4534113746191184 l -11.525398180640558 -11.826073865499598" fill="#ffa80f" stroke="none" /><path d="M 114.39649973595853 115.28858382429668 l 21.514418970091864 22.847567387072793 a52.382822676226574,52.382822676226574 0 0,0 -0.6599493035556746,0.6108392229001076 l -21.119039895222222 -23.213524356105278" fill="#96ff23" stroke="none" /><path d="M 111.5731344415666 117.5232005979908 l 9.18984312275636 13.914593778997629 a37.67540514216647,37.67540514216647 0 0,0 -0.5427310174306427,0.3517916884084169 l -8.949626473068708 -14.07029930910994" fill="#ffab0f" stroke="none" /><path d="M 111.27062007382361 117.71928675628689 l 10.456414090293645 16.439219714158526 a40.4829294624312,40.4829294624312 0 0,0 -0.5895777143470079,0.36794009873175065 l -10.172672247156923 -16.61629560973182" fill="#ffd113" stroke="none" /><line stroke="#e1ed5e" stroke-width="0.3" x1="143.1302829299769" x2="145.66735839644613" y1="173.24464959558577" y2="177.55315839532614" /><path d="M 143.63769802327073 174.10635135553383 a86.0,86.0 0 0,1 -40.68552437913181,11.842963189579606" fill="none" id="id30" stroke="none" /><text fill="#e1ed5e" style="font-size:6.75px; font-family:Arial;" text-anchor="middle"><textPath startOffset="21.407464694133747" xlink:href="#id30">June</textPath></text><path d="M 110.65571695917076 118.09573695890943 l 8.430967013296511 14.31762517402007 a37.615522724339044,37.615522724339044 0 0,0 -0.5592309295193805,0.3228721276971802 l -8.183943615916732 -14.460244198993424" fill="#ffaa0f" stroke="none" /><path d="M 110.34350942703117 118.27599006163325 l 10.470422759545842 18.500233759586052 a42.25766689745004,42.25766689745004 0 0,0 -0.6343797659230926,0.35187976242640184 l -10.151298805466656 -18.6772464374456" fill="#ffe915" stroke="none" /><path d="M 110.02825361518725 118.45085714620011 l 7.966634747068623 14.657710633834274 a37.682798033256276,37.682798033256276 0 0,0 -0.571004180316124,0.3040275640799775 l -7.713841750965945 -14.792308665636819" fill="#ffab0f" stroke="none" /><path d="M 109.3889696526874 118.78422872680471 l 9.50760845154224 19.021585797495096 a42.26535550418343,42.26535550418343 0 0,0 -0.6517715329202278,0.31881411743930343 l -9.179676669359942 -19.181993665031623" fill="#ffe915" stroke="none" /><path d="M 109.06512990194946 118.94263497670748 l 6.49004027708035 13.56168805991678 a36.03462689369492,36.03462689369492 0 0,0 -0.5602720177247971,0.2622355940878217 l -6.2562795454840465 -13.671099885575135" fill="#ff940d" stroke="none" /><path d="M 108.73861861582097 119.09545874513695 l 8.051830482964855 17.594702729322265 a40.349561707171105,40.349561707171105 0 0,0 -0.6323095218323733,0.28282400646319644 l -7.748607558276855 -17.730330486695312" fill="#ffcf13" stroke="none" /><path d="M 108.07796709384702 119.3841803445677 l 6.912962275754628 16.58859288625848 a38.97137895020947,38.97137895020947 0 0,0 -0.6197294353180577,0.25203856619600035 l -6.627178379246129 -16.70481870903377" fill="#ffbd11" stroke="none" /><path d="M 107.74402155503746 119.51999308798841 l 6.125225981703327 15.43957076765103 a37.61019984275438,37.61019984275438 0 0,0 -0.6021710666807392,0.2329327046999659 l -5.859282652529059 -15.542443360489038" fill="#ffaa0f" stroke="none" /><path d="M 107.06938296918513 119.77432235084164 l 7.161349571619361 20.03156930577015 a42.27319196873863,42.27319196873863 0 0,0 -0.685417993456583,0.23842395795744176 l -6.816425806117756 -20.151551696296185" fill="#ffe915" stroke="none" /><path d="M 106.72888874123015 119.89276391827305 l 6.06170880612154 17.920364990229864 a39.91781686752643,39.91781686752643 0 0,0 -0.650997363803312,0.21399576393281244 l -5.753188704670493 -18.021781675564696" fill="#ffca12" stroke="none" /><path d="M 106.38641147887787 120.00534299687104 l 2.8028954771304337 8.780030160885449 a30.216569463839374,30.216569463839374 0 0,0 -0.49549327320753944,0.15350508262761614 l -2.65176157105127 -8.82685183131971" fill="#ff3f05" stroke="none" /><path d="M 106.0420521117495 120.11202640906438 l 4.341326857345623 14.450865168065203 a36.088890714294095,36.088890714294095 0 0,0 -0.5948480088098717,0.17315158595678218 l -4.092618836154145 -14.523260448324503" fill="#ff940d" stroke="none" /><path d="M 105.69591212413111 120.21278271476187 l 10.038446064456092 35.62290370230384 a58.01029137378692,58.01029137378692 0 0,0 -0.9608122989047956,0.2618736646090161 l -9.425452364616602 -35.789977861057" fill="#57ff2a" stroke="none" /><path d="M 104.9986988182912 120.39639698878246 l 4.581167830476603 18.692728075699936 a40.24591337409203,40.24591337409203 0 0,0 -0.6724284260161458,0.1586912776121325 l -4.2596072507205776 -18.768615496958294" fill="#ffce13" stroke="none" /><path d="M 103.94208987418118 120.62667999033965 l 3.9697807691749545 20.771570454005555 a42.14751282021193,42.14751282021193 0 0,0 -0.7118218506924142,0.12971765322959805 l -3.612624184931483 -20.83665628116652" fill="#ffe815" stroke="none" /><path d="M 103.58742460773223 120.69131181640829 l 2.5295643746475 14.589855107392948 a35.80751727941608,35.80751727941608 0 0,0 -0.6065494979097213,0.09980748906188755 l -2.2787373736847063 -14.631128594950505" fill="#ff900d" stroke="none" /><path d="M 103.2317021107853 120.74984581791261 l 4.870591515712699 31.272691457478807 a52.649706044568575,52.649706044568575 0 0,0 -0.8942299211063285,0.13142100390407752 l -4.333036488998686 -31.35169353468177" fill="#93ff23" stroke="none" /><path d="M 101.44090949804482 120.95050786540614 l 1.1404755475271928 16.582264161068544 a37.62143703721088,37.62143703721088 0 0,0 -0.6446803142253902,0.038782366821357356 l -0.8556508811693375 -16.599398505714593" fill="#ffaa0f" stroke="none" /><path d="M 101.08105385017728 120.97215588758144 l 1.5688518558218925 30.435306880802063 a51.47571493950738,51.47571493950738 0 0,0 -0.8828679274221707,0.03791414755039349 l -1.0461581677988923 -30.457753596778286" fill="#a1ff22" stroke="none" /><path d="M 100.72087961077811 120.9876233191556 l 0.6234110907013023 18.14993370460322 a39.1606369621085,39.1606369621085 0 0,0 -0.6720462939834769,0.01730952862069344 l -0.3117514826470816 -18.15796095057396" fill="#ffbf11" stroke="none" /><line stroke="#e1ed5e" stroke-width="0.3" x1="101.45913802915013" x2="101.54496967792366" y1="184.9874750549273" y2="189.98673829345242" /><path d="M 101.47630435890484 185.9873277026323 a86.0,86.0 0 0,1 -42.54439059252881,-10.42667462771756" fill="none" id="id31" stroke="none" /><text fill="#e1ed5e" style="font-size:6.75px; font-family:Arial;" text-anchor="middle"><textPath startOffset="22.145653131862474" xlink:href="#id31">July</textPath></text><path d="M 100.0 121.0 l 2.182570736336471e-15 17.822042550195384 a38.822042550195384,38.822042550195384 0 0,0 -0.6664319841679298,-0.00572051706531428 l 0.30593905931907545 -17.819416431324505" fill="#ffbb11" stroke="none" /><path d="M 99.27912038922189 120.98762331915562 l -0.561671440733534 16.35245115965884 a37.36209441778049,37.36209441778049 0 0,0 -0.640803044727797,-0.027518839946416726 l 0.8423002460621698 -16.340399751286597" fill="#ffa60f" stroke="none" /><path d="M 98.91894614982273 120.97215588758144 l -0.7684987876819022 14.908671174927491 a35.928464977645305,35.928464977645305 0 0,0 -0.6156695734008221,-0.03703715269337389 l 1.0243127132151706 -14.893282044409426" fill="#ff920d" stroke="none" /><path d="M 98.19965949673042 120.92268563240118 l -1.1725864434675213 13.62723189803869 a34.67758780525013,34.67758780525013 0 0,0 -0.5926572097170829,-0.056125253943585786 l 1.4063432165696195 -13.605094888589921" fill="#ff800b" stroke="none" /><path d="M 97.48249496171623 120.84855314841334 l -1.777003990504415 14.716142203326108 a35.823042350704675,35.823042350704675 0 0,0 -0.6098824822724889,-0.07896149760284268 l 2.029364294667698 -14.683469109522868" fill="#ff910d" stroke="none" /><path d="M 96.41257539226777 120.69131181640829 l -2.650123260686942 15.285206724791232 a36.51324266284896,36.51324266284896 0 0,0 -0.6166656637111539,-0.11237702614224201 l 2.912123657949153 -15.237461524717624" fill="#ff9a0e" stroke="none" /><path d="M 95.00130118170881 120.39639698878247 l -3.530137100852478 14.404164033717626 a35.830435241794476,35.830435241794476 0 0,0 -0.5961411626149447,-0.15153675234483802 l 3.776883556692801 -14.341442049537525" fill="#ff910d" stroke="none" /><path d="M 94.6519064749342 120.30758222061772 l -3.7702186009637564 14.316134127035797 a35.80426440733656,35.80426440733656 0 0,0 -0.5930185279392172,-0.16162983682609072 l 4.015418529837668 -14.249303796065563" fill="#ff900d" stroke="none" /><path d="M 93.95794788825049 120.11202640906438 l -2.138629924277113 7.118803466231983 a28.43310841733457,28.43310841733457 0 0,0 -0.46624796286121706,-0.1444448107249877 l 2.260518520009964 -7.081042067700346" fill="#ff2303" stroke="none" /><path d="M 93.27111125876986 119.89276391827306 l -10.01030476642816 29.593687327354264 a52.240879167302296,52.240879167302296 0 0,0 -0.8470341818933286,-0.2946424577414359 l 10.51684472036651 -29.417486437044236" fill="#98ff23" stroke="none" /><path d="M 92.59220618246901 119.65005319985036 l -5.224582231494274 13.858825086748029 a35.81091800931739,35.81091800931739 0 0,0 -0.573363044776312,-0.221789142960537 l 5.461717538764114 -13.767096055649452" fill="#ff900d" stroke="none" /><path d="M 92.25597844496254 119.51999308798841 l -6.006089984676271 15.13927022974952 a37.287130502129855,37.287130502129855 0 0,0 -0.5929462326760049,-0.24114607084667825 l 6.265090678542718 -15.033936902323552" fill="#ffa50f" stroke="none" /><path d="M 91.59046798132341 119.24265499422711 l -2.9764988763664912 6.810811926445168 a28.432812701690978,28.432812701690978 0 0,0 -0.4455646466305981,-0.1992953990843593 l 3.0929769258527244 -6.758712776450954" fill="#ff2303" stroke="none" /><path d="M 91.26138138417905 119.09545874513695 l -9.063892895006846 19.806241747819225 a42.781675017895495,42.781675017895495 0 0,0 -0.6651761777535719,-0.31133603790284997 l 9.402557786631908 -19.64772947834585" fill="#fff016" stroke="none" /><path d="M 90.93487009805054 118.94263497670748 l -6.4202782320694 13.415912216860528 a35.87301829447176,35.87301829447176 0 0,0 -0.5531956810809028,-0.27059572860576436 l 6.649634162412372 -13.303722738157543" fill="#ff910d" stroke="none" /><path d="M 90.28995756902619 118.62028667847754 l -6.850162207937032 13.13608926146249 a35.81491017050589,35.81491017050589 0 0,0 -0.5427002370406947,-0.2889573085117558 l 7.074651260764289 -13.01656148522816" fill="#ff910d" stroke="none" /><path d="M 89.97174638481275 118.45085714620012 l -9.71346221886227 17.87167643265604 a41.340800544492296,41.340800544492296 0 0,0 -0.6206156018062169,-0.34424501261309903 l 10.01882200882459 -17.702298504609793" fill="#ffdd14" stroke="none" /><line stroke="#e1ed5e" stroke-width="0.3" x1="58.13341422392154" x2="55.67067388415222" y1="173.97424548756322" y2="178.32567169271397" /><path d="M 57.64086615596768 174.84453072859336 a86.0,86.0 0 0,1 -31.369924170532247,-30.572349798747897" fill="none" id="id32" stroke="none" /><text fill="#e1ed5e" style="font-size:6.75px; font-family:Arial;" text-anchor="middle"><textPath startOffset="22.145653131862474" xlink:href="#id32">August</textPath></text><path d="M 89.34428304082925 118.09573695890944 l -7.516408722821888 12.764505255254292 a35.81313587664433,35.81313587664433 0 0,0 -0.5270793897347034,-0.3164960293147612 l 7.734420869114019 -12.633595225403612" fill="#ff900d" stroke="none" /><path d="M 87.83215693770417 117.11559508785305 l -8.580216283429728 12.069148732567387 a35.80825656852506,35.80825656852506 0 0,0 -0.49793766206718654,-0.36046846747912203 l 8.786134955870867 -11.9200794937152" fill="#ff900d" stroke="none" /><path d="M 87.2517909369889 116.68781488649013 l -7.41088666313655 9.701088534703574 a33.20788105659669,33.20788105659669 0 0,0 -0.450030128973505,-0.3499461502726967 l 7.576326736745283 -9.572441332810085" fill="#ff6b09" stroke="none" /><path d="M 86.96720088162412 116.46651593811092 l -9.454051850461974 11.94488567355123 a36.233495664010704,36.233495664010704 0 0,0 -0.4844059997622364,-0.3902031841069086 l 9.657708620579474 -11.780834195650911" fill="#ff960d" stroke="none" /><path d="M 86.68645165197938 116.24036423190432 l -9.854091153096011 12.020388953967954 a36.54325780067357,36.54325780067357 0 0,0 -0.48171960345547954,-0.4018676261539556 l 10.058985090713382 -11.849459143902129" fill="#ff9b0e" stroke="none" /><path d="M 86.13680546590413 115.77377054828092 l -9.88434040974372 11.246564942945664 a35.97282232418414,35.97282232418414 0 0,0 -0.46034073535129855,-0.411639524152967 l 10.075946171918389 -11.075229888909314" fill="#ff930d" stroke="none" /><path d="M 85.86807049272751 115.53346607816431 l -10.958020559061595 12.044784157068907 a37.28358191440675,37.28358191440675 0 0,0 -0.4697202758728109,-0.43476607483133634 l 11.163170606248372 -11.854900336105194" fill="#ffa50f" stroke="none" /><path d="M 85.34317274990678 115.03919595460226 l -13.457752689186933 13.808839822409093 a40.28199068261027,40.28199068261027 0 0,0 -0.4910721470475141,-0.48687497442997024 l 13.69281675636441 -13.575784837750463" fill="#ffcf13" stroke="none" /><path d="M 85.08716467003676 114.78537596483092 l -14.875735677429686 14.748593401439296 a41.94775690296537,41.94775690296537 0 0,0 -0.5026004428049204,-0.5157123310002184 l 15.126722921385415 -14.491058378371338" fill="#ffe515" stroke="none" /><path d="M 84.83555147118756 114.52719865689866 l -5.358708993833864 5.133521997191313 a28.42083621812549,28.42083621812549 0 0,0 -0.33447827960224424,-0.35520434195076067 l 5.446043107172361 -5.040776195296062" fill="#ff2303" stroke="none" /><path d="M 84.3458050057657 113.99807769240083 l -13.68476841816162 12.237004303989718 a39.35802715420632,39.35802715420632 0 0,0 -0.4460369051008755,-0.5075081201394536 l 13.892816387221087 -12.000283906038964" fill="#ffc212" stroke="none" /><path d="M 83.8745106332314 113.45245675266167 l -16.545198291226075 13.802592864909277 a42.54658108123966,42.54658108123966 0 0,0 -0.4630550684113741,-0.5648518917609328 l 16.77970017887608 -13.51653869144985" fill="#ffed16" stroke="none" /><path d="M 83.64595745247003 113.17365903436017 l -11.529718021005598 9.28752469180693 a35.80515155426734,35.80515155426734 0 0,0 -0.38146735041219376,-0.4819715356906502 l 11.687451802059353 -9.0882332122016" fill="#ff900d" stroke="none" /><path d="M 83.4222238831116 112.89097897827486 l -15.184664762014837 11.807687162566467 a40.235267610922705,40.235267610922705 0 0,0 -0.41930517891767666,-0.5488839390803013 l 15.385121918286808 -11.545282310245295" fill="#ffce13" stroke="none" /><path d="M 83.20337586046588 112.60449989151573 l -9.160612360315286 6.874294295247252 a32.4530668763275,32.4530668763275 0 0,0 -0.3305545458646353,-0.44846072630406414 l 9.277268925763751 -6.716027259674308" fill="#ff6008" stroke="none" /><path d="M 82.78059297857968 112.02048342749411 l -12.168782398394388 8.494755189346613 a35.840489573676614,35.840489573676614 0 0,0 -0.34784093393707766,-0.5075103179664485 l 12.312813069146792 -8.284610136310112" fill="#ff910d" stroke="none" /><path d="M 82.576782715395 111.72311816256416 l -10.081982087155815 6.783607492803095 a33.15169508431416,33.15169508431416 0 0,0 -0.31363960102881444,-0.47489033088236854 l 10.196946127105356 -6.609537283581665" fill="#ff6a09" stroke="none" /><path d="M 82.18462484594161 111.11811171558189 l -14.637052184848605 9.134603115044541 a38.2535292253893,38.2535292253893 0 0,0 -0.3428828415647474,-0.5600733530500825 l 14.791702990868757 -8.881992645869902" fill="#ffb310" stroke="none" /><path d="M 81.99639281039703 110.81064883170644 l -12.838954815580955 7.709423473621843 a35.97577948062006,35.97577948062006 0 0,0 -0.3133769459799703,-0.5321825650182468 l 12.969405471690695 -7.487889740310037" fill="#ff930d" stroke="none" /><line stroke="#e1ed5e" stroke-width="0.3" x1="26.387840678322732" x2="22.057713659400548" y1="142.50000000000003" y2="145.00000000000006" /><path d="M 25.521815274538298 143.00000000000003 a86.0,86.0 0 0,1 -11.493303480769221,-40.785679425670985" fill="none" id="id33" stroke="none" /><text fill="#e1ed5e" style="font-size:6.75px; font-family:Arial;" text-anchor="middle"><textPath startOffset="21.40746469413373" xlink:href="#id33">September</textPath></text><path d="M 81.81346652052679 110.50000000000001 l -27.130559541150323 15.663835854348328 a52.32767170869663,52.32767170869663 0 0,0 -0.4424594562656801,-0.7817834635752047 l 27.395452362437382 -15.195795620674001" fill="#97ff23" stroke="none" /><path d="M 81.4637452351635 109.86951160357371 l -13.066105207516854 6.956965071700127 a35.802785829118605,35.802785829118605 0 0,0 -0.2841921669491478,-0.5449759522667919 l 13.183605443440952 -6.7316428763288325" fill="#ff900d" stroke="none" /><path d="M 81.29705330413844 109.54985784667822 l -18.806538594666325 9.602752608329443 a42.11631481981295,42.11631481981295 0 0,0 -0.32325291799329803,-0.6467223745318149 l 18.968611425871362 -9.278498377633875" fill="#ffe715" stroke="none" /><path d="M 80.9802524753101 108.90220220490708 l -18.78307479184104 8.791427415626965 a41.73868594294566,41.73868594294566 0 0,0 -0.29816434799894004,-0.6515429104751654 l 18.931223604695038 -8.467695522937111" fill="#ffe215" stroke="none" /><path d="M 80.83023694016515 108.57439118712176 l -13.90070453688154 6.21760832952348 a36.22787706678245,36.22787706678245 0 0,0 -0.24905133213799496,-0.5698781869836137 l 14.005389751036503 -5.978068072764017" fill="#ff960d" stroke="none" /><path d="M 80.68587082218212 108.24405325689762 l -29.10616171825515 12.423689678163381 a52.64674888813265,52.64674888813265 0 0,0 -0.3476544495219769,-0.8342441196942341 l 29.315142012313615 -11.922213049027865" fill="#93ff23" stroke="none" /><path d="M 80.41425534168474 107.57618678355246 l -14.089959471443697 5.450299010358072 a36.107372942018614,36.107372942018614 0 0,0 -0.21865475839493548,-0.580007724390597 l 14.181444913653069 -5.20762300577333" fill="#ff950d" stroke="none" /><path d="M 80.16572619554312 106.89939002012753 l -20.161986086239576 7.013385363173396 a42.3469730218149,42.3469730218149 0 0,0 -0.2329377493476801,-0.68863906562084 l 20.27940925715962 -6.666244623078394" fill="#ffea16" stroke="none" /><path d="M 80.05021161711548 106.5578916946017 l -14.60314115332532 4.80034255233747 a36.37189058521187,36.37189058521187 0 0,0 -0.1898877410489663,-0.5948206442928707 l 14.68339361015154 -4.5489528743532075" fill="#ff980e" stroke="none" /><path d="M 79.94057633289273 106.21446072829308 l -7.08846179350444 2.1960235832683725 a28.42083621812549,28.42083621812549 0 0,0 -0.1403768438627667,-0.467268858125027 l 7.125114957370836 -2.074017121552622" fill="#ff2303" stroke="none" /><path d="M 79.83685265289637 105.86919833188381 l -20.483516539963958 5.962453134814802 a42.333665817853245,42.333665817853245 0 0,0 -0.19711665141336707,-0.6994974567111278 l 20.582851683451903 -5.609947754200679" fill="#ffea16" stroke="none" /><path d="M 79.64726062577567 105.17358676015961 l -20.22042519262535 5.1399530126077275 a41.863477944541586,41.863477944541586 0 0,0 -0.17106707576436692,-0.6980120459013582 l 20.305679794906013 -4.792085142098269" fill="#ffe415" stroke="none" /><path d="M 79.56144815229197 104.8234425847677 l -14.42932931529872 3.405282429383746 a35.825703791497006,35.825703791497006 0 0,0 -0.13611914474351383,-0.5997660674076569 l 14.4856593215999 -3.157082028037063" fill="#ff910d" stroke="none" /><path d="M 79.48165901384964 104.47187691870673 l -19.635457843960243 4.279456647099964 a41.096391565063314,41.096391565063314 0 0,0 -0.14431152337456912,-0.6905828807068535 l 19.70602707815918 -3.941757315107702" fill="#ffda14" stroke="none" /><path d="M 79.34024301695615 103.76489593502545 l -7.380898617012764 1.3450455986889467 a28.50245373575695,28.50245373575695 0 0,0 -0.08358708643979712,-0.4821081021809214 l 7.402900520944796 -1.2181444635874326" fill="#ff2503" stroke="none" /><path d="M 79.2786578344484 103.40968896794605 l -31.62656944931727 5.204139967564013 a53.05187931985402,53.05187931985402 0 0,0 -0.14015424304410493,-0.8998907802132624 l 31.711245184499642 -4.660461005419301" fill="#8fff24" stroke="none" /><path d="M 79.13060592940153 102.33845913500099 l -15.132582121557814 1.6956373902663393 a36.227285635495264,36.227285635495264 0 0,0 -0.06394565739957692,-0.6186162285168153 l 15.159460171439056 -1.4356166394665928" fill="#ff960d" stroke="none" /><path d="M 79.06263194458094 101.62068470465958 l -14.76261716656847 1.1427199340086074 a35.8067779903071,35.8067779903071 0 0,0 -0.042177040520099685,-0.6132449125742607 l 14.780058168253635 -0.8891315972800032" fill="#ff900d" stroke="none" /><path d="M 79.01933749520258 100.90099992219065 l -62.94198751439227 2.7029997665719474 a84.0,84.0 0 0,0 -0.049501252012607466,-1.4411749417435205 l 62.97911345340172 -1.6221185602643071" fill="#4dd2ff" stroke="none" /><line stroke="#e1ed5e" stroke-width="0.3" x1="15.003131293944662" x2="10.003315487706104" y1="100.72959589197737" y2="100.7725132973878" /><path d="M 14.003168132696942 100.73817937305945 a86.0,86.0 0 0,1 10.791469493833604,-42.45332614584628" fill="none" id="id34" stroke="none" /><text fill="#e1ed5e" style="font-size:6.75px; font-family:Arial;" text-anchor="middle"><textPath startOffset="22.145653131862435" xlink:href="#id34">October</textPath></text><path d="M 79.13060592940154 97.66154086499901 l -14.822836300647747 -1.6609297249654185 a35.91560134714904,35.91560134714904 0 0,0 0.0739141600453918,-0.6121152771067521 l 14.792140054342688 1.9151386789956066" fill="#ff920d" stroke="none" /><path d="M 79.34024301695615 96.23510406497455 l -16.956531242686935 -3.090044844192471 a38.23578628677377,38.23578628677377 0 0,0 0.12321702026347389,-0.6447235165752837 l 16.9009879301413 3.380670925801069" fill="#ffb310" stroke="none" /><path d="M 79.407916724674 95.88100663000787 l -14.51800227671587 -2.904007055710425 a35.80559512773273,35.80559512773273 0 0,0 0.12573269285785285,-0.6016764510720091 l 14.46601187303365 3.152799958067843" fill="#ff900d" stroke="none" /><path d="M 79.64726062577567 94.8264132398404 l -20.723840051784784 -5.2679191012175535 a42.38290247251135,42.38290247251135 0 0,0 0.18529506100018786,-0.7035955277706841 l 20.63035550997987 5.6228951333610215" fill="#ffeb16" stroke="none" /><path d="M 79.73907114497095 94.47779374421319 l -20.553607586039774 -5.6019771454082905 a42.303354964385036,42.303354964385036 0 0,0 0.19697551612960879,-0.6989966173790352 l 20.454413577835584 5.953981686690338" fill="#ffea16" stroke="none" /><path d="M 79.94057633289273 93.78553927170692 l -16.26678330046174 -5.03949104789764 a38.02952462536818,38.02952462536818 0 0,0 0.1985417971980018,-0.6219293519212957 l 16.17787678748648 5.317989433510327" fill="#ffb010" stroke="none" /><path d="M 80.05021161711548 93.44210830539832 l -20.207070585177377 -6.6424654647692245 a42.270826243589894,42.270826243589894 0 0,0 0.23251888920552843,-0.6874007800371245 l 20.090066274399483 6.988367919280511" fill="#ffe915" stroke="none" /><path d="M 80.28708602549916 92.7611449362534 l -8.359661631018591 -3.0697835442889887 a29.90547660678034,29.90547660678034 0 0,0 0.18109804810893515,-0.48038408835137997 l 8.30573289909522 3.2128359128345134" fill="#ff3a05" stroke="none" /><path d="M 80.68587082218212 91.75594674310238 l -8.175726160035596 -3.4897313389906333 a29.889360104204563,29.889360104204563 0 0,0 0.20547670891622127,-0.47017092154984363 l 8.114615569102398 3.629564330316344" fill="#ff3a05" stroke="none" /><path d="M 81.1358732173502 90.77261029715801 l -14.25020004818638 -6.970486930198787 a36.86366570050577,36.86366570050577 0 0,0 0.2829375636638465,-0.5660646596876849 l 14.12844257131079 7.214083446050242" fill="#ff9f0e" stroke="none" /><path d="M 81.29705330413844 90.45014215332179 l -15.588824975223892 -7.959765107124872 a38.503408944224745,38.503408944224745 0 0,0 0.3056289327600187,-0.586083777252655 l 15.449887973488933 8.226195127482013" fill="#ffb610" stroke="none" /><path d="M 81.46374523516351 90.13048839642627 l -18.78522618138286 -10.002074859513863 a42.2820634380464,42.2820634380464 0 0,0 0.34662161184373547,-0.6377447249867002 l 18.610759219923775 10.323074417975182" fill="#ffe915" stroke="none" /><line stroke="#e1ed5e" stroke-width="0.3" x1="26.387840678322718" x2="22.05771365940052" y1="57.49999999999999" y2="54.99999999999999" /><path d="M 25.521815274538284 56.99999999999999 a86.0,86.0 0 0,1 29.574782752854787,-30.34633250058573" fill="none" id="id35" stroke="none" /><text fill="#e1ed5e" style="font-size:6.75px; font-family:Arial;" text-anchor="middle"><textPath startOffset="21.40746469413373" xlink:href="#id35">November</textPath></text><path d="M 81.99639281039701 89.18935116829357 l -13.27818054926303 -7.973165906717544 a36.48810683314362,36.48810683314362 0 0,0 0.32705860106531937,-0.5342256454321002 l 13.139353983742318 8.199928668274188" fill="#ff9a0e" stroke="none" /><path d="M 82.18462484594161 88.88188828441811 l -18.095806807738445 -11.293121808113675 a42.330560803595525,42.330560803595525 0 0,0 0.3900102199547755,-0.6131608447446079 l 17.899278896157778 11.602096327536955" fill="#ffea16" stroke="none" /><path d="M 82.576782715395 88.27688183743585 l -15.9666651889489 -10.743084908752039 a40.244434795874064,40.244434795874064 0 0,0 0.3905823260698121,-0.5698712864300859 l 15.779893126063776 11.01559093025216" fill="#ffce13" stroke="none" /><path d="M 82.78059297857968 87.97951657250589 l -12.141261091186694 -8.475543179503221 a35.80692584812889,35.80692584812889 0 0,0 0.3561679132252853,-0.5009947740811329 l 11.993978079431438 8.682715180293874" fill="#ff900d" stroke="none" /><path d="M 83.2033758604659 87.39550010848427 l -13.079831229678154 -9.81534920028849 a37.353075090650925,37.353075090650925 0 0,0 0.3892688868250026,-0.5095654685530643 l 12.909410365498845 10.038435582082437" fill="#ffa60f" stroke="none" /><path d="M 83.42222388311158 87.10902102172516 l -31.847141862524985 -24.76453013801489 a61.34256310360609,61.34256310360609 0 0,0 0.6535424093697636,-0.8257294846925939 l 31.417333022513663 25.307579566622167" fill="#33ff2f" stroke="none" /><path d="M 83.8745106332314 86.54754324733833 l -16.436770331932063 -13.7121384048922 a42.405376861424365,42.405376861424365 0 0,0 0.47111452182380564,-0.5549717221078275 l 16.198961246601144 13.992276909449583" fill="#ffeb16" stroke="none" /><path d="M 84.10781606972428 86.27271002978789 l -5.604234123340597 -4.8408039580699205 a28.405459004658695,28.405459004658695 0 0,0 0.3219135698231686,-0.36627854959981054 l 5.520309489558836 4.936294785481031" fill="#ff2303" stroke="none" /><path d="M 84.34580500576568 86.00192230759919 l -15.996057027446817 -14.303772830525347 a42.45860567727097,42.45860567727097 0 0,0 0.49050263601688304,-0.5391483203972606 l 15.748156690588068 14.576258726480265" fill="#ffec16" stroke="none" /><path d="M 84.58840730492382 85.73525988315684 l -15.843646099309332 -14.66464229761857 a42.58872056045155,42.58872056045155 0 0,0 0.5012168492929383,-0.5322749248155855 l 15.589573416280121 14.934458682378667" fill="#ffed16" stroke="none" /><path d="M 85.08716467003674 85.21462403516908 l -22.418865030290462 -22.227251950649805 a52.56986282079867,52.56986282079867 0 0,0 0.640871887608724,-0.6353943830216743 l 22.034001222551762 22.60882634390015" fill="#94ff23" stroke="none" /><path d="M 85.60350026404147 84.71141617570332 l -14.693157134556733 -15.603623701263304 a42.43273055845665,42.43273055845665 0 0,0 0.5345922489344894,-0.4948106046149004 l 14.423135114308291 15.85355205201057" fill="#ffeb16" stroke="none" /><path d="M 85.86807049272753 84.46653392183569 l -9.976942898911336 -10.966407949053846 a35.825703791497006,35.825703791497006 0 0,0 0.4584580736876693,-0.40995603648428197 l 9.787219798400274 11.136059515421529" fill="#ff910d" stroke="none" /><path d="M 86.40962598614128 83.9905735841838 l -13.779038393717139 -16.23167258089958 a42.29152633864135,42.29152633864135 0 0,0 0.5574942827620739,-0.465081558651379 l 13.498369776793156 16.46581632346284" fill="#ffe915" stroke="none" /><path d="M 87.25179093698888 83.31218511350988 l -19.02470154042401 -24.903945017538835 a52.339204618796714,52.339204618796714 0 0,0 0.7186596768865989,-0.5392956194116062 l 18.594388874626663 25.226859664214444" fill="#97ff23" stroke="none" /><path d="M 88.12776184653039 82.6780497279521 l -12.039558735305592 -17.56607600138278 a42.295962073295236,42.295962073295236 0 0,0 0.6024228216491221,-0.40533695968184763 l 11.73623962555948 17.770162635121736" fill="#ffea15" stroke="none" /><path d="M 88.4268655584334 82.4767994020092 l -11.7819525355778 -17.83937780722687 a42.378910311322855,42.378910311322855 0 0,0 0.6104871075460017,-0.3957103674153338 l 11.47397979577477 18.03900201634611" fill="#ffeb16" stroke="none" /><path d="M 88.72937992617638 82.28071324371311 l -11.46874238358092 -18.030767934466336 a42.36915169508431,42.36915169508431 0 0,0 0.6170479248146443,-0.38508354175154047 l 11.157530329976577 18.224987273059412" fill="#ffeb16" stroke="none" /><path d="M 89.03521579738668 82.08984904055464 l -13.516341481695001 -22.077928017851374 a46.886799582242986,46.886799582242986 0 0,0 0.6900559000346611,-0.4143587410544007 l 13.135352825102904 22.306700759441696" fill="#d9ff1c" stroke="none" /><line stroke="#e1ed5e" stroke-width="0.3" x1="56.869717070023135" x2="54.33264160355391" y1="26.7553504044142" y2="22.446841604673864" /><path d="M 56.362301976729285 25.89364864446614 a86.0,86.0 0 0,1 42.16139366436587,-11.88097634709845" fill="none" id="id36" stroke="none" /><text fill="#e1ed5e" style="font-size:6.75px; font-family:Arial;" text-anchor="middle"><textPath startOffset="22.145653131862474" xlink:href="#id36">December</textPath></text><path d="M 89.65649057296885 81.72400993836675 l -10.51936256030131 -18.58670569819984 a42.357027353697035,42.357027353697035 0 0,0 0.6358713831278061,-0.3527071373456898 l 10.198746989017401 18.764545750978677" fill="#ffea16" stroke="none" /><path d="M 89.97174638481275 81.54914285379989 l -9.19739261533197 -16.92216648829111 a40.26010772498445,40.26010772498445 0 0,0 0.6100579312251376,-0.32482148672775435 l 8.905545868320269 17.07755844274144" fill="#ffce13" stroke="none" /><path d="M 90.28995756902619 81.37971332152246 l -9.475999609081235 -18.17147870779571 a41.49383339005128,41.49383339005128 0 0,0 0.6344066842046423,-0.323932573281484 l 9.162665703163011 18.33146923275003" fill="#ffdf14" stroke="none" /><path d="M 90.93487009805054 81.0573650232925 l -9.212355687699928 -19.25028024476155 a42.34105870894305,42.34105870894305 0 0,0 0.6583254064332555,-0.3081295310092172 l 8.88054156739515 19.405586007341313" fill="#ffea16" stroke="none" /><path d="M 91.5904679813234 80.7573450057729 l -11.850337877779788 -27.115892161502597 a50.59226445427555,50.59226445427555 0 0,0 0.7987914457495019,-0.3409565691150207 l 11.383111356859855 27.31532338027702" fill="#acff21" stroke="none" /><path d="M 92.25597844496254 80.48000691201159 l -5.692356105091085 -14.34845590705603 a36.43635659551498,36.43635659551498 0 0,0 0.5833768448137605,-0.22566269593594865 l 5.445206997783796 14.444058491130018" fill="#ff990e" stroke="none" /><path d="M 92.93061703081487 80.22567764915836 l -7.47935856834624 -20.921097067833077 a43.21785559219404,43.21785559219404 0 0,0 0.7007347797016478,-0.2437519313030463 l 7.119118016599588 21.046407431704708" fill="#fff617" stroke="none" /><path d="M 95.00130118170881 79.60360301121753 l -5.282253861153756 -21.55339832705739 a43.191241184270744,43.191241184270744 0 0,0 0.7216389415059691,-0.1703048252744427 l 4.911482765907881 21.640899295978063" fill="#fff517" stroke="none" /><path d="M 95.35216902796891 79.52079915486377 l -4.916980511216689 -21.665123376210758 a43.21608129833249,43.21608129833249 0 0,0 0.7248727637960166,-0.15798264506894538 l 4.544345330801554 21.74633747941342" fill="#fff617" stroke="none" /><path d="M 96.05791012581881 79.37332000966035 l -4.211088461533048 -22.03419426734805 a43.432988722907396,43.432988722907396 0 0,0 0.7335320246706996,-0.13367397013238558 l 3.8322217033113097 22.103236411411796" fill="#fff917" stroke="none" /><path d="M 96.41257539226777 79.30868818359171 l -3.793273075137662 -21.878591074301355 a43.204991961697786,43.204991961697786 0 0,0 0.7318565533898597,-0.12042671735622164 l 3.4171390186947295 21.940483790153245" fill="#fff617" stroke="none" /><path d="M 96.76829788921471 79.25015418208739 l -2.3328689623692944 -14.978692225687197 a36.159271037469054,36.159271037469054 0 0,0 0.6141478180282082,-0.09025857990851667 l 2.0753960387334014 15.0165318788946" fill="#ff950d" stroke="none" /><path d="M 97.48249496171623 79.15144685158666 l -2.661730481527513 -22.0429467139056 a43.20306981001443,43.20306981001443 0 0,0 0.7370528025505976,-0.0825883038708227 l 2.282941777376116 22.085390778283394" fill="#fff617" stroke="none" /><path d="M 98.1996594967304 79.07731436759882 l -1.9027197243034755 -22.11248736884598 a43.19419834070666,43.19419834070666 0 0,0 0.7393016252132782,-0.05722662146176228 l 1.52284910431498 22.141891757302794" fill="#fff517" stroke="none" /><path d="M 98.5590905019552 79.04949213459386 l -1.523204187214624 -22.14705458473363 a43.19937336446953,43.19937336446953 0 0,0 0.7402637375972336,-0.0445324282168265 l 1.1427960974849065 22.169938990775155" fill="#fff517" stroke="none" /><path d="M 99.27912038922189 79.0123766808444 l -0.27376286585920023 -7.97030713800272 a28.975007334217352,28.975007334217352 0 0,0 0.4972479460930705,-0.012807343231462936 l 0.13690160569538581 7.973832198584228" fill="#ff2c04" stroke="none" /><path d="M 99.63950707515114 79.00309439819443 l -0.38114267974937266 -22.199650300687875 a43.20292195219264,43.20292195219264 0 0,0 0.7416356045982193,-0.006366049699198918 l 5.4381474600942435e-15 22.20292195219264" fill="#fff517" stroke="none" /></svg>