<?xml version="1.0" encoding="utf-8" ?>
<svg baseProfile="full" height="200mm" version="1.1" viewBox="0,0,200,200" width="200mm" xmlns="http://www.w3.org/2000/svg" xmlns:ev="http://www.w3.org/2001/xml-events" xmlns:xlink="http://www.w3.org/1999/xlink"><defs /><rect fill="#1a1a1a" height="200" width="200" x="0" y="0" /><rect fill="#1a1a1a" height="200" width="180" x="10" y="0" /><text alignment-baseline="middle" fill="#e1ed5e" style="dominant-baseline: central; font-size:9.0px; font-family:Arial;" text-anchor="middle" x="100.0" y="100.0">2025</text><line stroke="#e1ed5e" stroke-width="0.3" x1="100.0" x2="100.0" y1="15.0" y2="10.0" /><path d="M 100.0 14.0 a86.0,86.0 0 0,1 42.46469731375804,11.215312516191453" fill="none" id="id37" stroke="none" /><text fill="#e1ed5e" style="font-size:6.75px; font-family:Arial;" text-anchor="middle"><textPath startOffset="22.20632615414155" xlink:href="#id37">January</textPath></text><path d="M 100.0 79.0 l 0.0 -31.51742628239309 a52.51742628239309,52.51742628239309 0 0,0 0.9040011629866254,0.007781023413178696 l -0.542520683714097 31.51275663558847" fill="#bbff1f" stroke="none" /><path d="M 101.08401301168833 79.027996857942 l 1.6264855437086017 -31.467020751016648 a52.50902807401087,52.50902807401087 0 0,0 0.902250005126161,0.05442618424709738 l -2.1678975976743744 31.434361297389245" fill="#bcff1f" stroke="none" /><path d="M 101.44485096284872 79.0497635885617 l 3.139352626450665 -45.52039026456851 a66.62851591660446,66.62851591660446 0 0,0 1.143503371646269,0.08875786969232038 l -3.922446187459275 45.45960713268772" fill="#34ff57" stroke="none" /><path d="M 102.16513564639614 79.11191278185805 l 3.2476601761172113 -31.331713154572046 a52.49958008958089,52.49958008958089 0 0,0 0.8980760580921588,0.10090930921475055 l -3.7865029377190953 31.271167891886694" fill="#bcff1f" stroke="none" /><path d="M 102.52436894288641 79.15227682838746 l 3.7883453340028614 -31.286383483809022 a52.51490681987842,52.51490681987842 0 0,0 0.8964676489861562,0.11638722963220262 l -4.326327711496863 31.216537931012684" fill="#bbff1f" stroke="none" /><path d="M 102.88285421437855 79.19881850522331 l 4.333821533772163 -31.27060946763796 a52.5694951743628,52.5694951743628 0 0,0 0.8952610551218204,0.13193820764582118 l -4.871451569322639 31.19137677583117" fill="#bbff1f" stroke="none" /><path d="M 103.59715602781102 79.31037775812273 l 3.604372781332752 -20.731130562067666 a42.04213101205076,42.04213101205076 0 0,0 0.7119231860531565,0.13009941175272888 l -3.9606910884888094 20.666015668964196" fill="#ffac0f" stroke="none" /><path d="M 103.95276090670814 79.375362276772 l 5.93506923680855 -30.967886942950468 a52.5314932814333,52.5314932814333 0 0,0 0.8866155133234279,0.1778467311269818 l -6.467251159599103 30.861136255746278" fill="#bbff1f" stroke="none" /><path d="M 105.01212808612495 79.60689891045804 l 7.52480672714688 -30.616564786278712 a52.527714087661295,52.527714087661295 0 0,0 0.8761900639334352,0.2233603564822145 l -8.05070567976534 30.48250143362763" fill="#bbff1f" stroke="none" /><path d="M 105.71112130821622 79.79150937346287 l 5.9034689138631204 -20.889102116991765 a42.70726911592193,42.70726911592193 0 0,0 0.7057066741687178,0.20601512994102553 l -6.262165805755265 20.784388658132038" fill="#ffb610" stroke="none" /><path d="M 106.0581310904928 79.89281104454417 l 9.090406760390552 -30.171437970362195 a52.51112762610643,52.51112762610643 0 0,0 0.8632194929517256,0.26820649839728206 l -9.608411626052995 30.010491337082392" fill="#bcff1f" stroke="none" /><path d="M 106.40334571778207 80.00007090966166 l 19.21003715334621 -59.99978727101504 a84.0,84.0 0 0,0 1.37326871103033,0.45274510296305515 l -20.239988686618958 59.66022844379275" fill="#4dd2ff" stroke="none" /><path d="M 107.08798089147638 80.2323363322302 l 10.641042017677158 -29.676792714410702 a52.52687426682307,52.52687426682307 0 0,0 0.8484782915822869,0.3125017153926156 l -11.150302635032022 29.48922773121176" fill="#bbff1f" stroke="none" /><path d="M 107.4271985657038 80.35727306442388 l 8.35752904616978 -22.10317382224217 a44.63045883544844,44.63045883544844 0 0,0 0.7162483800635943,0.27789324387845205 l -8.736760591233041 21.95603787447317" fill="#ffd313" stroke="none" /><path d="M 107.76421540070413 80.48803036053334 l 11.653930409256478 -29.28707211101428 a52.52057561053642,52.52057561053642 0 0,0 0.8371182778737745,0.3414815643329029 l -12.15633255671864 29.0821296604978" fill="#bbff1f" stroke="none" /><path d="M 108.43124777332544 80.76684994638697 l 12.682106758859558 -28.930102500460706 a52.58776127759411,52.58776127759411 0 0,0 0.8259230485309894,0.3705675967968539 l -13.178211925857326 28.707514573147318" fill="#baff1f" stroke="none" /><path d="M 109.08828744355905 81.06846463323043 l 9.09625314286872 -18.948128472911787 a42.01840607337101,42.01840607337101 0 0,0 0.6493419088205844,0.31862925459731284 l -9.421066318699737 18.788744058179642" fill="#ffab0f" stroke="none" /><path d="M 109.41281617654863 81.2277094730956 l 9.806062495964527 -19.556554664039385 a42.877332835661726,42.877332835661726 0 0,0 0.6569205790495449,0.33650023552289565 l -10.141243562602826 19.38486190320399" fill="#ffb811" stroke="none" /><path d="M 109.73455568895987 81.39251694778311 l 19.708270839031403 -37.67211646256054 a63.51592993494721,63.51592993494721 0 0,0 0.9643985182913639,0.5151482892355032 l -20.35381440385108 37.32728944682328" fill="#32ff2f" stroke="none" /><path d="M 110.05341064243156 81.56283822128135 l 11.108358056644002 -20.37185208787442 a44.20361989442253,44.20361989442253 0 0,0 0.6648980333554395,0.3700150356924755 l -11.457380179071476 20.177621654621763" fill="#ffcc13" stroke="none" /><path d="M 110.36928655335952 81.73862282372117 l 12.095266298327575 -21.301004537263225 a45.49547429881625,45.49547429881625 0 0,0 0.6776730008909237,0.39255194288158834 l -12.460136031683827 21.089648436991588" fill="#ffe015" stroke="none" /><line stroke="#e1ed5e" stroke-width="0.3" x1="143.23703022742887" x2="145.7803849466894" y1="26.81831364943548" y2="22.513508569990506" /><path d="M 143.74570117128098 25.957352633546492 a86.0,86.0 0 0,1 28.547481713284135,27.462654790039103" fill="none" id="id38" stroke="none" /><text fill="#e1ed5e" style="font-size:6.75px; font-family:Arial;" text-anchor="middle"><textPath startOffset="19.985693538727396" xlink:href="#id38">February</textPath></text><path d="M 110.99172775467656 82.1063720568725 l 15.88185682160328 -25.85435550756624 a51.34272688493121,51.34272688493121 0 0,0 0.7490680086916482,0.46906631832307893 l -16.32454398266719 25.577144847920216" fill="#cbff1d" stroke="none" /><path d="M 111.90073688211348 82.69761687909136 l 17.185758057472434 -24.986231783726573 a51.32593046816679,51.32593046816679 0 0,0 0.7236195115961386,0.506941711349625 l -17.613308708652223 24.68670522961301" fill="#ccff1d" stroke="none" /><path d="M 112.19680574252982 82.90503203632743 l 15.864659810271771 -22.235809681339333 a48.31517276314386,48.31517276314386 0 0,0 0.6728570745598706,0.48885927993701705 l -16.24506220118543 21.95943116658564" fill="#f6ff19" stroke="none" /><path d="M 112.48926042617603 83.11751280151076 l 18.04500510379948 -24.392522636734235 a51.34167710888344,51.34167710888344 0 0,0 0.7059574636992989,0.5317125256252161 l -18.462208721257163 24.07829352160317" fill="#cbff1d" stroke="none" /><path d="M 113.06298171725822 83.55741782278167 l 21.376666859577192 -26.907149464141714 a55.36504878959155,55.36504878959155 0 0,0 0.7410917644316818,0.5992446673594352 l -21.836662022573364 26.535198699518148" fill="#96ff23" stroke="none" /><path d="M 113.6212207817346 84.01681056812373 l 20.46151910048148 -24.00962006911268 a52.54577023568305,52.54577023568305 0 0,0 0.6833607479165391,0.5926037066445923 l -20.871773647044783 23.653851369048418" fill="#bbff1f" stroke="none" /><path d="M 113.89432698308785 84.25364557470407 l 18.080998721459896 -20.491083488820916 a48.32777007571718,48.32777007571718 0 0,0 0.6190304354454872,0.5557716370121517 l -18.431040144501374 20.176812843039468" fill="#f5ff19" stroke="none" /><path d="M 114.16331599549186 84.49514656593476 l 21.24667322865368 -23.25914033667035 a52.502519462514655,52.502519462514655 0 0,0 0.6620120587895951,0.6152680599643708 l -21.643893171238123 22.889967690631337" fill="#bcff1f" stroke="none" /><path d="M 114.42810811169701 84.74124197986012 l 20.89307031956599 -22.09591873279407 a51.409702596779354,51.409702596779354 0 0,0 0.6377661413030093,0.6135305226320434 l -21.270319704481416 21.733005123399725" fill="#caff1d" stroke="none" /><path d="M 114.94478906791727 85.2469230424477 l 31.56562738437335 -31.160702763935344 a65.35513757065159,65.35513757065159 0 0,0 0.783439222720599,0.8074029852654735 l -32.09733087079706 30.612735583119758" fill="#32ff46" stroke="none" /><path d="M 115.4437574822437 85.77008943001954 l 23.188488109370248 -21.365921630715444 a52.53107337101418,52.53107337101418 0 0,0 0.6069999532734389,0.6702645091191459 l -23.55283170325972 20.96360433432675" fill="#bbff1f" stroke="none" /><path d="M 115.68641384162765 86.03803664274999 l 23.59486232582247 -21.001014415306905 a52.587341367175,52.587341367175 0 0,0 0.5960102437236597,0.6813427393644536 l -23.952864433123978 20.591756119739504" fill="#baff1f" stroke="none" /><path d="M 115.9244219780498 86.31012108654704 l 17.791427567483368 -15.294902975570624 a44.46207475738508,44.46207475738508 0 0,0 0.49393000682096655,0.5846573345320716 l -18.05206818779145 14.986386691409447" fill="#ffd013" stroke="none" /><path d="M 116.38621287248628 86.86637796730983 l 23.116014946556216 -18.527588135990154 a50.624680068252104,50.624680068252104 0 0,0 0.5391430056428888,0.6846568663370293 l -23.431512032793066 18.126938875700084" fill="#d5ff1c" stroke="none" /><path d="M 116.60985879189232 87.15038557335679 l 30.363818693380924 -23.4898663269127 a59.38926029113789,59.38926029113789 0 0,0 0.6185647675221203,0.8139587267120707 l -30.763659401127157 22.963722824319596" fill="#63ff29" stroke="none" /><path d="M 117.04232023915458 87.72973835380427 l 8.539789082193408 -6.148543447804438 a31.52295510291138,31.52295510291138 0 0,0 0.31325918649839984,0.44308290369571957 l -8.64436088849569 6.000634043776926" fill="#ff0000" stroke="none" /><path d="M 117.2510076193507 88.02491185347247 l 25.872717016824396 -17.95999826230999 a52.49538098538979,52.49538098538979 0 0,0 0.5088940587630543,0.7467392370061312 l -26.178035541256182 17.511981002033455" fill="#bcff1f" stroke="none" /><path d="M 117.65298651832404 88.62581576622439 l 18.388723725713668 -11.848234929719137 a42.875233283566175,42.875233283566175 0 0,0 0.3943958035667564,0.6238394468855145 l -18.58994712552638 11.529947835119415" fill="#ffb811" stroke="none" /><line stroke="#e1ed5e" stroke-width="0.3" x1="172.23445277983987" x2="176.4835382374775" y1="55.19839476539836" y2="52.563006222186495" /><path d="M 173.08426987136738 54.67131705675599 a86.0,86.0 0 0,1 12.851231095245387,41.99856678651699" fill="none" id="id39" stroke="none" /><text fill="#e1ed5e" style="font-size:6.75px; font-family:Arial;" text-anchor="middle"><textPath startOffset="22.20632615414155" xlink:href="#id39">March</textPath></text><path d="M 118.03404312379186 89.2402003453031 l 25.264452496484953 -15.073738339305217 a50.419553828516584,50.419553828516584 0 0,0 0.43826675090087014,0.7491399435441977 l -25.52017892185615 14.636618983407125" fill="#d8ff1c" stroke="none" /><path d="M 118.56541770881063 90.18545643968196 l 27.86520310451258 -14.730842794695661 a52.519315879279084,52.519315879279084 0 0,0 0.41562927981049014,0.8028634764511433 l -28.114641817483186 14.249006595984174" fill="#bbff1f" stroke="none" /><path d="M 118.73160827565052 90.50648371742162 l 28.093292338604442 -14.238186295752753 a52.49538098538979,52.49538098538979 0 0,0 0.4015646343570915,0.8095297990577635 l -28.334216985914942 13.752496908196038" fill="#bcff1f" stroke="none" /><path d="M 119.04729006885535 91.15688171328212 l 28.58026628476472 -13.269009633833845 a52.510287805268206,52.510287805268206 0 0,0 0.3735673968426136,0.8231062407077769 l -28.80443599857068 12.775081384284004" fill="#bcff1f" stroke="none" /><path d="M 119.196687751892 91.48605970444005 l 28.833032962635336 -12.78776444960379 a52.54157113149195,52.54157113149195 0 0,0 0.35955770909795265,0.8299087661466541 l -29.048881381575967 12.289556538870533" fill="#bbff1f" stroke="none" /><path d="M 119.47837535516314 92.15188598940014 l 19.49700569311414 -7.8556204382987485 a42.02008571504746,42.02008571504746 0 0,0 0.264539350764433,0.6732237930091501 l -19.629338593760274 7.5188476403938145" fill="#ffab0f" stroke="none" /><path d="M 119.7369772167798 92.82701384747503 l 12.398689840786554 -4.506041100447918 a34.19211568198784,34.19211568198784 0 0,0 0.19627400981229676,0.554893056281773 l -12.47441693140866 4.29195041773953" fill="#ff2d04" stroke="none" /><path d="M 120.45610955862082 95.25157060432595 l 30.70297994472906 -7.127011716795466 a52.519315879279084,52.519315879279084 0 0,0 0.19683642621487055,0.8823791029767093 l -30.821110757945966 6.597454444268793" fill="#bbff1f" stroke="none" /><path d="M 120.53481517161879 95.60439243477599 l 20.55671430265389 -4.400295213262007 a42.02239522235256,42.02239522235256 0 0,0 0.14531885373264347,0.7086263397408276 l -20.629412452301533 4.045793217357768" fill="#ffab0f" stroke="none" /><path d="M 120.67395015179393 96.31383870115 l 34.40651736563818 -6.134675367320668 a55.94914418257438,55.94914418257438 0 0,0 0.16088879365344333,0.9495747675350368 l -34.50701802081185 5.541514811469794" fill="#8eff24" stroke="none" /><path d="M 120.78858239683441 97.02765380044208 l 31.20033227994556 -4.461015537613665 a52.517636237602645,52.517636237602645 0 0,0 0.1202503843013858,0.8960050372406256 l -31.27249866330478 3.923292158308375" fill="#bbff1f" stroke="none" /><path d="M 120.83666639777658 97.38593545837742 l 29.23239914420126 -3.6673514184384475 a50.46154487042764,50.46154487042764 0 0,0 0.10070597773396099,0.8627873171204025 l -29.29119547493881 3.1636203629931923" fill="#d7ff1c" stroke="none" /><path d="M 120.91429891909075 98.10471618934814 l 23.046823612917745 -2.0885362616979894 a44.1412631971846,44.1412631971846 0 0,0 0.062061599083638806,0.7573087050864057 l -23.07935969582088 1.6915136394038148" fill="#ffcb13" stroke="none" /><path d="M 120.94382443527127 98.46500227214037 l 31.44128266890118 -2.3043688895939067 a52.525614535565744,52.525614535565744 0 0,0 0.05832696609996549,0.9022923494402076 l -31.476290226005563 1.762817475900664" fill="#bbff1f" stroke="none" /><path d="M 120.98425023603335 99.18683210126433 l 21.0154401675322 -0.8143765504994124 a42.03121334115389,42.03121334115389 0 0,0 0.0217927949170691,0.7231967676241688 l -21.026344656904918 0.4525096354502444" fill="#ffab0f" stroke="none" /><line stroke="#e1ed5e" stroke-width="0.3" x1="184.98032266829074" x2="189.97916517819016" y1="98.17113171792111" y2="98.06355123074" /><path d="M 185.9800911702706 98.14961562048488 a86.0,86.0 0 0,1 -9.607161424134198,41.387399972396054" fill="none" id="id40" stroke="none" /><text fill="#e1ed5e" style="font-size:6.75px; font-family:Arial;" text-anchor="middle"><textPath startOffset="21.466115282336823" xlink:href="#id40">April</textPath></text><path d="M 120.99980553446 99.90962569577887 l 31.4955092363837 -0.13554338532599877 a52.4958008958089,52.4958008958089 0 0,0 -0.0038889457020628592,0.9036540218067349 l -31.493175993392136 -0.4066201146844209" fill="#bcff1f" stroke="none" /><path d="M 120.9904718944345 100.63252640178507 l 31.524531932183812 0.949959526937066 a52.53884171376773,52.53884171376773 0 0,0 -0.03502055840290403,0.9037250020258357 l -31.503509240929706 -1.4924617759769079" fill="#bbff1f" stroke="none" /><path d="M 120.95626037817324 101.35467743843564 l 31.509397977832787 2.0368648684914152 a52.57516396502079,52.57516396502079 0 0,0 -0.0661531790829788,0.9026075696417607 l -31.469668240085472 -2.5789455746299463" fill="#bbff1f" stroke="none" /><path d="M 120.89721153311464 102.0752229133903 l 23.61925886296201 2.345539121908393 a44.73543644022608,44.73543644022608 0 0,0 -0.08269174685502632,0.7656228761288756 l -23.57538481460593 -2.7517583199220605" fill="#ffd413" stroke="none" /><path d="M 120.8583938346157 102.4346265915055 l 23.46652722174238 2.739052279736308 a44.625839820838216,44.625839820838216 0 0,0 -0.09562359240617263,0.7622141163690119 l -23.415902120089356 -3.1425841503927145" fill="#ffd313" stroke="none" /><path d="M 120.76222939487914 103.15116336523771 l 30.009760576214475 4.554696720124175 a51.353434600618534,51.353434600618534 0 0,0 -0.14016613232522682,0.8728146397882091 l -29.92691268952796 -5.070590589605589" fill="#cbff1d" stroke="none" /><path d="M 120.64145759157962 103.86396538481128 l 45.02179923128743 8.427828946662336 a66.80382851658312,66.80382851658312 0 0,0 -0.22131175368480613,1.128463864074516 l -44.87005754462697 -9.201556537804796" fill="#34ff5a" stroke="none" /><path d="M 120.49622156327973 104.57218783832717 l 30.774250445873783 6.864955727954342 a52.53065346059507,52.53065346059507 0 0,0 -0.20446789929368037,0.880842358735076 l -30.651521980649548 -7.393666744037983" fill="#bbff1f" stroke="none" /><path d="M 120.41448212921028 104.9243191809786 l 20.429925792706516 4.9280444544338735 a42.015886610856356,42.015886610856356 0 0,0 -0.1756437840140395,0.7016096065458581 l -20.342070694397414 -5.2789819003771274" fill="#ffab0f" stroke="none" /><path d="M 120.32669344350535 105.2749913415812 l 30.53637514151428 7.924511427422071 a52.54786978777861,52.54786978777861 0 0,0 -0.23474365471111036,0.8735684659630567 l -30.395443410461393 -8.448970826560675" fill="#bbff1f" stroke="none" /><path d="M 120.13307415673323 105.97154293290107 l 22.71955529298386 6.7387026338995435 a44.69785445771569,44.69785445771569 0 0,0 -0.22513506324017776,0.7357544128964816 l -22.60019345723755 -7.128784019348082" fill="#ffd413" stroke="none" /><path d="M 120.02730092923936 106.31721596034902 l 43.397913812420065 13.68901354956989 a66.50569211901461,66.50569211901461 0 0,0 -0.3537714838676974,1.0887966718216808 l -43.15585007753612 -14.434009121369366" fill="#33ff56" stroke="none" /><path d="M 119.79798401119884 107.00284435728193 l 19.821472607991474 7.011152626821729 a42.02491468486723,42.02491468486723 0 0,0 -0.2470979712812514,0.6799074926101444 l -19.697850375704995 -7.351307916438004" fill="#ffab0f" stroke="none" /><path d="M 119.54520255179757 107.68017299344265 l 25.576868317422413 10.05028076776009 a48.48061746827343,48.48061746827343 0 0,0 -0.3118859371024349,0.7740753183087056 l -25.400079766062586 -10.48905545391161" fill="#f3ff19" stroke="none" /><path d="M 119.41010516605496 108.01547362559984 l 19.43449199568998 8.02554425572158 a42.02638437133412,42.02638437133412 0 0,0 -0.2818750001303473,0.6662692357791687 l -19.293466014367326 -8.358888017166912" fill="#ffab0f" stroke="none" /><path d="M 119.26925614724726 108.34839909993367 l 41.63776058878659 18.03954653809185 a66.37761944118589,66.37761944118589 0 0,0 -0.46324913825812264,1.0445045125711996 l -41.32107036579719 -18.75359938715574" fill="#33ff54" stroke="none" /><path d="M 118.97047184881838 109.00673069616215 l 28.497054581205614 13.529726529324044 a52.54577023568305,52.54577023568305 0 0,0 -0.39496089097019266,0.8137364189502495 l -28.259940433620706 -14.01825190423957" fill="#bbff1f" stroke="none" /><path d="M 118.81262510543309 109.33194174019688 l 28.243012682279435 14.00985494802405 a52.52687426682307,52.52687426682307 0 0,0 -0.40876246022160095,0.8065271133218679 l -27.997671552271562 -14.493936273048613" fill="#bbff1f" stroke="none" /><path d="M 118.64920377521936 109.65438752849418 l 28.008858687947754 14.49972767006768 a52.53947157939639,52.53947157939639 0 0,0 -0.42268628297754934,0.7995631539087557 l -27.75511989674531 -14.97970583906257" fill="#bbff1f" stroke="none" /><line stroke="#e1ed5e" stroke-width="0.3" x1="174.80103733775053" x2="179.2010983576182" y1="140.37084112569926" y2="142.7455964860345" /><path d="M 175.68104954172406 140.8457921977663 a86.0,86.0 0 0,1 -30.038265399797805,32.042727171017184" fill="none" id="id41" stroke="none" /><text fill="#e1ed5e" style="font-size:6.75px; font-family:Arial;" text-anchor="middle"><textPath startOffset="22.206326154141568" xlink:href="#id41">May</textPath></text><path d="M 118.30583269289576 110.29060199501025 l 29.317492875615727 16.480793621127834 a54.63230510824357,54.63230510824357 0 0,0 -0.467881477110084,0.8157907931885037 l -29.02945940235326 -16.983004260174653" fill="#9fff22" stroke="none" /><path d="M 118.12598468904814 110.60418214915192 l 18.140240755709303 10.612522326538086 a42.016516476485016,42.016516476485016 0 0,0 -0.37058392323740774,0.6211199712933341 l -17.95487595677367 -10.923204391717524" fill="#ffab0f" stroke="none" /><path d="M 117.94076556474637 110.91462005526583 l 26.925139159553396 16.380441670736438 a52.51637650634531,52.51637650634531 0 0,0 -0.4764869867128301,0.7682487393405638 l -26.639187533172603 -16.841486741442274" fill="#bbff1f" stroke="none" /><path d="M 117.35343817320211 111.8261652097733 l 26.043863551950988 17.748588492497717 a52.516586461554866,52.516586461554866 0 0,0 -0.5155105472441028,0.7426313918985519 l -25.73449209754475 -18.19426114658329" fill="#bbff1f" stroke="none" /><path d="M 117.14729908036423 112.12312394758627 l 25.724034476064972 18.186867618261303 a52.50377919377199,52.50377919377199 0 0,0 -0.5280885305892393,0.733468781060324 l -25.407166153100132 -18.626970004772758" fill="#bcff1f" stroke="none" /><path d="M 116.71984013943494 112.70617746262583 l 25.729688942310556 19.553177006045715 a53.316305854750986,53.316305854750986 0 0,0 -0.5615811136279668,0.7259192912600825 l -25.389301011464518 -19.99317429141905" fill="#b1ff20" stroke="none" /><path d="M 116.498646956653 112.99209946851258 l 35.956080005710994 28.314138072008348 a66.76603657886318,66.76603657886318 0 0,0 -0.7187907120748278,0.8968019324377964 l -35.46337138158131 -28.928867838024395" fill="#34ff59" stroke="none" /><path d="M 116.0416608686014 113.55231037782055 l 24.07500112961657 20.339034114202065 a52.51637650634531,52.51637650634531 0 0,0 -0.5893274997105452,0.6855210223545122 l -23.721331120335247 -20.750432235718105" fill="#bbff1f" stroke="none" /><path d="M 115.80600337817218 113.82643327865902 l 23.736975726163728 20.7641174851441 a52.537162072091284,52.537162072091284 0 0,0 -0.6012781889818147,0.6755424194273861 l -23.376038687533576 -21.169634074312352" fill="#bbff1f" stroke="none" /><path d="M 115.56566222782051 114.09645910891815 l 17.593227926593418 15.932648057712996 a44.73543644022608,44.73543644022608 0 0,0 -0.5218145640910691,0.5663266496927974 l -17.316366954506623 -16.23312596220713" fill="#ffd413" stroke="none" /><path d="M 114.29624159901734 115.38237550388516 l 14.87649756585919 16.006715482229172 a42.85234816572465,42.85234816572465 0 0,0 -0.544633858658796,0.4975101167406592 l -14.598764157733529 -16.260418365556415" fill="#ffb811" stroke="none" /><path d="M 113.20401910651253 116.32954008644616 l 19.81170517699425 24.50133033426276 a52.50902807401087,52.50902807401087 0 0,0 -0.7077279505258589,0.5622618867808468 l -19.38701973375104 -24.838726135048734" fill="#bcff1f" stroke="none" /><path d="M 112.92097659922987 116.55440617244103 l 19.999989306542304 25.62406516893717 a53.50526554335075,53.50526554335075 0 0,0 -0.7309106456530613,0.5604311154579379 l -19.55594993239575 -25.964535626222478" fill="#aeff20" stroke="none" /><path d="M 112.34349029814194 116.9893568818739 l 12.962836803983441 17.841814215021135 a43.05369521168817,43.05369521168817 0 0,0 -0.6033107588534838,0.43044620754780916 l -12.653798717281074 -18.06230468441316" fill="#ffbb11" stroke="none" /><path d="M 112.04921762599082 117.19931262002967 l 16.343686899976422 23.329330507752605 a49.484623280366854,49.484623280366854 0 0,0 -0.7018406838613077,0.48273242208483996 l -15.939689331492229 -23.607203719202538" fill="#e5ff1a" stroke="none" /><path d="M 111.7513745106137 117.40417183066458 l 15.934989784258061 23.600243535309506 a49.47622507198464,49.47622507198464 0 0,0 -0.7099256392869101,0.47050000265746 l -15.526389446231187 -23.871041559058284" fill="#e5ff1a" stroke="none" /><path d="M 111.45004920935366 117.60387380957326 l 11.475081310109962 17.64235940337685 a42.04591020582276,42.04591020582276 0 0,0 -0.6101025709149945,0.38939632676201347 l -11.169696937148037 -17.837270158962674" fill="#ffac0f" stroke="none" /><path d="M 111.1453310114006 117.79835938074945 l 25.083123400267702 40.056095616450264 a68.26154753652554,68.26154753652554 0 0,0 -1.001236975526635,0.6150415269549308 l -24.38990722480876 -40.481925610233574" fill="#36ff6e" stroke="none" /><line stroke="#e1ed5e" stroke-width="0.3" x1="143.8653032363475" x2="146.44561519142675" y1="172.8068346515853" y2="177.08958963109032" /><path d="M 144.38136562736335 173.6633856474863 a86.0,86.0 0 0,1 -40.68145358897372,12.25698825130547" fill="none" id="id42" stroke="none" /><text fill="#e1ed5e" style="font-size:6.75px; font-family:Arial;" text-anchor="middle"><textPath startOffset="21.466115282336833" xlink:href="#id42">June</textPath></text><path d="M 110.21172684928248 118.3499491758327 l 10.895017919453833 19.577788168688784 a43.40516023248374,43.40516023248374 0 0,0 -0.6559908430941161,0.3576985114331602 l -10.55640426449107 -19.762427331881717" fill="#ffc011" stroke="none" /><path d="M 109.89434966115114 118.52300852407294 l 13.411601298488536 25.107582982312792 a49.465097445878214,49.465097445878214 0 0,0 -0.7544819390156284,0.39470929147438183 l -12.977428456946413 -25.334721692731893" fill="#e5ff1a" stroke="none" /><path d="M 109.2508944713604 118.85261126421891 l 12.586857089895183 25.651046446233646 a49.57280446838008,49.57280446838008 0 0,0 -0.7692928089498345,0.3693072981429316 l -12.143451612945116 -25.86390802087614" fill="#e4ff1a" stroke="none" /><path d="M 108.92500713936063 119.00905698771935 l 18.85184085727764 40.1518689659086 a65.35723712274714,65.35723712274714 0 0,0 -1.0224735287161968,0.46936744787390894 l -18.157899332794024 -40.47042348411658" fill="#32ff46" stroke="none" /><path d="M 107.93186726928326 119.44442032107085 l 10.747766853130937 26.34740208203648 a49.45522955102911,49.45522955102911 0 0,0 -0.7909985374143884,0.31475464238653683 l -10.292647239674682 -26.528503568829088" fill="#e5ff1a" stroke="none" /><path d="M 107.59598834532513 119.57807347666477 l 7.598924834367659 19.58564205044668 a42.008118268102805,42.008118268102805 0 0,0 -0.676390274108089,0.25575292525259763 l -7.260664339499296 -19.71354322580591" fill="#ffab0f" stroke="none" /><path d="M 106.91757812671514 119.82793768551818 l 5.570574912847967 15.967006114162935 a37.910842353631224,37.910842353631224 0 0,0 -0.6180013708330125,0.20965961881556483 l -5.294903809077727 -16.060528719876622" fill="#ff6b09" stroke="none" /><path d="M 106.57524785965236 119.94407469862006 l 8.916763953855645 27.046373028295548 a49.478324624080194,49.478324624080194 0 0,0 -0.8111586213681968,0.2597073750171097 l -8.449883987396507 -27.195853249972366" fill="#e5ff1a" stroke="none" /><path d="M 106.2309692047433 120.05430185196036 l 7.936686226498746 25.54413223055868 a47.748713607763676,47.748713607763676 0 0,0 -0.7870011770444088,0.2371169987743835 l -7.4958100750140915 -25.67696459843879" fill="#feff18" stroke="none" /><path d="M 105.53697534728816 120.25689768951611 l 5.101345235049507 18.663154885800587 a40.34779247093954,40.34779247093954 0 0,0 -0.6715209085738894,0.17735477531292582 l -4.77933388366412 -18.748201010417098" fill="#ff910d" stroke="none" /><path d="M 105.18746579009965 120.34920634021253 l 3.803157323651031 14.918890312677808 a36.39601551668977,36.39601551668977 0 0,0 -0.6084143664556697,0.14953344862681117 l -3.54578967245215 -14.982145019618649" fill="#ff5207" stroke="none" /><path d="M 104.83641907484287 120.43548508189849 l 5.68496511373516 24.020875357378486 a45.684433987416014,45.684433987416014 0 0,0 -0.7668020222360025,0.17452164376786497 l -5.270642942106295 -24.115173734724035" fill="#ffe215" stroke="none" /><path d="M 104.13013068566511 120.58985236759428 l 8.098532421650924 40.37344085375246 a62.17767542924175,62.17767542924175 0 0,0 -1.0511946870490487,0.20146396363739158 l -7.402370120030172 -40.50686201573833" fill="#42ff2d" stroke="none" /><path d="M 103.7750983002368 120.6578951692458 l 3.82090563770869 20.90855968185386 a42.254815639330275,42.254815639330275 0 0,0 -0.7166236214383994,0.12459420232000713 l -3.4604330447982408 -20.97123246269487" fill="#ffaf10" stroke="none" /><path d="M 102.70371172650421 120.8252237178851 l 2.7597657371505457 21.256977332943755 a42.43537711954783,42.43537711954783 0 0,0 -0.7251853876513631,0.08780985124144247 l -2.3934529264478024 -21.301332712910547" fill="#ffb210" stroke="none" /><path d="M 101.98527174616119 120.90594882070398 l 1.9846299785403572 20.8991906723236 a41.99321144822437,41.99321144822437 0 0,0 -0.7201949390170929,0.06214144976065543 l -1.6245907217817226 -20.93025637436292" fill="#ffab0f" stroke="none" /><path d="M 101.62511606390274 120.93702456842531 l 3.3768395789687307 43.50518390588683 a64.63604097792471,64.63604097792471 0 0,0 -1.1100077796408903,0.07655263538258181 l -2.62746903854891 -43.5568648857857" fill="#31ff3b" stroke="none" /><path d="M 101.26447882468166 120.96189622390904 l 1.2639562849092794 20.95323382144901 a41.991321851338384,41.991321851338384 0 0,0 -0.7218746767344253,0.03731267524078802 l -0.9030935397613744 -20.971886303452" fill="#ffab0f" stroke="none" /><line stroke="#e1ed5e" stroke-width="0.3" x1="102.19456741930631" x2="102.32365962044197" y1="184.97166512339345" y2="189.96999836594603" /><path d="M 102.22038585953345 185.97133177190398 a86.0,86.0 0 0,1 -42.740103519485714,-10.115201625700543" fill="none" id="id43" stroke="none" /><text fill="#e1ed5e" style="font-size:6.75px; font-family:Arial;" text-anchor="middle"><textPath startOffset="22.20632615414155" xlink:href="#id43">July</textPath></text><path d="M 100.54218724476979 120.99299961872073 l 0.5449012165946197 21.098082152537923 a42.10511757491736,42.10511757491736 0 0,0 -0.7246898453992289,0.012476192893979866 l -0.18165168130272286 -21.104335822711064" fill="#ffad10" stroke="none" /><path d="M 100.18074693466247 120.99922214144158 l 0.1824016210944165 21.19146400725201 a42.1922489868828,42.1922489868828 0 0,0 -0.7262971115137293,0.0 l 0.1824016210944019 -21.19146400725201" fill="#ffae10" stroke="none" /><path d="M 99.45781275523022 120.99299961872073 l -0.5930805406539437 22.963541993883663 a43.97119947744481,43.97119947744481 0 0,0 -0.7564714039835896,-0.02605440469258502 l 0.9882722963121764 -22.949930790764984" fill="#ffc912" stroke="none" /><path d="M 98.73552117531835 120.96189622390904 l -3.0511687273739847 50.58074597726263 a71.67268982617041,71.67268982617041 0 0,0 -1.2308495707837221,-0.08488659280703162 l 3.9213810589366367 -50.520731039939314" fill="#3bff9b" stroke="none" /><path d="M 98.01472825383883 120.90594882070398 l -2.0221237631512774 21.294019815329527 a42.38981683907433,42.38981683907433 0 0,0 -0.7258093510090691,-0.07523310688747278 l 2.38836571076594 -21.256057339986295" fill="#ffb110" stroke="none" /><path d="M 97.65516085044442 120.86867818915974 l -2.344807891701931 20.868399999464348 a41.99972005972059,41.99972005972059 0 0,0 -0.7177403699501039,-0.08690836327992994 l 2.703675684703424 -20.82494610745907" fill="#ffab0f" stroke="none" /><path d="M 96.93821686468263 120.77559828337769 l -3.1964320443955856 21.689252686929773 a42.92352298176389,42.92352298176389 0 0,0 -0.7300353817457936,-0.11401651269277122 l 3.569303289749896 -21.6310178668899" fill="#ffb911" stroke="none" /><path d="M 96.58105272829116 120.7198165907248 l -7.6213615149636675 46.1876712953014 a67.8122433880772,67.8122433880772 0 0,0 -1.1500666775929227,-0.19995383353663052 l 8.41527716402864 -46.049638883243766" fill="#35ff68" stroke="none" /><path d="M 96.22490169976321 120.6578951692458 l -3.2028273967533005 17.526344308217872 a38.81658912765276,38.81658912765276 0 0,0 -0.6562450586752842,-0.12577092737151835 l 3.50404007000028 -17.468616182497886" fill="#ff790b" stroke="none" /><path d="M 95.51606077576429 120.51570834832081 l -4.967145002852561 22.726556517882308 a44.263037218726666,44.263037218726666 0 0,0 -0.7429442260130922,-0.16909168702184174 l 5.357609378258516 -22.63768809728278" fill="#ffcd13" stroke="none" /><path d="M 94.81253420990036 120.34920634021253 l -4.966354002429761 19.48183688205921 a41.10489095659592,41.10489095659592 0 0,0 -0.6841215350724695,-0.18068271529651328 l 5.300965980313721 -19.393462817459113" fill="#ff9d0e" stroke="none" /><path d="M 94.11515582081647 120.15858648285463 l -6.040033645397008 20.69018939036379 a42.55379185773701,42.55379185773701 0 0,0 -0.7013777283058896,-0.21131935604932783 l 6.395286348143143 -20.58315466520874" fill="#ffb310" stroke="none" /><path d="M 93.76903079525671 120.05430185196036 l -6.557568475739487 21.105457803782745 a43.10072517862856,43.10072517862856 0 0,0 -0.7066028423858705,-0.22623191634964457 l 6.919892663216298 -20.989453040773395" fill="#ffbc11" stroke="none" /><path d="M 93.08242187328487 119.8279376855182 l -7.1996629018247225 20.6364806814124 a42.856337314706195,42.856337314706195 0 0,0 -0.6944368233928031,-0.24900033798991975 l 7.553819285847252 -20.509492802382525" fill="#ffb811" stroke="none" /><path d="M 92.40401165467489 119.57807347666478 l -8.417597727776434 21.695708223780837 a44.271435427108884,44.271435427108884 0 0,0 -0.7080877187304616,-0.2817627165479124 l 8.789806522548753 -21.547598662826857" fill="#ffcd13" stroke="none" /><path d="M 91.7346041902142 119.30500536409082 l -13.220986279003439 30.879490457377994 a54.59073397675162,54.59073397675162 0 0,0 -0.8606601607124541,-0.3772881219856939 l 13.750567114373636 -30.647337782097846" fill="#a0ff22" stroke="none" /><path d="M 91.40352486487194 119.15986991738527 l -11.772940079548103 26.239592033200598 a49.75966460488429,49.75966460488429 0 0,0 -0.7784591591706493,-0.3573524189645935 l 12.222867234486172 -26.03305254390193" fill="#e1ff1b" stroke="none" /><path d="M 90.7491055286396 118.85261126421891 l -10.285725453503144 20.96151719660258 a44.349118854644345,44.349118854644345 0 0,0 -0.6824402121710061,-0.3421896896089525 l 10.645019573356912 -20.781359666084324" fill="#ffcf13" stroke="none" /><line stroke="#e1ed5e" stroke-width="0.3" x1="58.666819895761336" x2="56.23545636021788" y1="174.27360380694188" y2="178.64263932499728" /><path d="M 58.180547188652646 175.14741091055294 a86.0,86.0 0 0,1 -31.652253787137756,-30.449443065178592" fill="none" id="id44" stroke="none" /><text fill="#e1ed5e" style="font-size:6.75px; font-family:Arial;" text-anchor="middle"><textPath startOffset="22.20632615414155" xlink:href="#id44">August</textPath></text><path d="M 89.7882731507175 118.34994917583269 l -13.957474181162116 25.080864933761674 a49.70297669830436,49.70297669830436 0 0,0 -0.7440091434665943,-0.4224678091062118 l 14.387132091549917 -24.83689395886083" fill="#e2ff1b" stroke="none" /><path d="M 89.4739219176387 118.17145234162733 l -14.633915975352746 25.26292362994216 a50.19532166471153,50.19532166471153 0 0,0 -0.743923658386826,-0.439523210089602 l 15.066607504767953 -25.007281847558808" fill="#dbff1b" stroke="none" /><path d="M 89.1626897886671 117.98757091392108 l -12.001928109763377 19.92058257706727 a44.25673856244001,44.25673856244001 0 0,0 -0.6491426676375913,-0.39875644555118644 l 12.343049977333276 -19.711037664687705" fill="#ffcd13" stroke="none" /><path d="M 88.24862548938628 117.40417183066458 l -10.000636514311337 14.811271324379154 a38.8713874373467,38.8713874373467 0 0,0 -0.551313101589047,-0.3791981784141985 l 10.254106500523275 -14.636932356599853" fill="#ff7a0b" stroke="none" /><path d="M 86.51685102203217 116.09983520530335 l -13.5484833686777 16.177849096968156 a42.101758291564465,42.101758291564465 0 0,0 -0.5516022477532164,-0.47008740229049933 l 13.824951093007973 -15.942237304454707" fill="#ffad10" stroke="none" /><path d="M 86.24171649860922 115.8653595955263 l -13.779145780748292 15.889416925349149 a42.031843206782554,42.031843206782554 0 0,0 -0.5425263106014145,-0.47871639065323884 l 14.050614444256295 -15.64987739292362" fill="#ffab0f" stroke="none" /><path d="M 85.70375840098266 115.38237550388516 l -14.892077145558446 16.02347869537627 a42.875233283566175,42.875233283566175 0 0,0 -0.5362755893203325,-0.5070820423369463 l 15.165688569269594 -15.764762016293393" fill="#ffb811" stroke="none" /><path d="M 85.44109423537348 115.13401014063109 l -22.807338288034195 23.70827138469138 a53.89767183000959,53.89767183000959 0 0,0 -0.663069813529371,-0.6489533702348115 l 23.212058053939362 -23.312167911533997" fill="#a9ff21" stroke="none" /><path d="M 85.18274418774928 114.88116024355367 l -15.381475328456522 15.447813147410317 a42.799649408126264,42.799649408126264 0 0,0 -0.517589152930003,-0.5243150792635858 l 15.645105106442058 -15.180757574166066" fill="#ffb711" stroke="none" /><path d="M 84.67929136418377 114.36230785411682 l -11.953730890134425 11.205954445737676 a37.38490455369521,37.38490455369521 0 0,0 -0.4360746027221176,-0.47327285547482795 l 12.144851900852272 -10.998530335461504" fill="#ff6209" stroke="none" /><path d="M 84.43433777217949 114.09645910891817 l -20.248941633513496 18.337695727813607 a48.318322091287186,48.318322091287186 0 0,0 -0.5529943387848605,-0.6212950018775318 l 20.561594821946695 -17.98642655619521" fill="#f6ff19" stroke="none" /><path d="M 84.19399662182784 113.82643327865904 l -12.333954393059525 10.78922947170608 a37.387004105790766,37.387004105790766 0 0,0 -0.41954893153512585,-0.48803019138757814 l 12.51784583416543 -10.57532218115697" fill="#ff6209" stroke="none" /><path d="M 83.72743513129214 113.27417163493432 l -16.696320540444827 13.619845814960508 a42.54686333582169,42.54686333582169 0 0,0 -0.4580516046894787,-0.5714898055040447 l 16.928290057189166 -13.330428175878204" fill="#ffb310" stroke="none" /><path d="M 83.50135304334701 112.99209946851258 l -12.16779611753957 9.58170799623713 a36.48755598805588,36.48755598805588 0 0,0 -0.384323744806286,-0.4967902475242827 l 12.330926679563925 -9.370839754599594" fill="#ff5407" stroke="none" /><path d="M 83.06392112726016 112.41649034213515 l -23.151761600222468 16.973446242936227 a49.70717580249547,49.70717580249547 0 0,0 -0.4999599996869178,-0.6944007118278345 l 23.440501392284993 -16.572411925657253" fill="#e2ff1b" stroke="none" /><path d="M 82.85270091963577 112.12312394758628 l -17.590062201813858 12.436157048344448 a42.54224432121147,42.54224432121147 0 0,0 -0.41760093579339974,-0.6015852941599377 l 17.80152404476939 -12.131530491997497" fill="#ffb310" stroke="none" /><path d="M 82.44556493220864 111.52570212397912 l -17.820269532932283 11.700240857220564 a42.31801215740642,42.31801215740642 0 0,0 -0.39455528437958254,-0.6123585632808268 l 18.019029680688913 -11.391760694018288" fill="#ffb010" stroke="none" /><path d="M 82.05923443525364 110.91462005526583 l -25.12731976180372 15.28670263359174 a50.41199544097259,50.41199544097259 0 0,0 -0.44463169761341287,-0.745228300367545 l 25.386732335115365 -14.851912239338086" fill="#d8ff1c" stroke="none" /><line stroke="#e1ed5e" stroke-width="0.3" x1="26.63291911575756" x2="22.317208475507996" y1="142.92168965132927" y2="145.44649492493687" /><path d="M 25.769776987707644 143.4266507060508 a86.0,86.0 0 0,1 -11.730757126820373,-40.83630448921669" fill="none" id="id45" stroke="none" /><text fill="#e1ed5e" style="font-size:6.75px; font-family:Arial;" text-anchor="middle"><textPath startOffset="21.46611528233685" xlink:href="#id45">September</textPath></text><path d="M 81.69416730710424 110.29060199501025 l -15.582261738893811 8.75954983458701 a38.8755865415378,38.8755865415378 0 0,0 -0.32289616139301536,-0.5861503244584619 l 15.730734309738343 -8.490028991730725" fill="#ff7a0b" stroke="none" /><path d="M 81.35079622478065 109.6543875284942 l -19.053556579159768 9.86371435630554 a42.45532286445558,42.45532286445558 0 0,0 -0.3303859684363265,-0.6518828594498287 l 19.220521217382363 -9.534277285153026" fill="#ffb210" stroke="none" /><path d="M 81.18737489456691 109.33194174019688 l -19.852490600789782 9.84776365053236 a43.16077236856137,43.16077236856137 0 0,0 -0.3244184457319445,-0.6683980877773587 l 20.019062303136444 -9.504576606789715" fill="#ffbd11" stroke="none" /><path d="M 81.02952815118164 109.00673069616217 l -9.687291579298886 4.599296587099873 a31.72367228324624,31.72367228324624 0 0,0 -0.22995943659832996,-0.49531216828091973 l 9.765025632737043 -4.431864351540127" fill="#ff0300" stroke="none" /><path d="M 80.87730276802145 108.67885076344099 l -28.9857376493708 13.1551991999569 a52.83130932067826,52.83130932067826 0 0,0 -0.36870949458403945,-0.831342573823194 l 29.207888228686123 -12.65430828964101" fill="#b7ff1f" stroke="none" /><path d="M 80.58989483394504 108.01547362559985 l -19.425565251685644 8.021857924271192 a42.01672643169457,42.01672643169457 0 0,0 -0.2703023761135453,-0.6708683301772904 l 19.560770242056577 -7.686290226251097" fill="#ffab0f" stroke="none" /><path d="M 80.45479744820244 107.68017299344265 l -24.90797873051959 9.787444517927854 a47.76194078596566,47.76194078596566 0 0,0 -0.29409010292102145,-0.7677764576977243 l 25.072763113034124 -9.357244493396973" fill="#fdff18" stroke="none" /><path d="M 80.32549172779594 107.34259656027581 l -20.614486912061945 7.693399936515926 a43.0033059613949,43.0033059613949 0 0,0 -0.25285071346674637,-0.6957365684001854 l 20.743861886533914 -7.337415571109624" fill="#ffba11" stroke="none" /><path d="M 80.0844068197444 106.66101706037122 l -20.733683992681723 6.9346376755937635 a42.862635970992855,42.862635970992855 0 0,0 -0.22800421808712157,-0.7017248284132531 l 20.849980461785094 -6.576713947202706" fill="#ffb811" stroke="none" /><path d="M 79.97269907076064 106.31721596034903 l -26.83406301321993 8.464274429543051 a49.1373573637624,49.1373573637624 0 0,0 -0.24749604185165763,-0.8088313847963655 l 26.975785827577717 -8.001116072194637" fill="#eaff1a" stroke="none" /><path d="M 79.76711848015287 105.62410040840567 l -20.261740940805627 5.632122413627216 a42.02995360989655,42.02995360989655 0 0,0 -0.18775765711477896,-0.6987160896869702 l 20.35568667426218 -5.282515390764707" fill="#ffab0f" stroke="none" /><path d="M 79.67330655649465 105.27499134158121 l -20.405679674959725 5.29548910173999 a42.08160259144716,42.08160259144716 0 0,0 -0.17591850399337167,-0.7027069763030043 l 20.493809493248158 -4.943454286039593" fill="#ffac0f" stroke="none" /><path d="M 79.50377843672027 104.57218783832718 l -26.86317596086302 5.9924940822823105 a48.52344833102272,48.52344833102272 0 0,0 -0.17483682677960785,-0.8167794485376354 l 26.96234682636707 -5.529200814328512" fill="#f3ff19" stroke="none" /><path d="M 79.4281124754447 104.21870165774334 l -28.208942988715723 5.78484178506391 a49.795986856137354,49.795986856137354 0 0,0 -0.1649671496725861,-0.8411639421104415 l 28.304340071363974 -5.298414115885514" fill="#e1ff1b" stroke="none" /><path d="M 79.35854240842038 103.8639653848113 l -27.592155302629234 5.165097111416631 a49.07143142796204,49.07143142796204 0 0,0 -0.14827413826727318,-0.8316001104710748 l 27.676975883235695 -4.689378250212342" fill="#ebff1a" stroke="none" /><path d="M 79.23777060512086 103.15116336523772 l -20.79308932579427 3.155847095578237 a42.03121334115389,42.03121334115389 0 0,0 -0.10240794845352014,-0.7162409529661768 l 20.84433132526439 -2.7974606706316596" fill="#ffab0f" stroke="none" /><path d="M 79.18660465613746 102.79330883721812 l -20.82477090653049 2.7948355203567337 a42.01147755145569,42.01147755145569 0 0,0 -0.09002157543454412,-0.7175605292314403 l 20.869793991211882 -2.4359572368378846" fill="#ffab0f" stroke="none" /><path d="M 79.1416061653843 102.43462659150553 l -21.124837738476483 2.465726369303738 a42.26825277274182,42.26825277274182 0 0,0 -0.07813125200998189,-0.7233983578108175 l 21.16415129198752 -2.101731689608138" fill="#ffaf10" stroke="none" /><path d="M 79.07016306316243 101.71520430193888 l -28.951718124167204 2.3725990615671093 a50.048772928441934,50.048772928441934 0 0,0 -0.06297432454269937,-0.859234625051286 l 28.98826900737424 -1.873891300019063" fill="#ddff1b" stroke="none" /><path d="M 79.04373962182676 101.35467743843564 l -21.97842840531059 1.4207535388307035 a43.02430148235043,43.02430148235043 0 0,0 -0.04141324445110878,-0.7394612995186395 l 21.99962800064923 -1.0422205229766266" fill="#ffbb11" stroke="none" /><path d="M 79.0095281055655 100.63252640178507 l -21.7011975877781 0.6539433936339356 a42.71104830969393,42.71104830969393 0 0,0 -0.015819231257638938,-0.7350575160668186 l 21.709238881720747 -0.2802960617769882" fill="#ffb610" stroke="none" /><line stroke="#e1ed5e" stroke-width="0.3" x1="15.007084014347285" x2="10.007500721073583" y1="101.09737516637583" y2="101.16192664675087" /><path d="M 14.007167355692545 101.11028546245083 a86.0,86.0 0 0,1 10.666146001902534,-42.60595125391555" fill="none" id="id46" stroke="none" /><text fill="#e1ed5e" style="font-size:6.75px; font-family:Arial;" text-anchor="middle"><textPath startOffset="22.20632615414155" xlink:href="#id46">October</textPath></text><path d="M 79.00175016825051 100.2711162175752 l -32.27687347081615 0.41673872444978194 a53.279563693078806,53.279563693078806 0 0,0 -0.003947007697686645,-0.9171455847853128 l 32.27926477580334 0.13891633853920626" fill="#b1ff20" stroke="none" /><path d="M 79.00019446554 99.90962569577889 l -22.31383303764271 -0.09602932427036223 a43.31403967153673,43.31403967153673 0 0,0 0.009626014992859437,-0.7455454694376588 l 22.308874015532137 0.4801110517684929" fill="#ffbf11" stroke="none" /><path d="M 79.01574976396665 99.18683210126434 l -24.011351973385846 -0.9304721593756221 a45.02937373360349,45.02937373360349 0 0,0 0.036680481337486665,-0.7742669871869441 l 23.99177788381486 1.3436502531855754" fill="#ffd914" stroke="none" /><path d="M 79.03285615573316 98.82574320788736 l -26.150933079999163 -1.4645729059405903 a47.191912392023035,47.191912392023035 0 0,0 0.05240416696921367,-0.8106692683803942 l 26.12184832202554 1.9145012385739963" fill="#fff817" stroke="none" /><path d="M 79.12142395522702 97.74499172005258 l -45.341726054095446 -4.897171505366653 a66.60542084355338,66.60542084355338 0 0,0 0.1329242702667011,-1.1388139721612194 l 45.250711430825156 5.676929215852734" fill="#33ff57" stroke="none" /><path d="M 79.16333360222342 97.38593545837743 l -21.290531078564243 -2.6710041473201644 a42.45742241655114,42.45742241655114 0 0,0 0.09721536854663765,-0.7243674140506209 l 21.24139971095977 3.0370899034354446" fill="#ffb210" stroke="none" /><path d="M 79.26566170972629 96.67025291283419 l -20.775521723211362 -3.3363607737924994 a42.04171110163165,42.04171110163165 0 0,0 0.12089622247295757,-0.7135363485781785 l 20.71501363921818 3.693482910686506" fill="#ffac0f" stroke="none" /><path d="M 79.32604984820605 96.31383870115002 l -38.449479516736844 -6.855534734044142 a60.05586808147595,60.05586808147595 0 0,0 0.19021774240020098,-1.0161507860173404 l 38.32577605042678 7.516363597524055" fill="#5bff2a" stroke="none" /><path d="M 79.46518482838121 95.60439243477599 l -20.557330215714263 -4.400427053363067 a42.02302508798123,42.02302508798123 0 0,0 0.15749752140849124,-0.7060305063137868 l 20.478538307303737 4.753635729226813" fill="#ffab0f" stroke="none" /><path d="M 79.54389044137918 95.25157060432595 l -20.476288615186608 -4.753113513399333 a42.020715580676125,42.020715580676125 0 0,0 0.1696180186100317,-0.7031761919661751 l 20.39143779631576 5.1048749370249045" fill="#ffab0f" stroke="none" /><path d="M 79.71946130924805 94.55025226153421 l -20.296489311722873 -5.454033958959676 a42.016516476485016,42.016516476485016 0 0,0 0.19370260236382034,-0.6968513218319757 l 20.19959993879269 5.802596584210594" fill="#ffab0f" stroke="none" /><path d="M 79.81627453868168 94.20196356495316 l -20.74726941165866 -5.959921730359921 a42.58633491521809,42.58633491521809 0 0,0 0.2084582901385826,-0.7028177241802096 l 20.641605224408373 6.31616884128667" fill="#ffb410" stroke="none" /><path d="M 79.91906864156998 93.8553929516997 l -39.21732333461865 -12.000192474947529 a62.012230724112186,62.012230724112186 0 0,0 0.32111857288324314,-1.0180336296030696 l 39.0049492779672 12.673476270977014" fill="#44ff2d" stroke="none" /><path d="M 80.14247586403 93.16781622104843 l -19.925356205926303 -6.855522094688963 a42.07173469659806,42.07173469659806 0 0,0 0.241505619174378,-0.6827689069024058 l 19.804397505942116 7.19748862801798" fill="#ffac0f" stroke="none" /><path d="M 80.52162464483688 92.15188598940014 l -29.31960795002339 -11.81328636204148 a52.61001652980697,52.61001652980697 0 0,0 0.3456686349367578,-0.8370640176895309 l 29.11191762820043 12.31622495018432" fill="#baff1f" stroke="none" /><path d="M 80.65960295795068 91.81776055985345 l -26.436551038334994 -11.184371763258858 a49.70507625039991,49.70507625039991 0 0,0 0.34014672500763804,-0.7851055386021886 l 26.240113603484673 11.637776446447644" fill="#e2ff1b" stroke="none" /><path d="M 80.803312248108 91.48605970444005 l -38.41416747989365 -17.03710205919355 a63.02274514770181,63.02274514770181 0 0,0 0.44835486207980113,-0.987890506903743 l 38.1152103008505 17.695814574939362" fill="#38ff2e" stroke="none" /><path d="M 81.10775173730289 90.83032412892265 l -18.916551104188933 -9.181471670927493 a42.027014236962785,42.027014236962785 0 0,0 0.3214866201253542,-0.6480974087932396 l 18.755704471110164 9.505728668219694" fill="#ffab0f" stroke="none" /><path d="M 81.26839172434947 90.50648371742162 l -21.428134853563904 -10.860164495433821 a45.02307507731684,45.02307507731684 0 0,0 0.3563052556178109,-0.6882683441685504 l 21.23802016478598 11.227405561862708" fill="#ffd914" stroke="none" /><path d="M 81.43458229118936 90.18545643968196 l -25.39207444977033 -13.42343192503774 a49.721872667164334,49.721872667164334 0 0,0 0.4065163251734551,-0.7532130114164914 l 25.157250025378403 13.858525919786704" fill="#e2ff1b" stroke="none" /><line stroke="#e1ed5e" stroke-width="0.3" x1="26.266209847984243" x2="21.928928074336255" y1="57.711370442889674" y2="55.22380399835377" /><path d="M 25.398753493254645 57.213857153982495 a86.0,86.0 0 0,1 29.58750427330803,-30.492523968695096" fill="none" id="id47" stroke="none" /><text fill="#e1ed5e" style="font-size:6.75px; font-family:Arial;" text-anchor="middle"><textPath startOffset="21.46611528233685" xlink:href="#id47">November</textPath></text><path d="M 81.78341655067845 89.55222093294921 l -24.987093249238008 -14.33087771491848 a49.80501493014823,49.80501493014823 0 0,0 0.43292493515998015,-0.740009048868002 l 24.736708639607702 14.758866176140373" fill="#e1ff1b" stroke="none" /><path d="M 81.96595687620814 89.24020034530311 l -21.127243565871545 -12.605321306172197 a45.60192159006079,45.60192159006079 0 0,0 0.4079943159315762,-0.6706353805092792 l 20.907133451653753 12.96712445988855" fill="#ffe115" stroke="none" /><path d="M 82.34701348167596 88.62581576622439 l -17.98455655677342 -11.587821665595344 a42.39443585368454,42.39443585368454 0 0,0 0.4005332721654206,-0.6100396525162383 l 17.782426649250077 11.895679382089249" fill="#ffb110" stroke="none" /><path d="M 82.54541684631803 88.32363383020206 l -23.87434747259327 -15.970912665203617 a49.723762264050336,49.723762264050336 0 0,0 0.4820257843745034,-0.7073133597118583 l 23.59589722255003 16.37950404818589" fill="#e2ff1b" stroke="none" /><path d="M 82.7489923806493 88.02491185347247 l -8.894792093804867 -6.174475237543164 a31.827810067185666,31.827810067185666 0 0,0 0.31628868096670126,-0.4473679087764953 l 8.787190793034288 6.326669646651445" fill="#ff0500" stroke="none" /><path d="M 83.17141714833178 87.43820079747576 l -27.042980334176885 -20.186399044413086 a54.7463107870321,54.7463107870321 0 0,0 0.5702064453853488,-0.7503248432788865 l 26.691497948567427 20.648908663573" fill="#9eff22" stroke="none" /><path d="M 83.39014120810768 87.1503855733568 l -24.93803703039406 -19.292407263229148 a52.52939372933774,52.52939372933774 0 0,0 0.5594278360209063,-0.7104165409603334 l 24.602255113779183 19.71881619814253" fill="#bbff1f" stroke="none" /><path d="M 83.84228863543731 86.58626213691792 l -31.508086405911367 -26.157244802823836 a61.950713847712485,61.950713847712485 0 0,0 0.6882116203603602,-0.8146254853873048 l 31.053164172063884 26.695729237840254" fill="#45ff2d" stroke="none" /><path d="M 84.5562425177563 85.77008943001954 l -16.124939264388495 -14.857552894263586 a42.92625239948811,42.92625239948811 0 0,0 0.5053701113570279,-0.5390935988836666 l 15.866801831061009 15.132915910025302" fill="#ffb911" stroke="none" /><path d="M 84.80347519578584 85.50635884689758 l -21.855538415999984 -20.844655938804205 a51.202056894529164,51.202056894529164 0 0,0 0.6137803567742439,-0.6325546104724054 l 21.49349379552262 21.217774744826738" fill="#cdff1d" stroke="none" /><path d="M 85.05521093208273 85.24692304244772 l -23.99920037147615 -23.69133805710164 a54.723005758771464,54.723005758771464 0 0,0 0.6675273801254858,-0.6646608054157243 l 23.58783719118335 24.100934713167472" fill="#9eff22" stroke="none" /><path d="M 85.57189188830299 84.74124197986013 l -15.05107710729511 -15.917592365176032 a42.90672656499947,42.90672656499947 0 0,0 0.5410172822181749,-0.5028166016283553 l 14.77485194128208 16.174313552879035" fill="#ffb911" stroke="none" /><path d="M 85.83668400450813 84.49514656593479 l -14.750779439556778 -16.147960923935297 a42.871034179375066,42.871034179375066 0 0,0 0.5491351021261645,-0.4930189166383432 l 14.470633349834642 16.39947884934292" fill="#ffb811" stroke="none" /><path d="M 86.37877921826538 84.01681056812374 l -14.240536378158062 -16.70989657908181 a42.954806307987624,42.954806307987624 0 0,0 0.5668857533161921,-0.4747505156408045 l 13.95079308788276 16.95254825211643" fill="#ffba11" stroke="none" /><path d="M 86.93701828274178 83.55741782278169 l -26.240283679495924 -33.02906105913087 a63.18378079343073,63.18378079343073 0 0,0 0.8573962175271863,-0.6692113475734155 l 25.667854906809314 33.47585079592751" fill="#36ff2e" stroke="none" /><path d="M 87.51073957382395 83.11751280151077 l -12.51531579112081 -16.917707808046714 a42.043810653727206,42.043810653727206 0 0,0 0.585519492572252,-0.4254048123298614 l 12.222250982194778 17.130631855193243" fill="#ffac0f" stroke="none" /><path d="M 87.80319425747018 82.90503203632743 l -14.649995118725911 -20.53334311534531 a46.22380892076357,46.22380892076357 0 0,0 0.6516871633939575,-0.4565485045404595 l 14.294376815748294 20.78247646264971" fill="#ffea16" stroke="none" /><path d="M 88.39885842347998 82.49532879139004 l -14.333168971886382 -21.626958741553644 a46.945424976005114,46.945424976005114 0 0,0 0.6774291312523543,-0.4406187508837354 l 13.958772814849741 21.87047641659691" fill="#fff517" stroke="none" /><path d="M 88.70189139769569 82.29822771554957 l -18.095709562851432 -28.352190732333348 a54.634824570758234,54.634824570758234 0 0,0 0.7970982791420359,-0.49914286927280843 l 17.604992131337156 28.659477942929087" fill="#9fff22" stroke="none" /><path d="M 89.00827224532344 82.1063720568725 l -16.007685260993924 -26.05919384866895 a51.58312559987203,51.58312559987203 0 0,0 0.7605758299418981,-0.45823842739895343 l 15.556747364834377 26.330878885526523" fill="#c8ff1d" stroke="none" /><line stroke="#e1ed5e" stroke-width="0.3" x1="56.762969772571076" x2="54.21961505331055" y1="26.818313649435495" y2="22.513508569990535" /><path d="M 56.25429882871897 25.957352633546506 a86.0,86.0 0 0,1 42.265352541879196,-11.944610805530505" fill="none" id="id48" stroke="none" /><text fill="#e1ed5e" style="font-size:6.75px; font-family:Arial;" text-anchor="middle"><textPath startOffset="22.20632615414155" xlink:href="#id48">December</textPath></text><path d="M 89.63071344664047 81.73862282372117 l -10.846966808328759 -19.10262109993412 a42.967403620560944,42.967403620560944 0 0,0 0.6463032266120845,-0.359667045871971 l 10.516539492644629 19.286503543366276" fill="#ffba11" stroke="none" /><path d="M 89.94658935756843 81.56283822128135 l -10.06443353121983 -18.457376886912893 a42.02302508798123,42.02302508798123 0 0,0 0.6380595099603864,-0.3408292928206617 l 9.745228974731138 18.627884906235302" fill="#ffab0f" stroke="none" /><path d="M 90.26544431104013 81.39251694778311 l -10.943978465715581 -20.919279762874105 a44.609043404073795,44.609043404073795 0 0,0 0.683451993998018,-0.3500906567452499 l 10.5822659841288 21.10456294493186" fill="#ffd213" stroke="none" /><path d="M 90.91171255644093 81.06846463323043 l -13.649876955461671 -28.433643845355558 a52.540311400234614,52.540311400234614 0 0,0 0.8186826035838258,-0.384382459717831 l 13.158416140578236 28.664391287713396" fill="#bbff1f" stroke="none" /><path d="M 91.23893434514133 80.91482961587045 l -12.019895711117991 -26.184229942271266 a49.81131358643489,49.81131358643489 0 0,0 0.7823172344507207,-0.351002939098008 l 11.567396358200495 26.387253211885803" fill="#e1ff1b" stroke="none" /><path d="M 91.90106846888425 80.62456947434976 l -4.070383542887431 -9.73775778261216 a31.55423842913512,31.55423842913512 0 0,0 0.5029386945278917,-0.2051613215364871 l 3.902160978771158 9.806379990332225" fill="#ff0100" stroke="none" /><path d="M 96.04723909329186 79.375362276772 l -3.495194687186614 -18.23715774790166 a39.56906859869894,39.56906859869894 0 0,0 0.6700454212910307,-0.12244651791838809 l 3.1807541447926897 18.294619747170785" fill="#ff850c" stroke="none" /><path d="M 96.75951476605007 79.25152402106235 l -3.266360389318588 -20.914151796248404 a42.16768422736483,42.16768422736483 0 0,0 0.7181177096759652,-0.10583188328288747 l 2.905873699213974 20.96727816369226" fill="#ffae10" stroke="none" /><path d="M 97.47563105711357 79.15227682838746 l -2.5520974275955335 -21.076721303923094 a42.230670790231414,42.230670790231414 0 0,0 0.7224125276652712,-0.08117146479736848 l 2.1889181964205444 21.11752872219106" fill="#ffaf10" stroke="none" /><path d="M 97.83486435360386 79.11191278185805 l -2.175497218554833 -20.988050203522562 a42.10049856030713,42.10049856030713 0 0,0 0.7214719794680103,-0.0685124578065677 l 1.8139001119965863 21.02238820584431" fill="#ffad10" stroke="none" /><path d="M 98.19473922651362 79.07773832637324 l -2.543864053584546 -29.48238291825394 a50.59192705556148,50.59192705556148 0 0,0 0.8682774690423578,-0.0673950426076085 l 2.035996395179854 29.52180322305001" fill="#d6ff1c" stroke="none" /><path d="M 98.55514903715128 79.0497635885617 l -2.313868646979716 -33.550931151862805 a54.63062546656713,54.63062546656713 0 0,0 0.938704903046,-0.05662524324362567 l 1.7360016950940926 33.58578966448673" fill="#9fff22" stroke="none" /><path d="M 99.63851952072746 79.00311137660856 l -0.5164815701934136 -30.00025347761348 a51.00469899754719,51.00469899754719 0 0,0 0.8779620494659419,-0.007556896542264491 l 7.349031717345192e-15 30.004698997547187" fill="#d0ff1d" stroke="none" /></svg>