<?xml version="1.0" encoding="utf-8" ?>
<svg baseProfile="full" height="200mm" version="1.1" viewBox="0,0,200,200" width="200mm" xmlns="http://www.w3.org/2000/svg" xmlns:ev="http://www.w3.org/2001/xml-events" xmlns:xlink="http://www.w3.org/1999/xlink"><defs /><rect fill="#1a1a1a" height="200" width="200" x="0" y="0" /><rect fill="#1a1a1a" height="200" width="180" x="10" y="0" /><text alignment-baseline="middle" fill="#e1ed5e" style="dominant-baseline: central; font-size:9.0px; font-family:Arial;" text-anchor="middle" x="100.0" y="100.0">2022</text><line stroke="#e1ed5e" stroke-width="0.3" x1="100.0" x2="100.0" y1="15.0" y2="10.0" /><path d="M 100.0 14.0 a86.0,86.0 0 0,1 42.46469731375804,11.215312516191453" fill="none" id="id1" stroke="none" /><text fill="#e1ed5e" style="font-size:6.75px; font-family:Arial;" text-anchor="middle"><textPath startOffset="22.20632615414155" xlink:href="#id1">January</textPath></text><line stroke="#e1ed5e" stroke-width="0.3" x1="143.23703022742887" x2="145.7803849466894" y1="26.81831364943548" y2="22.513508569990506" /><path d="M 143.74570117128098 25.957352633546492 a86.0,86.0 0 0,1 28.547481713284135,27.462654790039103" fill="none" id="id2" stroke="none" /><text fill="#e1ed5e" style="font-size:6.75px; font-family:Arial;" text-anchor="middle"><textPath startOffset="19.985693538727396" xlink:href="#id2">February</textPath></text><line stroke="#e1ed5e" stroke-width="0.3" x1="172.23445277983987" x2="176.4835382374775" y1="55.19839476539836" y2="52.563006222186495" /><path d="M 173.08426987136738 54.67131705675599 a86.0,86.0 0 0,1 12.851231095245387,41.99856678651699" fill="none" id="id3" stroke="none" /><text fill="#e1ed5e" style="font-size:6.75px; font-family:Arial;" text-anchor="middle"><textPath startOffset="22.20632615414155" xlink:href="#id3">March</textPath></text><line stroke="#e1ed5e" stroke-width="0.3" x1="184.98032266829074" x2="189.97916517819016" y1="98.17113171792111" y2="98.06355123074" /><path d="M 185.9800911702706 98.14961562048488 a86.0,86.0 0 0,1 -9.607161424134198,41.387399972396054" fill="none" id="id4" stroke="none" /><text fill="#e1ed5e" style="font-size:6.75px; font-family:Arial;" text-anchor="middle"><textPath startOffset="21.466115282336823" xlink:href="#id4">April</textPath></text><line stroke="#e1ed5e" stroke-width="0.3" x1="174.80103733775053" x2="179.2010983576182" y1="140.37084112569926" y2="142.7455964860345" /><path d="M 175.68104954172406 140.8457921977663 a86.0,86.0 0 0,1 -30.038265399797805,32.042727171017184" fill="none" id="id5" stroke="none" /><text fill="#e1ed5e" style="font-size:6.75px; font-family:Arial;" text-anchor="middle"><textPath startOffset="22.206326154141568" xlink:href="#id5">May</textPath></text><line stroke="#e1ed5e" stroke-width="0.3" x1="143.8653032363475" x2="146.44561519142675" y1="172.8068346515853" y2="177.08958963109032" /><path d="M 144.38136562736335 173.6633856474863 a86.0,86.0 0 0,1 -40.68145358897372,12.25698825130547" fill="none" id="id6" stroke="none" /><text fill="#e1ed5e" style="font-size:6.75px; font-family:Arial;" text-anchor="middle"><textPath startOffset="21.466115282336833" xlink:href="#id6">June</textPath></text><line stroke="#e1ed5e" stroke-width="0.3" x1="102.19456741930631" x2="102.32365962044197" y1="184.97166512339345" y2="189.96999836594603" /><path d="M 102.22038585953345 185.97133177190398 a86.0,86.0 0 0,1 -42.740103519485714,-10.115201625700543" fill="none" id="id7" stroke="none" /><text fill="#e1ed5e" style="font-size:6.75px; font-family:Arial;" text-anchor="middle"><textPath startOffset="22.20632615414155" xlink:href="#id7">July</textPath></text><line stroke="#e1ed5e" stroke-width="0.3" x1="58.666819895761336" x2="56.23545636021788" y1="174.27360380694188" y2="178.64263932499728" /><path d="M 58.180547188652646 175.14741091055294 a86.0,86.0 0 0,1 -31.652253787137756,-30.449443065178592" fill="none" id="id8" stroke="none" /><text fill="#e1ed5e" style="font-size:6.75px; font-family:Arial;" text-anchor="middle"><textPath startOffset="22.20632615414155" xlink:href="#id8">August</textPath></text><path d="M 87.65650970185807 116.9893568818739 l -4.3131950421600544 5.936603675495003 a28.338045698386924,28.338045698386924 0 0,0 -0.3921648566150854,-0.2901141855862399 l 4.414744869193704 -5.861479541168996" fill="#ff0000" stroke="none" /><path d="M 87.07902340077011 116.55440617244103 l -4.535185776633444 5.810497901400288 a28.370874838901788,28.370874838901788 0 0,0 -0.38238874039070386,-0.3037927419654364 l 4.634532009741506 -5.731571245429722" fill="#ff0100" stroke="none" /><path d="M 86.51685102203217 116.09983520530335 l -4.7206484972692095 5.636788779267203 a28.352408447362176,28.352408447362176 0 0,0 -0.3714631612408394,-0.31656896473062796 l 4.816977135087106 -5.554695424313623" fill="#ff0100" stroke="none" /><path d="M 86.24171649860922 115.8653595955263 l -4.7987335555294965 5.533657847208762 a28.324562301389747,28.324562301389747 0 0,0 -0.3655994863031177,-0.3225990391391175 l 4.893275394739202 -5.450235666297355" fill="#ff0000" stroke="none" /><path d="M 85.97065885151581 115.62618273729859 l -4.9077661556576535 5.466375788325729 a28.34625298351564,28.34625298351564 0 0,0 -0.3602679853441353,-0.3290962627403793 l 5.001133690468643 -5.381086758998774" fill="#ff0100" stroke="none" /><path d="M 85.70375840098266 115.38237550388516 l -5.003727794727041 5.383877946145587 a28.350063508753973,28.350063508753973 0 0,0 -0.35459741792829574,-0.3352939915060768 l 5.095661047046154 -5.296949317893579" fill="#ff0100" stroke="none" /><path d="M 85.44109423537348 115.13401014063109 l -5.093324100542953 5.294520057573515 a28.34669265950468,28.34669265950468 0 0,0 -0.34873187612246465,-0.3413075391162528 l 5.183705929041212 -5.206062415534692" fill="#ff0100" stroke="none" /><path d="M 85.18274418774928 114.88116024355367 l -5.1803968285438975 5.202739043421359 a28.34200278228827,28.34200278228827 0 0,0 -0.3427484433935365,-0.34720236358905276 l 5.269185896992967 -5.112796185851642" fill="#ff0000" stroke="none" /><path d="M 84.43433777217949 114.09645910891817 l -5.448789281371843 4.934491971738263 a28.351089419395063,28.351089419395063 0 0,0 -0.32447302118001115,-0.3645488790106264 l 5.532921152200192 -4.839968922986772" fill="#ff0100" stroke="none" /><path d="M 84.19399662182784 113.82643327865904 l -5.521779857962539 4.830222982932908 a28.336286994430772,28.336286994430772 0 0,0 -0.3179837276757017,-0.3698869138049888 l 5.604106095209019 -4.73445896996639" fill="#ff0000" stroke="none" /><path d="M 83.95833913139862 113.55231037782056 l -5.610935319329676 4.740228432722207 a28.34522707287455,28.34522707287455 0 0,0 -0.31166791976441716,-0.3754240868987767 l 5.6916992389876295 -4.642943088709669" fill="#ff0000" stroke="none" /><path d="M 83.72743513129214 113.27417163493432 l -5.678298454634691 4.632011541471794 a28.32793315063904,28.32793315063904 0 0,0 -0.3049732511365141,-0.38050102257385676 l 5.757189617826065 -4.5335826853196775" fill="#ff0000" stroke="none" /><path d="M 83.50135304334701 112.99209946851258 l -5.750165846492319 4.528051714443588 a28.318993072195262,28.318993072195262 0 0,0 -0.2982842005151591,-0.38557253828071286 l 5.827256864225546 -4.4284011820496225" fill="#ff0000" stroke="none" /><path d="M 82.85270091963577 112.12312394758628 l -5.983536255948732 4.230354374515407 a28.32793315063904,28.32793315063904 0 0,0 -0.2780711638878308,-0.40058225110783113 l 6.055468326998697 -4.1267308612205635" fill="#ff0000" stroke="none" /><path d="M 82.6465618267979 111.8261652097733 l -6.073392513246614 4.138945984569777 a28.349623832764934,28.349623832764934 0 0,0 -0.271342207293319,-0.4056197837093693 l 6.143737825950664 -4.033789286654588" fill="#ff0100" stroke="none" /><path d="M 82.44556493220864 111.52570212397912 l -6.14288024110617 4.033226222823396 a28.348597922123844,28.348597922123844 0 0,0 -0.2643103620586399,-0.41021555147834043 l 6.211395466541855 -3.926889071423607" fill="#ff0100" stroke="none" /><path d="M 82.24976979558568 111.22182372390057 l -6.204829902238656 3.922738274255911 a28.340830312984167,28.340830312984167 0 0,0 -0.2571395388473217,-0.41459081163348876 l 6.271434080753934 -3.815351131257158" fill="#ff0000" stroke="none" /><line stroke="#e1ed5e" stroke-width="0.3" x1="26.63291911575756" x2="22.317208475507996" y1="142.92168965132927" y2="145.44649492493687" /><path d="M 25.769776987707644 143.4266507060508 a86.0,86.0 0 0,1 -11.730757126820373,-40.83630448921669" fill="none" id="id9" stroke="none" /><text fill="#e1ed5e" style="font-size:6.75px; font-family:Arial;" text-anchor="middle"><textPath startOffset="21.46611528233685" xlink:href="#id9">September</textPath></text><path d="M 81.69416730710424 110.29060199501025 l -6.376818604807114 3.584720966116624 a28.31532910561994,28.31532910561994 0 0,0 -0.23518387476972422,-0.426927046481309 l 6.437578889028354 -3.4744234012374924" fill="#ff0000" stroke="none" /><path d="M 81.35079622478065 109.6543875284942 l -6.51660521624236 3.3735398511441526 a28.338045698386924,28.338045698386924 0 0,0 -0.22052576779466446,-0.4351182611438909 l 6.5737096538232915 -3.260867378297577" fill="#ff0000" stroke="none" /><path d="M 81.18737489456691 109.33194174019688 l -6.56596336630855 3.2570248574699274 a28.32939873726917,28.32939873726917 0 0,0 -0.21293825394004912,-0.4387158733439548 l 6.621054876863318 -3.143520028160688" fill="#ff0000" stroke="none" /><path d="M 80.87730276802145 108.67885076344099 l -6.671114915030252 3.0276906061395863 a28.326027888019876,28.326027888019876 0 0,0 -0.19768723433998608,-0.44573252553097414 l 6.7222432341015175 -2.9124097441159162" fill="#ff0000" stroke="none" /><path d="M 80.45479744820244 107.68017299344265 l -6.837197049562195 2.6866365795766054 a28.34610642485263,28.34610642485263 0 0,0 -0.17453874818974427,-0.45566559528902184 l 6.8824300773454485 -2.568547417454426" fill="#ff0100" stroke="none" /><path d="M 80.32549172779594 107.34259656027581 l -6.878997375407581 2.5672663208652393 a28.342442458277308,28.342442458277308 0 0,0 -0.1666478108310807,-0.45854320302033696 l 6.922169447243886 -2.4484753208387855" fill="#ff0000" stroke="none" /><path d="M 79.86692584326677 105.97154293290107 l -7.045372266217417 2.0896830080923112 a28.348744480786856,28.348744480786856 0 0,0 -0.13473397305794985,-0.46902663565141606 l 7.080298876161471 -1.9680988969362991" fill="#ff0100" stroke="none" /><path d="M 79.67330655649465 105.27499134158121 l -7.108162352385572 1.8446431028046888 a28.34361492758141,28.34361492758141 0 0,0 -0.11848803345806341,-0.47330079456872903 l 7.138861700138694 -1.7220144688385681" fill="#ff0000" stroke="none" /><path d="M 79.58551787078972 104.9243191809786 l -7.155530964291731 1.7260353779501512 a28.360762291153904,28.360762291153904 0 0,0 -0.11039012664080819,-0.47555777639056906 l 7.184181656863093 -1.6026089442110079" fill="#ff0100" stroke="none" /><path d="M 79.4281124754447 104.21870165774334 l -7.187014327330957 1.473849651411201 a28.336580111756795,28.336580111756795 0 0,0 -0.09387513226739606,-0.47866727697547246 l 7.211319392574019 -1.3499186473677736" fill="#ff0000" stroke="none" /><path d="M 79.35854240842038 103.8639653848113 l -7.2137683513960855 1.3503770787588374 a28.339071609028014,28.339071609028014 0 0,0 -0.08562928163796758,-0.4802544860610384 l 7.235944075373242 -1.2260038419645853" fill="#ff0000" stroke="none" /><path d="M 79.18660465613746 102.79330883721812 l -7.284460802066914 0.9776275517095138 a28.349770391427946,28.349770391427946 0 0,0 -0.06074747051488806,-0.48421710997303363 l 7.30020978182865 -0.8520926874490714" fill="#ff0100" stroke="none" /><line stroke="#e1ed5e" stroke-width="0.3" x1="15.007084014347285" x2="10.007500721073583" y1="101.09737516637583" y2="101.16192664675087" /><path d="M 14.007167355692545 101.11028546245083 a86.0,86.0 0 0,1 10.666146001902534,-42.60595125391555" fill="none" id="id10" stroke="none" /><text fill="#e1ed5e" style="font-size:6.75px; font-family:Arial;" text-anchor="middle"><textPath startOffset="22.20632615414155" xlink:href="#id10">October</textPath></text><path d="M 79.00175016825051 100.2711162175752 l -7.343002900834258 0.09480824297593714 a28.34361492758141,28.34361492758141 0 0,0 -0.002099725646101012,-0.48790229284597614 l 7.343546923769862 0.031603528073714394" fill="#ff0000" stroke="none" /><path d="M 79.00019446554 99.90962569577889 l -7.340615777653046 -0.03159091365733596 a28.340683754321155,28.340683754321155 0 0,0 0.006298369969547206,-0.48781569518865314 l 7.338984400565782 0.1579428669064611" fill="#ff0000" stroke="none" /><path d="M 79.00486145842228 99.54816195383935 l -7.804786533043244 -0.1679674316417345 a28.806593744038786,28.806593744038786 0 0,0 0.014935952113199893,-0.4956515367010292 l 7.8007388864744 0.3022891157677581" fill="#ff0801" stroke="none" /><path d="M 79.01574976396665 99.18683210126434 l -8.817386078865516 -0.34168556081074564 a29.82400398267351,29.82400398267351 0 0,0 0.02429433791301452,-0.5128150759130736 l 8.810198132719004 0.4934117433468284" fill="#ff1802" stroke="none" /><path d="M 79.03285615573316 98.82574320788736 l -7.331978933663606 -0.41062464808889493 a28.343468368918398,28.343468368918398 0 0,0 0.03147394910706125,-0.4868880619866088 l 7.323824393552131 0.5367717743285155" fill="#ff0000" stroke="none" /><path d="M 79.08570108090925 98.10471618934814 l -7.328095701866211 -0.6640825590369958 a28.358124235219677,28.358124235219677 0 0,0 0.04823970037821417,-0.4857671995586777 l 7.315578875805768 0.7901252893001038" fill="#ff0100" stroke="none" /><path d="M 79.12142395522702 97.74499172005258 l -7.313684629592456 -0.7899206996343087 a28.35621897260051,28.35621897260051 0 0,0 0.05659043463307724,-0.48483228474016987 l 7.299003841955789 0.9156967226993403" fill="#ff0100" stroke="none" /><path d="M 79.16333360222342 97.38593545837743 l -7.299149260716212 -0.9157149662138283 a28.35636553126352,28.35636553126352 0 0,0 0.06492797652008012,-0.48378884074103046 l 7.282305285138298 1.0412221490195182" fill="#ff0100" stroke="none" /><path d="M 79.46518482838121 95.60439243477599 l -7.206164615210285 -1.5425252885960525 a28.36940925227166,28.36940925227166 0 0,0 0.10632532121857655,-0.4766355667225147 l 7.1785449069896705 1.6663390248685264" fill="#ff0100" stroke="none" /><path d="M 79.54389044137918 95.25157060432595 l -7.168123218184107 -1.6639198623520621 a28.358710469871728,28.358710469871728 0 0,0 0.1144708797497781,-0.4745556985813434 l 7.1384195381735145 1.7870607925928021" fill="#ff0100" stroke="none" /><path d="M 79.62865764111835 94.90015583598534 l -8.637899937877076 -2.1624467750559817 a29.904464688667524,29.904464688667524 0 0,0 0.12930643272313708,-0.4982704326958357 l 8.599397173283633 2.3108136333006812" fill="#ff1a02" stroke="none" /><path d="M 79.81627453868168 94.20196356495316 l -7.455256713310783 -2.141619005829471 a28.75676379861444,28.75676379861444 0 0,0 0.14076313031662446,-0.47458329832717744 l 7.417287685882451 2.269631690903188" fill="#ff0701" stroke="none" /><path d="M 80.02781315780177 93.51064311812611 l -6.992695349898812 -2.2720644489383766 a28.35255500602519,28.35255500602519 0 0,0 0.15480860407026337,-0.462858021759038 l 6.952549452056775 2.392095573619737" fill="#ff0100" stroke="none" /><path d="M 80.2630227832202 92.82701384747504 l -13.78101644191196 -5.008418412800972 a35.6629011171027,35.6629011171027 0 0,0 0.21464890771056958,-0.575152355941578 l 13.692762945699764 5.244893905771891" fill="#ff730a" stroke="none" /><path d="M 80.38941819471856 92.48833698450439 l -11.609998007793365 -4.447108888000054 a33.432571383374196,33.432571383374196 0 0,0 0.21047626575823153,-0.5356391386109368 l 11.531728192153443 4.646297031506754" fill="#ff5107" stroke="none" /><path d="M 81.26839172434947 90.50648371742162 l -13.101911610311138 -6.640284666163927 a35.68854888312993,35.68854888312993 0 0,0 0.2824333413609687,-0.545571318782388 l 12.985668835790056 6.864828707206651" fill="#ff740a" stroke="none" /><path d="M 81.43458229118936 90.18545643968196 l -11.98670146578575 -6.336728078283516 a34.55858159130139,34.55858159130139 0 0,0 0.2825442172249555,-0.5235115234880623 l 11.875849149342322 6.54212058510405" fill="#ff6209" stroke="none" /><line stroke="#e1ed5e" stroke-width="0.3" x1="26.266209847984243" x2="21.928928074336255" y1="57.711370442889674" y2="55.22380399835377" /><path d="M 25.398753493254645 57.213857153982495 a86.0,86.0 0 0,1 29.58750427330803,-30.492523968695096" fill="none" id="id11" stroke="none" /><text fill="#e1ed5e" style="font-size:6.75px; font-family:Arial;" text-anchor="middle"><textPath startOffset="21.46611528233685" xlink:href="#id11">November</textPath></text><path d="M 82.54541684631803 88.32363383020206 l -8.057835536402994 -5.390345757939483 a30.694562440969428,30.694562440969428 0 0,0 0.29755533095164594,-0.4366257317721923 l 7.963855739782608 5.52824951298209" fill="#ff2603" stroke="none" /><path d="M 82.7489923806493 88.02491185347247 l -12.065455747990175 -8.375446773795328 a35.68752297248885,35.68752297248885 0 0,0 0.3546445559436957,-0.5016195738228243 l 11.9194985722426 8.58189284794994" fill="#ff740a" stroke="none" /><path d="M 84.07557802195018 86.31012108654704 l -22.352841091642148 -19.21625088421024 a50.47734389176061,50.47734389176061 0 0,0 0.5720961214865841,-0.6540047636734501 l 22.01875310657772 19.598171204086633" fill="#bdff1f" stroke="none" /><path d="M 84.31358615837235 86.03803664274999 l -5.913195099183062 -5.263141348468829 a28.916219623972346,28.916219623972346 0 0,0 0.3341287895761908,-0.3689533548068932 l 5.821722668990826 5.364147490545278" fill="#ff0a01" stroke="none" /><path d="M 85.83668400450813 84.49514656593479 l -10.238620283568027 -11.208413828675324 a36.18083943218987,36.18083943218987 0 0,0 0.46344039365778517,-0.4160813612587342 l 10.04416890231427 11.382994198703337" fill="#ff7b0b" stroke="none" /><path d="M 86.10567301691215 84.25364557470407 l -19.390457057105262 -21.975084483135195 a50.30689616667675,50.30689616667675 0 0,0 0.6542440625691561,-0.5673540040319207 l 19.009319195889333 22.305603480586797" fill="#bfff1e" stroke="none" /><path d="M 87.51073957382395 83.11751280151077 l -5.045305357361949 -6.820043797758472 a29.483401649831805,29.483401649831805 0 0,0 0.41059804296742625,-0.29831694013160853 l 4.927161998040741 6.905879972706749" fill="#ff1302" stroke="none" /><path d="M 87.80319425747018 82.90503203632743 l -4.581569473128065 -6.421499613899663 a28.888373477999917,28.888373477999917 0 0,0 0.40728322928157373,-0.28532792986825256 l 4.470355104262831 6.4994123865318585" fill="#ff0901" stroke="none" /><path d="M 88.09926311788651 82.69761687909137 l -35.70221064634046 -51.907149362725875 a84.0,84.0 0 0,0 1.198381222373842,-0.8091523508053382 l 34.80342472956008 52.51401362582988" fill="#4dd2ff" stroke="none" /><line stroke="#e1ed5e" stroke-width="0.3" x1="56.762969772571076" x2="54.21961505331055" y1="26.818313649435495" y2="22.513508569990535" /><path d="M 56.25429882871897 25.957352633546506 a86.0,86.0 0 0,1 42.265352541879196,-11.944610805530505" fill="none" id="id12" stroke="none" /><text fill="#e1ed5e" style="font-size:6.75px; font-family:Arial;" text-anchor="middle"><textPath startOffset="22.20632615414155" xlink:href="#id12">December</textPath></text><path d="M 89.94658935756843 81.56283822128135 l -6.21808951320323 -11.403485482390824 a33.98861495084469,33.98861495084469 0 0,0 0.5160684875580444,-0.2756659134699784 l 6.02087597911688 11.508830122362552" fill="#ff5a08" stroke="none" /><path d="M 91.23893434514133 80.91482961587045 l -3.7101776658799173 -8.082278537593329 a29.893179671615542,29.893179671615542 0 0,0 0.4694907234087773,-0.21064680226741353 l 3.5705048240043658 8.144945670377272" fill="#ff1902" stroke="none" /><path d="M 91.90106846888425 80.62456947434976 l -3.325320729712807 -7.955311206980762 a29.622339262367923,29.622339262367923 0 0,0 0.47214641769714183,-0.19260037866919763 l 3.1878904424272845 8.011372471833537" fill="#ff1502" stroke="none" /><path d="M 92.23578459929587 80.48803036053334 l -7.177250961240582 -18.036890480634874 a40.412427709357885,40.412427709357885 0 0,0 0.6485556419660559,-0.2516295131663901 l 6.86571215427485 18.157762697691815" fill="#ffb911" stroke="none" /></svg>