<?xml version="1.0" encoding="utf-8" ?>
<svg baseProfile="full" height="200mm" version="1.1" viewBox="0,0,200,200" width="200mm" xmlns="http://www.w3.org/2000/svg" xmlns:ev="http://www.w3.org/2001/xml-events" xmlns:xlink="http://www.w3.org/1999/xlink"><defs /><rect fill="#1a1a1a" height="200" width="200" x="0" y="0" /><rect fill="#1a1a1a" height="200" width="180" x="10" y="0" /><text alignment-baseline="middle" fill="#e1ed5e" style="dominant-baseline: central; font-size:9.0px; font-family:Arial;" text-anchor="middle" x="100.0" y="100.0">2026</text><line stroke="#e1ed5e" stroke-width="0.3" x1="100.0" x2="100.0" y1="15.0" y2="10.0" /><path d="M 100.0 14.0 a86.0,86.0 0 0,1 42.46469731375804,11.215312516191453" fill="none" id="id49" stroke="none" /><text fill="#e1ed5e" style="font-size:6.75px; font-family:Arial;" text-anchor="middle"><textPath startOffset="22.20632615414155" xlink:href="#id49">January</textPath></text><path d="M 100.0 79.0 l 0.0 -38.93496483283553 a59.93496483283553,59.93496483283553 0 0,0 1.031681895855025,0.008880011791222995 l -0.6702014165824964 38.92919619765287" fill="#75ff27" stroke="none" /><path d="M 100.72285384407766 79.0124445844662 l 2.01584817349008 -58.52874076419835 a79.56344541863378,79.56344541863378 0 0,0 1.368336558077649,0.05892345056323312 l -3.0230255639570607 58.48536958711093" fill="#46fff7" stroke="none" /><path d="M 101.80526077348638 79.07773832637324 l 2.8188734630219727 -32.66963370853594 a53.79102032951151,53.79102032951151 0 0,0 0.921811266893764,0.08753708713019213 l -3.380809857005981 32.61627107689057" fill="#ccff1d" stroke="none" /><path d="M 102.16513564639614 79.11191278185805 l 1.4963106933719152 -14.435616687857443 a35.51295885923499,35.51295885923499 0 0,0 0.6074970132917378,0.0682593677995619 l -1.7445744101733782 14.40772136658728" fill="#ff0000" stroke="none" /><path d="M 102.52436894288641 79.15227682838746 l 3.6224675220363656 -29.916466969055772 a51.13498410251469,51.13498410251469 0 0,0 0.8729113647017597,0.1133289478622022 l -4.136893615245971 29.849679698029433" fill="#f4ff19" stroke="none" /><path d="M 102.88285421437855 79.19881850522331 l 4.135822261498869 -29.84194936479668 a51.12717988245495,51.12717988245495 0 0,0 0.8706983556747564,0.12831830424284377 l -4.648889597602281 29.766336576392867" fill="#f4ff19" stroke="none" /><path d="M 103.2404852339499 79.25152402106235 l 6.1082743009846725 -39.11061876750459 a60.5847384141054,60.5847384141054 0 0,0 1.0289907974298838,0.1697922983093038 l -6.780594304553431 38.99968020625566" fill="#6cff28" stroke="none" /><path d="M 103.59715602781102 79.31037775812273 l 5.274455722994356 -30.336881579937312 a51.7919838134695,51.7919838134695 0 0,0 0.87702295865854,0.16027033990517414 l -5.795873802755796 30.2415957586814" fill="#eaff1a" stroke="none" /><path d="M 104.66035177308747 79.52364482259891 l 6.503183398609203 -28.573270760949686 a50.30397918874651,50.30397918874651 0 0,0 0.8426546823871998,0.19942913824018177 l -6.994061767958927 28.457095710568638" fill="#fffd17" stroke="none" /><path d="M 105.01212808612495 79.60689891045804 l 7.188467738073031 -29.248085193044638 a51.118508526833025,51.118508526833025 0 0,0 0.8526837695537316,0.21736807865535096 l -7.690860396311788 29.120014118220418" fill="#f4ff19" stroke="none" /><path d="M 105.71112130821622 79.79150937346287 l 12.59539134262156 -44.568103906102195 a67.31371037672223,67.31371037672223 0 0,0 1.112310284859746,0.32471387370687477 l -13.360691845204734 44.34469170347662" fill="#33ff4e" stroke="none" /><path d="M 106.0581310904928 79.89281104454417 l 18.174393271478365 -60.321566866367476 a84.0,84.0 0 0,0 1.380858509157127,0.4290394604699177 l -19.21003715334621 59.99978727101504" fill="#4dd2ff" stroke="none" /><path d="M 107.08798089147638 80.2323363322302 l 12.228091406241301 -34.10291335689187 a57.22892378841892,57.22892378841892 0 0,0 0.9244315440974257,0.340475939289807 l -12.813305276111304 33.88737414979574" fill="#9aff22" stroke="none" /><path d="M 107.4271985657038 80.35727306442388 l 10.302474010062399 -27.246973667163434 a50.12968494074573,50.12968494074573 0 0,0 0.8045022742044753,0.31213438369860413 l -10.76995944926654 27.065596579574283" fill="#fffa17" stroke="none" /><path d="M 108.09893153111575 80.62456947434976 l 17.01775544673532 -40.71232570542567 a65.12592735330956,65.12592735330956 0 0,0 1.0305906404034646,0.44124512788999415 l -17.7160298449291 40.413361049572885" fill="#32ff2f" stroke="none" /><path d="M 108.43124777332544 80.76684994638697 l 17.837996472732012 -40.69158824881238 a65.42971384526447,65.42971384526447 0 0,0 1.0276137909414242,0.4610603537723893 l -18.535792382140215 40.37850756452346" fill="#30ff31" stroke="none" /><path d="M 109.08828744355905 81.06846463323043 l 13.10961039578529 -27.308230994417986 a51.2919356392716,51.2919356392716 0 0,0 0.792652708837871,0.3889512417738243 l -13.577734371633595 27.07852459250933" fill="#f2ff19" stroke="none" /><path d="M 109.41281617654863 81.2277094730956 l 16.388118092907224 -32.68336577056957 a57.56190384430099,57.56190384430099 0 0,0 0.8819018512537303,0.4517443814659006 l -16.94828043174971 32.39642886379117" fill="#96ff23" stroke="none" /><path d="M 110.36928655335952 81.73862282372117 l 29.4945138216524 -51.94286402989418 a80.7326332016572,80.7326332016572 0 0,0 1.2025443553407855,0.6965913094806828 l -30.384254909458516 51.427468563023446" fill="#48f9ff" stroke="none" /><line stroke="#e1ed5e" stroke-width="0.3" x1="143.23703022742887" x2="145.7803849466894" y1="26.81831364943548" y2="22.513508569990506" /><path d="M 143.74570117128098 25.957352633546492 a86.0,86.0 0 0,1 28.547481713284135,27.462654790039103" fill="none" id="id50" stroke="none" /><text fill="#e1ed5e" style="font-size:6.75px; font-family:Arial;" text-anchor="middle"><textPath startOffset="19.985693538727396" xlink:href="#id50">February</textPath></text><path d="M 110.68208982089419 81.91981866633111 l 21.044979925311967 -35.62009490584966 a62.372482898159745,62.372482898159745 0 0,0 0.9196612728315202,0.5540856267207751 l -21.655003264361124 35.25256266967027" fill="#55ff2b" stroke="none" /><path d="M 111.60114157652 82.49532879139004 l 16.622559813300665 -25.081363093283105 a51.08960400809326,51.08960400809326 0 0,0 0.7288669297834983,0.492134204581685 l -17.051831437490705 24.79151697640275" fill="#f5ff19" stroke="none" /><path d="M 113.6212207817346 84.01681056812373 l 15.975447989919285 -18.74564810111319 a45.62954041815203,45.62954041815203 0 0,0 0.5934147834807353,0.5146034526281149 l -16.295756572046784 18.467879655065403" fill="#ffb210" stroke="none" /><path d="M 114.16331599549186 84.49514656593476 l 19.75569409361134 -21.626936905677276 a50.29183929087581,50.29183929087581 0 0,0 0.6341372644609751,0.5893614765407496 l -20.12503924186716 21.283670843061884" fill="#fffd17" stroke="none" /><path d="M 114.42810811169701 84.74124197986012 l 20.712863557595664 -21.90533717121921 a51.14741304557279,51.14741304557279 0 0,0 0.6345122925832622,0.6104003227416678 l -21.086859093791347 21.54555376171524" fill="#f4ff19" stroke="none" /><path d="M 115.19652480421416 85.50635884689758 l 33.4979071393459 -31.948531109098752 a67.29058676173042,67.29058676173042 0 0,0 0.7922110462515013,0.8450755088232862 l -34.04288550756787 31.36718618339741" fill="#32ff4d" stroke="none" /><path d="M 115.4437574822437 85.77008943001954 l 30.714271432244693 -28.30019418560896 a62.76442817227093,62.76442817227093 0 0,0 0.725247030433314,0.8008358851133613 l -31.196862103294045 27.76730551322605" fill="#50ff2b" stroke="none" /><path d="M 115.9244219780498 86.31012108654704 l 17.117443998152563 -14.715493973064055 a43.5732729550053,43.5732729550053 0 0,0 0.48405629123959876,0.5729699696139432 l -17.36821090287928 14.418665053821005" fill="#ff900d" stroke="none" /><path d="M 116.15771136456269 86.58626213691792 l 23.008164658475188 -19.100817094449212 a50.90345890740919,50.90345890740919 0 0,0 0.553881767565217,0.6789935553175638 l -23.333544918116814 18.701939369523547" fill="#f8ff18" stroke="none" /><path d="M 116.38621287248628 86.86637796730983 l 27.137064303160912 -21.750476965483617 a55.77791694768282,55.77791694768282 0 0,0 0.5940239770627638,0.7543501267903641 l -27.507442360817638 21.280134444740217" fill="#afff20" stroke="none" /><path d="M 117.04232023915458 87.72973835380427 l 23.487405657389353 -16.91064413543739 a49.94180556893727,49.94180556893727 0 0,0 0.49629640792597,0.7019760728348741 l -23.775014685119206 16.503841562270722" fill="#fff817" stroke="none" /><path d="M 117.65298651832404 88.62581576622439 l 33.32401205733588 -21.471350026538357 a60.64225840639753,60.64225840639753 0 0,0 0.5578290869256053,0.88235165257132 l -33.68866874050744 20.89455072625283" fill="#6bff28" stroke="none" /><line stroke="#e1ed5e" stroke-width="0.3" x1="172.23445277983987" x2="176.4835382374775" y1="55.19839476539836" y2="52.563006222186495" /><path d="M 173.08426987136738 54.67131705675599 a86.0,86.0 0 0,1 12.851231095245387,41.99856678651699" fill="none" id="id51" stroke="none" /><text fill="#e1ed5e" style="font-size:6.75px; font-family:Arial;" text-anchor="middle"><textPath startOffset="22.20632615414155" xlink:href="#id51">March</textPath></text><path d="M 117.84615892207809 88.93136811851018 l 34.74170830252069 -21.54767206846784 a61.881395124771174,61.881395124771174 0 0,0 0.553644596378685,0.9100461454016922 l -35.1074686971856 20.946458149859065" fill="#5bff2a" stroke="none" /><path d="M 118.3937258080291 89.86733742301442 l 25.3450771563706 -13.961995383288057 a49.93631371037672,49.93631371037672 0 0,0 0.40826955328369596,0.7564614768355667 l -25.581654808872763 13.523652923120032" fill="#fff717" stroke="none" /><path d="M 118.73160827565052 90.50648371742162 l 35.32173941563488 -17.901693401693525 a60.599190673475285,60.599190673475285 0 0,0 0.46355491451528674,0.934498421158516 l -35.62465434310357 17.291035392036058" fill="#6cff28" stroke="none" /><path d="M 118.89224826269711 90.83032412892265 l 36.65178853766751 -17.789572543850234 a61.74091916369592,61.74091916369592 0 0,0 0.4558296962385497,0.9600935913442481 l -36.952576427747815 17.156036536865447" fill="#5dff2a" stroke="none" /><path d="M 119.34039704204932 91.81776055985345 l 22.64503262323662 -9.580314129560326 a45.58820695635418,45.58820695635418 0 0,0 0.29953256636765097,0.7253418681693121 l -22.806586876490467 9.189097690937711" fill="#ffb210" stroke="none" /><path d="M 119.61058180528143 92.48833698450437 l 21.677368102929695 -8.30332755391318 a44.213218999903646,44.213218999903646 0 0,0 0.2661118099600277,0.7130473482248784 l -21.81708450139135 7.928957068658968" fill="#ff9b0e" stroke="none" /><path d="M 119.85752413597 93.16781622104841 l 32.84186809428404 -11.299579792920362 a55.7313806725118,55.7313806725118 0 0,0 0.3043005204640891,0.9098198240863115 l -33.0315059085199 10.732586865911736" fill="#b0ff20" stroke="none" /><path d="M 119.97218684219823 93.5106431181261 l 23.35948380542846 -7.589956382217311 a45.56161479911359,45.56161479911359 0 0,0 0.23593217905090216,0.7479694818732385 l -23.486671468247568 7.1867367339176536" fill="#ffb110" stroke="none" /><path d="M 120.37134235888165 94.90015583598534 l 28.507485962417203 -7.136679230800782 a50.38722420271702,50.38722420271702 0 0,0 0.20338970944259938,0.8431816533582556 l -28.626108472120624 6.64491234578312" fill="#ffff18" stroke="none" /><path d="M 120.53481517161879 95.60439243477599 l 29.761109634987854 -6.3705544738390465 a51.435302052220834,51.435302052220834 0 0,0 0.17786989761224198,0.8673567899656868 l -29.866358828515093 5.857322027709948" fill="#efff19" stroke="none" /><path d="M 120.73433829027371 96.67025291283417 l 28.602787507802734 -4.59334882336735 a49.969264861740044,49.969264861740044 0 0,0 0.1290732441866702,0.8504314102238587 l -28.677616645428706 4.100318300751409" fill="#fff817" stroke="none" /><path d="M 120.83666639777658 97.38593545837742 l 22.077637252430602 -2.7697505734671095 a43.25069852586954,43.25069852586954 0 0,0 0.08631530988416142,0.7394968632160723 l -22.122042915318353 2.3893099719261843" fill="#ff8a0c" stroke="none" /><path d="M 120.91429891909075 98.10471618934814 l 61.395973648213804 -5.563791325008323 a82.64755756816649,82.64755756816649 0 0,0 0.11620056182181614,1.4179411794561967 l -61.48264869385511 4.506136228344357" fill="#4be2ff" stroke="none" /><line stroke="#e1ed5e" stroke-width="0.3" x1="184.98032266829074" x2="189.97916517819016" y1="98.17113171792111" y2="98.06355123074" /><path d="M 185.9800911702706 98.14961562048488 a86.0,86.0 0 0,1 -9.607161424134198,41.387399972396054" fill="none" id="id52" stroke="none" /><text fill="#e1ed5e" style="font-size:6.75px; font-family:Arial;" text-anchor="middle"><textPath startOffset="21.466115282336823" xlink:href="#id52">April</textPath></text><path d="M 120.9764740272857 100.99374915477107 l 34.70142201064607 1.6439611703843502 a55.740341073321126,55.740341073321126 0 0,0 -0.05365312837455008,0.9580126492605667 l -34.66798253138399 -2.2410455359803403" fill="#afff20" stroke="none" /><path d="M 120.95626037817324 101.35467743843564 l 28.87315959224176 1.8664502716667948 a49.93342325850274,49.93342325850274 0 0,0 -0.06282918476951638,0.8572543081603435 l -28.836753848807906 -2.3631777163239085" fill="#fff717" stroke="none" /><path d="M 120.8583938346157 102.4346265915055 l 23.315075266116207 2.7213745543358474 a44.473359668561514,44.473359668561514 0 0,0 -0.095296860181303,0.7596097390620973 l -23.264776896688055 -3.1223020476853396" fill="#ff9f0e" stroke="none" /><path d="M 120.76222939487914 103.15116336523771 l 31.04060887880436 4.711152529587483 a52.39608825513055,52.39608825513055 0 0,0 -0.1430119931959611,0.8905358181468578 l -30.95491513124711 -5.244767577427546" fill="#e1ff1b" stroke="none" /><line stroke="#e1ed5e" stroke-width="0.3" x1="174.80103733775053" x2="179.2010983576182" y1="140.37084112569926" y2="142.7455964860345" /><path d="M 175.68104954172406 140.8457921977663 a86.0,86.0 0 0,1 -30.038265399797805,32.042727171017184" fill="none" id="id53" stroke="none" /><text fill="#e1ed5e" style="font-size:6.75px; font-family:Arial;" text-anchor="middle"><textPath startOffset="22.206326154141568" xlink:href="#id53">May</textPath></text><line stroke="#e1ed5e" stroke-width="0.3" x1="143.8653032363475" x2="146.44561519142675" y1="172.8068346515853" y2="177.08958963109032" /><path d="M 144.38136562736335 173.6633856474863 a86.0,86.0 0 0,1 -40.68145358897372,12.25698825130547" fill="none" id="id54" stroke="none" /><text fill="#e1ed5e" style="font-size:6.75px; font-family:Arial;" text-anchor="middle"><textPath startOffset="21.466115282336833" xlink:href="#id54">June</textPath></text><line stroke="#e1ed5e" stroke-width="0.3" x1="102.19456741930631" x2="102.32365962044197" y1="184.97166512339345" y2="189.96999836594603" /><path d="M 102.22038585953345 185.97133177190398 a86.0,86.0 0 0,1 -42.740103519485714,-10.115201625700543" fill="none" id="id55" stroke="none" /><text fill="#e1ed5e" style="font-size:6.75px; font-family:Arial;" text-anchor="middle"><textPath startOffset="22.20632615414155" xlink:href="#id55">July</textPath></text><line stroke="#e1ed5e" stroke-width="0.3" x1="58.666819895761336" x2="56.23545636021788" y1="174.27360380694188" y2="178.64263932499728" /><path d="M 58.180547188652646 175.14741091055294 a86.0,86.0 0 0,1 -31.652253787137756,-30.449443065178592" fill="none" id="id56" stroke="none" /><text fill="#e1ed5e" style="font-size:6.75px; font-family:Arial;" text-anchor="middle"><textPath startOffset="22.20632615414155" xlink:href="#id56">August</textPath></text><line stroke="#e1ed5e" stroke-width="0.3" x1="26.63291911575756" x2="22.317208475507996" y1="142.92168965132927" y2="145.44649492493687" /><path d="M 25.769776987707644 143.4266507060508 a86.0,86.0 0 0,1 -11.730757126820373,-40.83630448921669" fill="none" id="id57" stroke="none" /><text fill="#e1ed5e" style="font-size:6.75px; font-family:Arial;" text-anchor="middle"><textPath startOffset="21.46611528233685" xlink:href="#id57">September</textPath></text><line stroke="#e1ed5e" stroke-width="0.3" x1="15.007084014347285" x2="10.007500721073583" y1="101.09737516637583" y2="101.16192664675087" /><path d="M 14.007167355692545 101.11028546245083 a86.0,86.0 0 0,1 10.666146001902534,-42.60595125391555" fill="none" id="id58" stroke="none" /><text fill="#e1ed5e" style="font-size:6.75px; font-family:Arial;" text-anchor="middle"><textPath startOffset="22.20632615414155" xlink:href="#id58">October</textPath></text><line stroke="#e1ed5e" stroke-width="0.3" x1="26.266209847984243" x2="21.928928074336255" y1="57.711370442889674" y2="55.22380399835377" /><path d="M 25.398753493254645 57.213857153982495 a86.0,86.0 0 0,1 29.58750427330803,-30.492523968695096" fill="none" id="id59" stroke="none" /><text fill="#e1ed5e" style="font-size:6.75px; font-family:Arial;" text-anchor="middle"><textPath startOffset="21.46611528233685" xlink:href="#id59">November</textPath></text><line stroke="#e1ed5e" stroke-width="0.3" x1="56.762969772571076" x2="54.21961505331055" y1="26.818313649435495" y2="22.513508569990535" /><path d="M 56.25429882871897 25.957352633546506 a86.0,86.0 0 0,1 42.265352541879196,-11.944610805530505" fill="none" id="id60" stroke="none" /><text fill="#e1ed5e" style="font-size:6.75px; font-family:Arial;" text-anchor="middle"><textPath startOffset="22.20632615414155" xlink:href="#id60">December</textPath></text></svg>